{"glyphs":{"0":{"ha":688,"x_min":49,"x_max":639,"o":"m 483 442 q 479 567 483 518 q 462 669 475 616 q 420 748 449 722 q 345 774 391 774 q 267 747 297 774 q 224 667 237 720 q 206 565 210 614 q 202 442 202 515 q 206 316 202 368 q 224 209 210 264 q 267 125 237 153 q 345 96 297 96 q 408 117 381 96 q 450 169 435 138 q 471 250 464 199 q 481 341 479 300 q 483 442 483 382 m 639 442 q 345 -18 639 -18 q 49 442 49 -18 q 345 888 49 888 q 639 442 639 888 z "},"1":{"ha":688,"x_min":132,"x_max":479,"o":"m 479 0 l 334 0 l 334 709 q 132 601 244 632 l 132 732 q 338 872 254 779 l 479 872 l 479 0 z "},"2":{"ha":688,"x_min":50,"x_max":636,"o":"m 636 0 l 50 0 l 50 141 q 481 636 481 465 q 450 730 481 694 q 365 766 419 766 q 271 730 307 766 q 233 633 236 694 l 76 633 q 159 819 79 749 q 362 888 240 888 q 560 820 484 888 q 636 646 636 751 q 609 511 636 575 q 486 346 582 446 q 220 123 391 245 l 636 123 l 636 0 z "},"3":{"ha":688,"x_min":56,"x_max":631,"o":"m 631 241 q 545 56 631 130 q 343 -18 458 -18 q 128 51 201 -18 q 56 240 56 119 l 213 240 q 248 141 216 180 q 336 102 279 102 q 436 142 396 102 q 476 247 476 182 q 429 366 476 336 q 273 395 382 395 l 273 514 q 412 544 366 515 q 458 644 458 572 q 424 737 458 705 q 339 769 389 769 q 252 736 285 769 q 216 643 220 704 l 62 643 q 142 823 68 758 q 342 888 216 888 q 537 821 463 888 q 612 646 612 753 q 575 527 612 570 q 473 456 538 484 q 589 382 547 430 q 631 241 631 334 z "},"4":{"ha":688,"x_min":28,"x_max":658,"o":"m 403 324 l 403 720 l 160 324 l 403 324 m 658 198 l 548 198 l 548 0 l 403 0 l 403 198 l 28 198 l 28 345 l 365 872 l 548 872 l 548 324 l 658 324 l 658 198 z "},"5":{"ha":688,"x_min":52,"x_max":635,"o":"m 635 300 q 548 76 635 168 q 335 -16 461 -16 q 133 45 209 -16 q 52 218 57 106 l 203 218 q 330 103 203 103 q 439 157 399 103 q 480 292 480 210 q 349 460 480 460 q 263 435 296 460 q 203 355 231 410 l 65 355 l 87 872 l 583 872 l 583 746 l 232 746 l 218 503 q 395 572 275 572 q 569 492 503 572 q 635 300 635 411 z "},"6":{"ha":688,"x_min":46,"x_max":642,"o":"m 483 271 q 353 439 483 439 q 221 271 221 439 q 353 102 221 102 q 483 271 483 102 m 642 283 q 625 179 642 229 q 576 83 609 129 q 484 10 544 38 q 346 -18 425 -18 q 196 14 256 -18 q 104 106 136 46 q 59 238 72 167 q 46 403 46 309 q 54 540 46 476 q 82 670 61 604 q 137 783 103 736 q 229 859 171 829 q 361 888 286 888 q 542 827 472 888 q 623 658 612 765 l 471 658 q 439 739 469 709 q 363 769 410 769 q 279 733 315 769 q 227 641 243 697 q 205 536 212 585 q 198 445 198 488 q 278 525 235 498 q 397 552 321 552 q 510 528 461 552 q 587 463 559 503 q 628 376 614 422 q 642 283 642 331 z "},"7":{"ha":688,"x_min":60,"x_max":628,"o":"m 628 719 l 336 0 l 157 0 l 483 747 l 60 747 l 60 872 l 628 872 l 628 719 z "},"8":{"ha":688,"x_min":46,"x_max":642,"o":"m 449 146 q 467 167 449 146 q 486 254 486 189 q 448 361 486 319 q 345 403 411 403 q 241 360 279 403 q 203 254 203 317 q 241 146 203 189 q 345 103 278 103 q 449 146 412 103 m 432 557 q 449 573 432 557 q 467 647 467 590 q 433 736 467 704 q 345 769 400 769 q 254 736 288 769 q 221 647 221 704 q 256 557 221 590 q 345 524 290 524 q 432 557 397 524 m 642 225 q 554 43 642 102 q 345 -16 467 -16 q 132 43 218 -16 q 46 225 46 102 q 93 379 46 320 q 210 465 140 438 q 64 669 64 524 q 146 835 64 781 q 345 888 229 888 q 543 836 461 888 q 624 665 624 783 q 579 539 624 589 q 468 465 534 490 q 590 382 538 442 q 642 225 642 321 z "},"9":{"ha":688,"x_min":46,"x_max":642,"o":"m 465 601 q 334 769 465 769 q 203 601 203 769 q 334 431 203 431 q 465 601 465 431 m 630 629 q 636 594 630 629 q 642 468 642 560 q 627 296 642 376 q 580 143 613 217 q 481 26 547 69 q 326 -18 416 -18 q 144 47 218 -18 q 64 214 69 111 l 216 214 q 247 131 217 160 q 324 102 277 102 q 408 137 373 102 q 460 227 444 172 q 483 332 476 282 q 490 426 490 381 q 289 320 427 320 q 173 346 222 320 q 97 414 123 372 q 58 500 71 457 q 46 589 46 544 q 62 695 46 644 q 112 791 79 746 q 204 862 145 836 q 340 888 263 888 q 494 855 433 888 q 587 760 556 822 q 630 629 618 697 z "},"\u0000":{"ha":1356,"x_min":0,"x_max":0,"o":""},"\r":{"ha":1356,"x_min":0,"x_max":0,"o":""}," ":{"ha":685,"x_min":0,"x_max":0,"o":""},"!":{"ha":370,"x_min":76,"x_max":296,"o":"m 138 1080 q 147 1092 138 1080 q 186 1103 156 1103 q 235 1080 216 1103 q 256 1021 254 1058 q 260 909 260 974 q 225 362 260 609 q 210 289 217 307 q 186 271 203 271 q 161 290 168 271 q 146 363 155 308 q 113 909 113 617 q 117 1021 113 974 q 138 1080 119 1058 m 296 80 q 263 4 296 35 q 186 -27 231 -27 q 109 4 141 -27 q 76 80 76 35 q 109 155 76 123 q 186 187 141 187 q 263 155 231 187 q 296 80 296 123 z "},"\"":{"ha":601,"x_min":84,"x_max":515,"o":"m 247 872 l 217 522 l 114 522 l 84 872 l 247 872 m 515 872 l 487 522 l 382 522 l 353 872 l 515 872 z "},"#":{"ha":753,"x_min":75,"x_max":678,"o":"m 439 359 l 326 359 l 312 245 l 426 245 l 439 359 m 678 119 l 536 119 l 515 -34 l 389 -34 l 410 119 l 296 119 l 275 -34 l 149 -34 l 170 119 l 75 119 l 75 245 l 186 245 l 199 359 l 75 359 l 75 486 l 216 486 l 240 658 l 366 658 l 343 486 l 456 486 l 480 658 l 606 658 l 583 486 l 678 486 l 678 359 l 566 359 l 552 245 l 678 245 l 678 119 z "},"$":{"ha":688,"x_min":37,"x_max":650,"o":"m 503 233 q 473 315 503 286 q 376 365 442 343 l 376 113 q 503 233 503 125 m 313 524 l 313 753 q 227 715 252 745 q 202 635 202 685 q 227 569 202 591 q 313 524 252 547 m 650 247 q 570 62 650 130 q 376 -16 490 -5 l 376 -125 l 313 -125 l 313 -18 q 110 67 183 -7 q 37 267 37 141 l 186 267 q 313 111 186 121 l 313 378 q 229 405 256 396 q 162 435 202 414 q 104 477 122 456 q 71 536 85 499 q 56 623 56 574 q 132 805 56 731 q 313 879 209 879 l 313 960 l 376 960 l 376 880 q 555 810 487 880 q 624 629 624 739 l 473 629 q 450 720 473 690 q 376 755 427 749 l 376 505 q 553 438 506 468 q 650 247 650 376 z "},"%":{"ha":1008,"x_min":69,"x_max":937,"o":"m 809 60 q 820 72 809 60 q 831 114 831 84 q 809 167 831 144 q 760 190 787 190 q 705 167 727 190 q 684 114 684 144 q 705 60 684 83 q 760 37 727 37 q 809 60 787 37 m 301 416 q 312 428 301 416 q 323 469 323 439 q 301 523 323 499 q 252 547 279 547 q 197 524 220 547 q 175 469 175 500 q 197 416 175 439 q 252 393 220 393 q 301 416 279 393 m 937 114 q 884 -12 937 43 q 760 -66 830 -66 q 632 -12 686 -66 q 578 114 578 43 q 631 241 578 187 q 760 296 685 296 q 884 241 831 296 q 937 114 937 187 m 429 469 q 375 345 429 400 q 252 290 321 290 q 123 345 178 290 q 69 469 69 399 q 123 598 69 544 q 252 652 178 652 q 376 598 323 652 q 429 469 429 544 m 796 597 l 308 -94 l 212 -12 l 693 674 l 796 597 z "},"&":{"ha":944,"x_min":66,"x_max":933,"o":"m 571 156 q 320 414 426 283 q 221 252 221 339 q 273 143 221 189 q 396 98 326 98 q 571 156 509 98 m 490 701 q 460 754 490 730 q 396 779 431 779 q 319 755 347 779 q 290 696 290 731 q 369 555 290 642 q 455 623 420 583 q 490 701 490 663 m 933 0 l 736 0 l 662 69 q 392 -16 560 -16 q 162 50 258 -16 q 66 240 66 117 q 251 500 66 412 q 145 705 145 593 q 219 841 145 793 q 387 888 293 888 q 553 845 483 888 q 623 720 623 802 q 608 640 623 677 q 560 572 593 604 q 505 524 528 541 q 439 479 483 507 q 644 262 510 389 q 670 420 670 330 q 669 472 670 454 l 821 472 q 747 164 812 296 q 933 0 807 91 z "},"'":{"ha":479,"x_min":157,"x_max":320,"o":"m 320 872 l 290 522 l 187 522 l 157 872 l 320 872 z "},"(":{"ha":598,"x_min":100,"x_max":537,"o":"m 537 -629 l 392 -629 q 169 -209 237 -437 q 100 298 100 19 q 396 1244 100 830 l 537 1244 q 227 298 227 811 q 537 -629 227 -244 z "},")":{"ha":600,"x_min":61,"x_max":499,"o":"m 499 304 q 206 -624 499 -259 l 61 -624 q 373 304 373 -245 q 61 1249 373 821 l 203 1249 q 499 304 499 831 z "},"*":{"ha":770,"x_min":75,"x_max":694,"o":"m 694 519 l 629 408 l 450 515 l 450 305 l 324 305 l 324 515 l 144 408 l 75 518 l 260 625 l 75 731 l 144 840 l 321 736 l 321 944 l 450 944 l 450 738 l 629 840 l 694 730 l 514 625 l 694 519 z "},"+":{"ha":784,"x_min":126,"x_max":658,"o":"m 658 368 l 658 241 l 454 241 l 454 38 l 328 38 l 328 241 l 126 241 l 126 368 l 328 368 l 328 572 l 454 572 l 454 368 l 658 368 z "},",":{"ha":338,"x_min":54,"x_max":282,"o":"m 282 84 q 236 -85 282 -5 q 129 -201 190 -165 l 113 -180 q 168 -106 145 -155 q 191 -7 191 -58 q 190 24 191 15 q 144 4 178 15 q 95 -7 111 -7 q 66 20 77 -7 q 54 84 54 47 q 88 169 54 133 q 167 205 122 205 q 250 169 217 205 q 282 84 282 133 z "},"-":{"ha":682,"x_min":75,"x_max":606,"o":"m 606 362 l 606 236 l 75 236 l 75 362 l 606 362 z "},".":{"ha":330,"x_min":54,"x_max":275,"o":"m 242 155 q 259 139 242 155 q 275 80 275 123 q 242 5 275 37 q 165 -27 209 -27 q 87 4 121 -27 q 54 80 54 35 q 87 155 54 123 q 165 187 121 187 q 242 155 209 187 z "},"/":{"ha":728,"x_min":75,"x_max":652,"o":"m 652 1025 l 172 -345 l 75 -247 l 555 1119 l 652 1025 z "},":":{"ha":330,"x_min":54,"x_max":275,"o":"m 242 155 q 259 139 242 155 q 275 80 275 123 q 242 5 275 37 q 165 -27 209 -27 q 87 5 121 -27 q 54 80 54 37 q 87 156 54 125 q 165 187 121 187 q 242 155 209 187 m 275 521 q 242 446 275 477 q 165 414 209 414 q 87 446 121 414 q 54 521 54 477 q 87 597 54 566 q 165 629 121 629 q 242 597 209 629 q 275 521 275 566 z "},";":{"ha":334,"x_min":54,"x_max":275,"o":"m 269 76 q 227 -71 269 -1 q 130 -178 186 -141 l 107 -159 q 161 -91 138 -134 q 184 1 184 -47 q 183 20 184 15 q 92 -8 119 -8 q 77 1 85 -8 q 62 31 69 9 q 54 79 54 52 q 85 156 54 122 q 159 190 117 190 q 237 155 206 190 q 269 76 269 121 m 275 522 q 242 446 275 477 q 165 414 209 414 q 87 446 121 414 q 54 522 54 477 q 87 597 54 566 q 165 629 121 629 q 242 597 209 629 q 275 522 275 566 z "},"<":{"ha":1208,"x_min":241,"x_max":966,"o":"m 966 149 l 966 46 l 241 323 l 241 400 l 966 677 l 966 575 l 395 362 l 966 149 z "},"=":{"ha":795,"x_min":47,"x_max":746,"o":"m 746 499 l 746 373 l 47 373 l 47 499 l 746 499 m 746 232 l 746 106 l 47 106 l 47 232 l 746 232 z "},">":{"ha":1208,"x_min":241,"x_max":966,"o":"m 966 400 l 966 323 l 241 46 l 241 149 l 812 362 l 241 575 l 241 677 l 966 400 z "},"?":{"ha":606,"x_min":27,"x_max":532,"o":"m 532 792 q 512 692 532 734 q 465 627 492 651 q 409 583 437 604 q 361 535 381 563 q 342 469 342 507 l 342 271 l 216 271 l 216 491 q 235 572 216 537 q 283 629 255 606 q 340 672 312 651 q 387 723 368 693 q 407 792 407 753 q 367 880 407 840 q 279 920 327 920 q 189 878 225 920 q 153 784 153 836 l 153 753 l 27 753 l 27 784 q 96 962 27 876 q 279 1048 165 1048 q 461 970 391 1048 q 532 792 532 892 m 365 77 q 339 16 365 41 q 278 -9 313 -9 q 218 17 243 -9 q 194 77 194 43 q 218 136 194 113 q 278 160 243 160 q 339 136 313 160 q 365 77 365 111 z "},"@":{"ha":1241,"x_min":56,"x_max":1184,"o":"m 736 320 q 612 492 736 492 q 519 437 551 492 q 487 312 487 381 q 516 183 487 237 q 609 129 545 129 q 705 187 673 129 q 736 320 736 245 m 1184 366 q 1116 120 1184 229 q 929 11 1047 11 q 760 114 811 11 q 582 16 689 16 q 405 103 475 16 q 335 307 335 190 q 400 519 335 433 q 575 605 465 605 q 738 525 671 605 l 738 590 l 884 590 l 884 189 q 901 144 884 159 q 941 130 918 130 q 1006 186 978 130 q 1035 335 1035 241 q 928 643 1035 533 q 632 753 821 753 q 329 629 452 753 q 206 309 206 505 q 326 9 206 129 q 617 -111 445 -111 q 887 -79 793 -111 l 887 -218 q 658 -243 753 -243 q 427 -208 534 -243 q 236 -104 320 -172 q 104 74 152 -35 q 56 321 56 183 q 227 724 56 568 q 635 880 399 880 q 1029 740 875 880 q 1184 366 1184 600 z "},"A":{"ha":873,"x_min":14,"x_max":860,"o":"m 570 327 l 435 697 l 298 327 l 570 327 m 860 0 l 699 0 l 620 202 l 248 202 l 172 0 l 14 0 l 354 872 l 518 872 l 860 0 z "},"B":{"ha":814,"x_min":90,"x_max":746,"o":"m 583 259 q 531 358 583 326 q 396 391 479 391 l 248 391 l 248 127 l 397 127 q 532 161 480 127 q 583 259 583 194 m 549 629 q 508 714 549 684 q 399 745 467 745 l 248 745 l 248 514 l 389 514 q 505 545 461 514 q 549 629 549 576 m 746 231 q 656 64 746 129 q 463 0 567 0 l 90 0 l 90 872 l 445 872 q 631 817 556 872 q 707 658 707 761 q 541 456 707 521 q 746 231 746 396 z "},"C":{"ha":860,"x_min":66,"x_max":792,"o":"m 792 273 q 682 64 783 145 q 442 -18 581 -18 q 270 20 345 -18 q 152 121 195 57 q 87 264 109 186 q 66 434 66 343 q 162 759 66 629 q 442 888 258 888 q 689 817 604 888 q 784 610 774 745 l 627 610 q 442 765 610 765 q 231 434 231 765 q 281 187 231 269 q 441 106 331 106 q 566 151 521 106 q 621 273 612 195 l 792 273 z "},"D":{"ha":876,"x_min":90,"x_max":808,"o":"m 574 206 q 611 245 574 206 q 648 437 648 285 q 574 667 648 589 q 357 745 499 745 l 248 745 l 248 127 l 357 127 q 574 206 499 127 m 808 437 q 688 119 808 237 q 355 0 568 0 l 90 0 l 90 872 l 355 872 q 690 753 572 872 q 808 437 808 635 z "},"E":{"ha":749,"x_min":90,"x_max":665,"o":"m 665 0 l 90 0 l 90 872 l 652 872 l 652 745 l 244 745 l 244 511 l 632 511 l 632 389 l 244 389 l 244 127 l 665 127 l 665 0 z "},"F":{"ha":700,"x_min":90,"x_max":627,"o":"m 602 385 l 248 385 l 248 0 l 90 0 l 90 872 l 627 872 l 627 745 l 248 745 l 248 511 l 602 511 l 602 385 z "},"G":{"ha":932,"x_min":66,"x_max":850,"o":"m 842 39 q 528 -18 648 -18 q 184 110 302 -18 q 66 441 66 237 q 189 761 66 633 q 503 888 312 888 q 759 814 667 888 q 850 617 850 739 l 689 617 q 635 722 688 682 q 503 761 582 761 q 297 668 363 761 q 231 438 231 575 q 306 202 231 293 q 519 111 381 111 q 680 133 587 111 l 680 332 l 509 332 l 509 464 l 842 464 l 842 39 z "},"H":{"ha":861,"x_min":90,"x_max":773,"o":"m 773 0 l 614 0 l 614 389 l 245 389 l 245 0 l 90 0 l 90 872 l 245 872 l 245 515 l 614 515 l 614 872 l 773 872 l 773 0 z "},"I":{"ha":338,"x_min":90,"x_max":248,"o":"m 248 0 l 90 0 l 90 872 l 248 872 l 248 0 z "},"J":{"ha":734,"x_min":66,"x_max":646,"o":"m 646 259 q 559 59 646 136 q 350 -18 472 -18 q 66 260 66 -18 l 229 260 q 349 111 229 111 q 484 266 484 111 l 484 873 l 646 873 l 646 259 z "},"K":{"ha":827,"x_min":90,"x_max":789,"o":"m 789 0 l 590 0 l 248 445 l 248 0 l 90 0 l 90 872 l 248 872 l 248 499 l 563 872 l 750 872 l 422 487 l 789 0 z "},"L":{"ha":673,"x_min":90,"x_max":640,"o":"m 640 0 l 90 0 l 90 872 l 248 872 l 248 127 l 640 127 l 640 0 z "},"M":{"ha":1109,"x_min":90,"x_max":1021,"o":"m 1021 0 l 868 0 l 868 735 l 628 0 l 480 0 l 241 732 l 241 0 l 90 0 l 90 872 l 346 872 l 555 217 l 764 875 l 1021 875 l 1021 0 z "},"N":{"ha":909,"x_min":90,"x_max":822,"o":"m 822 0 l 594 0 l 241 703 l 241 0 l 90 0 l 90 872 l 315 872 l 667 168 l 667 872 l 822 872 l 822 0 z "},"O":{"ha":951,"x_min":66,"x_max":883,"o":"m 719 442 q 476 761 719 761 q 232 442 232 761 q 476 111 232 111 q 719 442 719 111 m 883 442 q 776 111 883 240 q 476 -18 669 -18 q 172 113 278 -18 q 66 442 66 244 q 174 765 66 642 q 476 888 282 888 q 778 763 673 888 q 883 442 883 637 z "},"P":{"ha":780,"x_min":90,"x_max":711,"o":"m 551 606 q 500 713 551 681 q 349 745 449 745 l 248 745 l 248 472 l 349 472 q 499 503 448 472 q 551 606 551 533 m 711 606 q 683 480 711 533 q 606 399 655 427 q 500 357 556 370 q 377 345 444 345 l 248 345 l 248 0 l 90 0 l 90 872 l 377 872 q 617 808 524 872 q 711 606 711 745 z "},"Q":{"ha":989,"x_min":66,"x_max":948,"o":"m 719 442 q 476 761 719 761 q 232 442 232 761 q 476 111 232 111 q 719 442 719 111 m 948 0 l 629 0 q 476 -18 503 -18 q 172 113 278 -18 q 66 442 66 244 q 174 765 66 642 q 476 888 282 888 q 778 763 673 888 q 883 442 883 637 q 772 122 883 241 l 948 122 l 948 0 z "},"R":{"ha":803,"x_min":90,"x_max":755,"o":"m 574 617 q 525 712 574 680 q 406 745 476 745 l 248 745 l 248 496 l 397 496 q 520 528 467 496 q 574 617 574 560 m 755 0 l 591 0 q 574 73 581 39 q 564 146 568 107 q 555 209 559 186 q 505 335 538 301 q 391 369 471 369 l 248 369 l 248 0 l 90 0 l 90 872 l 406 872 q 653 815 571 872 q 735 636 735 758 q 557 437 735 513 q 682 350 656 415 q 716 180 697 315 q 755 0 735 46 z "},"S":{"ha":815,"x_min":66,"x_max":747,"o":"m 747 250 q 691 98 747 160 q 558 9 635 35 q 396 -18 481 -18 q 161 59 256 -18 q 66 270 66 136 l 231 270 q 277 152 232 193 q 399 111 321 111 q 486 121 445 111 q 559 161 526 132 q 591 236 591 190 q 554 317 591 285 q 461 361 517 349 q 340 393 406 374 q 218 432 274 411 q 125 503 163 453 q 88 629 88 553 q 187 817 88 746 q 406 888 286 888 q 630 825 540 888 q 720 636 720 762 l 557 636 q 514 733 557 701 q 404 765 471 765 q 292 733 340 765 q 244 642 244 701 q 281 568 244 597 q 374 526 319 538 q 496 493 430 513 q 617 450 562 473 q 710 376 673 427 q 747 250 747 324 z "},"T":{"ha":760,"x_min":33,"x_max":727,"o":"m 727 745 l 460 745 l 460 0 l 298 0 l 298 745 l 33 745 l 33 872 l 727 872 l 727 745 z "},"U":{"ha":905,"x_min":90,"x_max":818,"o":"m 818 369 q 720 82 818 182 q 446 -18 621 -18 q 180 83 270 -18 q 90 369 90 184 l 90 872 l 248 872 l 248 369 q 300 171 248 231 q 450 111 351 111 q 604 171 551 111 q 656 369 656 231 l 656 872 l 818 872 l 818 369 z "},"V":{"ha":857,"x_min":14,"x_max":844,"o":"m 844 872 l 518 0 l 331 0 l 14 872 l 189 872 l 429 186 l 670 872 l 844 872 z "},"W":{"ha":1196,"x_min":14,"x_max":1183,"o":"m 1183 872 l 951 0 l 777 0 l 598 677 l 418 0 l 245 0 l 14 872 l 186 872 l 335 205 l 510 872 l 686 872 l 860 205 l 1010 872 l 1183 872 z "},"X":{"ha":842,"x_min":18,"x_max":822,"o":"m 822 0 l 633 0 l 407 347 l 186 0 l 18 0 l 327 457 l 49 872 l 236 872 l 430 568 l 621 872 l 793 872 l 510 457 l 822 0 z "},"Y":{"ha":796,"x_min":14,"x_max":780,"o":"m 780 872 l 477 335 l 477 0 l 317 0 l 317 335 l 14 872 l 197 872 l 399 488 l 601 872 l 780 872 z "},"Z":{"ha":758,"x_min":54,"x_max":703,"o":"m 703 0 l 54 0 l 54 144 l 510 745 l 80 745 l 80 872 l 693 872 l 693 726 l 237 127 l 703 127 l 703 0 z "},"[":{"ha":473,"x_min":109,"x_max":365,"o":"m 365 -240 l 109 -240 l 109 872 l 365 872 l 365 779 l 241 779 l 241 -146 l 365 -146 l 365 -240 z "},"\\":{"ha":728,"x_min":75,"x_max":652,"o":"m 652 -247 l 556 -345 l 75 1025 l 174 1119 l 652 -247 z "},"]":{"ha":473,"x_min":109,"x_max":365,"o":"m 365 -240 l 109 -240 l 109 -146 l 235 -146 l 235 779 l 109 779 l 109 872 l 365 872 l 365 -240 z "},"^":{"ha":727,"x_min":50,"x_max":677,"o":"m 677 840 l 609 772 l 363 1016 l 118 772 l 50 840 l 363 1154 l 677 840 z "},"_":{"ha":783,"x_min":0,"x_max":783,"o":"m 783 -243 l 0 -243 l 0 -117 l 783 -117 l 783 -243 z "},"`":{"ha":296,"x_min":-31,"x_max":229,"o":"m 229 724 l 148 724 l -31 939 l 115 939 l 229 724 z "},"a":{"ha":666,"x_min":56,"x_max":605,"o":"m 444 300 q 385 302 414 302 q 255 271 307 302 q 203 176 203 240 q 233 110 203 137 q 305 83 262 83 q 377 100 349 83 q 420 149 406 117 q 439 216 434 182 q 444 300 444 251 m 605 0 l 471 0 q 454 76 458 47 q 363 3 401 23 q 271 -16 326 -16 q 119 33 182 -16 q 56 165 56 83 q 104 300 56 248 q 216 371 152 353 q 357 389 279 389 l 444 389 l 444 411 q 420 499 444 469 q 335 529 397 529 q 228 438 237 529 l 83 438 q 153 572 83 525 q 336 620 222 620 q 486 593 418 620 q 574 505 553 567 q 587 357 587 467 l 587 201 q 605 0 587 62 z "},"b":{"ha":731,"x_min":80,"x_max":675,"o":"m 528 300 q 515 404 528 355 q 465 491 502 453 q 372 529 427 529 q 261 469 298 529 q 224 304 224 410 q 261 148 224 213 q 374 83 298 83 q 488 146 448 83 q 528 300 528 209 m 675 304 q 599 71 675 159 q 404 -16 522 -16 q 225 69 285 -16 l 225 0 l 80 0 l 80 872 l 224 872 l 224 540 q 411 620 290 620 q 540 589 486 620 q 622 509 594 559 q 663 408 650 460 q 675 304 675 357 z "},"c":{"ha":625,"x_min":57,"x_max":571,"o":"m 571 216 q 510 45 571 106 q 323 -16 449 -16 q 57 297 57 -16 q 123 538 57 456 q 319 620 190 620 q 506 566 444 620 q 568 410 568 511 l 568 400 l 426 400 q 397 494 427 463 q 321 525 368 525 q 226 475 256 525 q 195 300 195 425 q 223 128 195 178 q 319 79 251 79 q 426 216 423 79 l 571 216 z "},"d":{"ha":731,"x_min":57,"x_max":650,"o":"m 506 298 q 466 467 506 406 q 354 528 426 528 q 238 456 275 528 q 201 297 201 385 q 241 148 201 212 q 355 84 282 84 q 468 152 430 84 q 506 298 506 220 m 650 0 l 506 0 l 506 79 q 336 -16 429 -16 q 134 73 212 -16 q 57 292 57 161 q 125 528 57 437 q 317 620 193 620 q 506 541 438 620 l 506 872 l 650 872 l 650 0 z "},"e":{"ha":669,"x_min":57,"x_max":613,"o":"m 460 369 q 335 526 460 526 q 206 369 213 526 l 460 369 m 604 189 q 524 38 591 92 q 334 -16 457 -16 q 123 74 190 -16 q 57 300 57 164 q 129 530 57 441 q 343 620 201 620 q 473 593 418 620 q 558 522 529 567 q 600 429 587 477 q 613 324 613 380 q 610 274 613 307 l 206 274 q 236 127 208 178 q 338 77 264 77 q 456 189 441 77 l 604 189 z "},"f":{"ha":419,"x_min":12,"x_max":419,"o":"m 419 769 q 351 787 384 787 q 288 764 305 787 q 270 692 270 742 l 270 604 l 403 604 l 403 509 l 270 509 l 270 0 l 123 0 l 123 509 l 12 509 l 12 604 l 123 604 l 123 696 q 168 844 123 800 q 308 887 213 887 q 419 868 363 887 l 419 769 z "},"g":{"ha":731,"x_min":57,"x_max":650,"o":"m 506 305 q 355 526 506 526 q 237 459 274 526 q 201 302 201 392 q 239 161 201 216 q 354 106 278 106 q 468 165 430 106 q 506 305 506 225 m 650 15 q 572 -172 650 -104 q 353 -240 495 -240 q 149 -185 209 -240 q 88 -58 88 -130 l 235 -58 q 270 -123 235 -99 q 361 -146 305 -146 q 474 -94 444 -146 q 505 104 505 -41 q 331 7 434 7 q 129 86 201 7 q 57 302 57 165 q 128 534 57 448 q 319 620 199 620 q 505 545 438 620 l 505 604 l 650 604 l 650 15 z "},"h":{"ha":711,"x_min":80,"x_max":631,"o":"m 631 0 l 484 0 l 484 368 q 370 529 484 529 q 265 477 305 529 q 225 370 225 425 l 225 0 l 80 0 l 80 872 l 225 872 l 225 536 q 420 620 289 620 q 578 562 526 620 q 631 399 631 503 l 631 0 z "},"i":{"ha":305,"x_min":69,"x_max":235,"o":"m 225 0 l 80 0 l 80 604 l 225 604 l 225 0 m 235 730 l 69 730 l 69 872 l 235 872 l 235 730 z "},"j":{"ha":399,"x_min":-28,"x_max":327,"o":"m 319 -98 q 272 -211 319 -167 q 142 -255 225 -255 q -28 -194 39 -255 l 43 -103 q 113 -134 75 -134 q 172 -61 172 -134 l 172 604 l 319 604 l 319 -98 m 327 836 l 290 730 l 164 766 l 202 872 l 327 836 z "},"k":{"ha":644,"x_min":80,"x_max":624,"o":"m 624 0 l 442 0 l 225 317 l 225 0 l 80 0 l 80 872 l 225 872 l 225 359 l 429 604 l 605 604 l 378 343 l 624 0 z "},"l":{"ha":305,"x_min":80,"x_max":225,"o":"m 225 0 l 80 0 l 80 872 l 225 872 l 225 0 z "},"m":{"ha":1096,"x_min":80,"x_max":1015,"o":"m 1015 0 l 869 0 l 869 388 q 838 487 869 448 q 755 526 807 526 q 661 477 700 526 q 621 369 621 427 l 621 0 l 476 0 l 476 388 q 445 486 476 445 q 363 526 414 526 q 264 474 304 526 q 225 363 225 422 l 225 0 l 80 0 l 80 604 l 225 604 l 225 519 q 411 620 294 620 q 528 595 486 620 q 604 510 571 571 q 691 596 647 572 q 803 620 735 620 q 964 557 913 620 q 1015 395 1015 494 l 1015 0 z "},"n":{"ha":711,"x_min":69,"x_max":620,"o":"m 620 0 l 475 0 l 475 374 q 442 489 475 448 q 353 530 410 530 q 253 481 292 530 q 214 351 214 433 l 214 0 l 69 0 l 69 604 l 214 604 l 214 528 q 292 599 248 578 q 407 620 336 620 q 566 563 513 620 q 620 406 620 506 l 620 0 z "},"o":{"ha":726,"x_min":57,"x_max":670,"o":"m 522 301 q 482 465 522 406 q 363 525 442 525 q 244 463 286 525 q 202 301 202 401 q 244 140 202 201 q 363 79 286 79 q 482 138 442 79 q 522 301 522 198 m 670 301 q 584 70 670 156 q 363 -16 498 -16 q 142 71 228 -16 q 57 301 57 159 q 143 533 57 446 q 363 620 229 620 q 585 532 499 620 q 670 301 670 444 z "},"p":{"ha":735,"x_min":80,"x_max":680,"o":"m 532 308 q 493 458 532 395 q 377 522 454 522 q 262 455 300 522 q 224 304 224 388 q 373 77 224 77 q 493 147 454 77 q 532 308 532 217 m 680 308 q 608 70 680 157 q 407 -18 537 -18 q 309 0 349 -18 q 225 57 269 18 l 225 -240 l 80 -240 l 80 604 l 225 604 l 225 522 q 400 620 308 620 q 608 532 536 620 q 680 308 680 445 z "},"q":{"ha":735,"x_min":57,"x_max":654,"o":"m 510 304 q 472 456 510 391 q 358 522 434 522 q 241 458 279 522 q 202 308 202 393 q 241 146 202 216 q 362 77 281 77 q 510 304 510 77 m 654 -240 l 509 -240 l 509 57 q 424 -1 463 16 q 327 -18 385 -18 q 127 70 197 -18 q 57 308 57 157 q 128 534 57 448 q 335 620 199 620 q 509 522 438 620 l 509 604 l 654 604 l 654 -240 z "},"r":{"ha":458,"x_min":80,"x_max":437,"o":"m 437 490 q 225 319 225 490 l 225 0 l 80 0 l 80 604 l 225 604 l 225 514 q 298 592 255 570 q 437 614 342 614 l 437 490 z "},"s":{"ha":621,"x_min":57,"x_max":564,"o":"m 564 184 q 487 33 564 83 q 298 -16 410 -16 q 123 32 189 -16 q 57 183 57 80 l 202 183 q 231 102 203 126 q 313 77 258 77 q 390 102 357 77 q 423 167 423 127 q 397 218 423 198 q 332 247 370 239 q 247 269 293 255 q 162 298 201 282 q 97 351 123 313 q 71 444 71 388 q 134 570 71 519 q 311 620 198 620 q 549 431 549 620 l 404 431 q 382 503 403 479 q 304 526 361 526 q 239 504 264 526 q 213 449 213 481 q 249 399 213 418 q 336 370 285 381 q 440 344 388 359 q 528 288 492 328 q 564 184 564 248 z "},"t":{"ha":479,"x_min":35,"x_max":446,"o":"m 446 4 q 334 -15 395 -15 q 203 27 254 -15 q 152 151 152 69 l 152 509 l 35 509 l 35 604 l 152 604 l 152 707 l 297 779 l 297 604 l 438 604 l 438 509 l 297 509 l 297 182 q 384 87 297 87 q 446 98 416 87 l 446 4 z "},"u":{"ha":711,"x_min":80,"x_max":631,"o":"m 631 0 l 484 0 l 484 80 q 408 5 452 27 q 293 -16 365 -16 q 134 39 189 -16 q 80 197 80 94 l 80 604 l 225 604 l 225 229 q 258 114 225 155 q 346 73 290 73 q 448 119 411 73 q 484 250 484 164 l 484 604 l 631 604 l 631 0 z "},"v":{"ha":654,"x_min":14,"x_max":639,"o":"m 639 604 l 406 0 l 248 0 l 14 604 l 172 604 l 330 165 l 484 604 l 639 604 z "},"w":{"ha":1017,"x_min":14,"x_max":1002,"o":"m 1002 604 l 812 0 l 647 0 l 509 449 l 370 0 l 205 0 l 14 604 l 165 604 l 290 180 l 422 604 l 594 604 l 727 180 l 853 604 l 1002 604 z "},"x":{"ha":661,"x_min":16,"x_max":644,"o":"m 644 0 l 469 0 l 320 222 l 179 0 l 16 0 l 240 320 l 35 604 l 210 604 l 342 412 l 463 604 l 625 604 l 423 320 l 644 0 z "},"y":{"ha":652,"x_min":9,"x_max":639,"o":"m 639 604 l 363 -140 q 299 -218 345 -189 q 189 -247 254 -247 q 83 -218 132 -247 q 9 -138 35 -190 l 106 -69 q 183 -126 132 -126 q 237 -69 217 -126 l 262 0 l 14 604 l 179 604 l 336 194 l 483 604 l 639 604 z "},"z":{"ha":598,"x_min":57,"x_max":541,"o":"m 541 0 l 57 0 l 57 118 l 376 506 l 68 506 l 68 604 l 530 604 l 530 486 l 209 95 l 541 95 l 541 0 z "},"{":{"ha":583,"x_min":95,"x_max":509,"o":"m 509 -560 q 412 -543 454 -560 q 340 -496 369 -525 q 292 -419 312 -468 q 260 -321 271 -370 q 241 -200 248 -273 q 233 -66 235 -127 q 232 83 232 -5 q 210 153 232 121 q 163 205 189 186 q 117 252 138 225 q 95 307 95 279 q 117 359 95 332 q 163 406 138 387 q 210 458 189 426 q 232 529 232 491 q 233 678 232 617 q 241 812 235 739 q 260 933 248 884 q 292 1031 271 982 q 340 1108 312 1080 q 412 1154 369 1137 q 509 1172 454 1172 l 509 1048 q 388 922 418 1048 q 358 510 358 795 q 340 420 358 461 q 299 360 321 380 q 258 326 277 340 q 240 307 240 311 q 258 288 240 302 q 299 253 277 273 q 340 192 321 233 q 358 100 358 151 q 388 -310 358 -183 q 509 -437 418 -437 l 509 -560 z "},"|":{"ha":456,"x_min":168,"x_max":288,"o":"m 288 -312 l 168 -312 l 168 962 l 288 962 l 288 -312 z "},"}":{"ha":582,"x_min":75,"x_max":487,"o":"m 487 307 q 466 252 487 279 q 420 205 445 225 q 374 153 395 186 q 353 83 353 121 q 351 -66 353 -5 q 342 -200 349 -127 q 325 -321 336 -273 q 293 -419 313 -370 q 243 -496 273 -468 q 172 -543 214 -525 q 75 -560 129 -560 l 75 -435 q 195 -309 165 -435 q 225 102 225 -182 q 244 193 225 152 q 285 253 263 233 q 326 288 307 273 q 345 307 345 302 q 326 326 345 311 q 285 360 307 340 q 244 420 263 380 q 225 510 225 460 q 195 922 225 795 q 75 1048 165 1048 l 75 1172 q 172 1154 129 1172 q 243 1108 214 1137 q 293 1031 273 1080 q 325 934 313 982 q 342 813 336 886 q 351 680 349 741 q 353 530 353 618 q 374 459 353 492 q 420 406 395 426 q 466 359 445 387 q 487 307 487 332 z "},"~":{"ha":774,"x_min":75,"x_max":700,"o":"m 700 316 q 502 228 606 228 q 366 267 438 228 q 271 307 294 307 q 114 225 202 307 l 75 328 q 271 419 164 419 q 400 380 335 419 q 502 340 465 340 q 628 401 559 340 l 700 316 z "},"×":{"ha":719,"x_min":127,"x_max":595,"o":"m 594 160 l 503 71 l 361 214 l 217 71 l 127 159 l 271 304 l 129 446 l 217 536 l 361 392 l 505 538 l 595 448 l 452 304 l 594 160 z "},"က":{"ha":1336,"x_min":75,"x_max":1260,"o":"m 1260 301 q 1164 69 1260 165 q 936 -27 1069 -27 q 840 -9 872 -27 l 890 106 q 936 99 913 99 q 1077 159 1019 99 q 1135 301 1135 218 q 1077 443 1135 384 q 936 502 1019 502 q 794 427 857 502 q 731 274 731 353 q 702 100 731 172 q 606 -27 673 28 l 533 76 q 589 164 572 122 q 605 278 605 206 q 549 436 605 370 q 403 502 492 502 q 257 436 313 502 q 201 278 201 370 q 217 164 201 206 q 274 76 233 122 l 201 -27 q 104 102 133 28 q 75 278 75 175 q 170 526 75 425 q 403 628 264 628 q 559 587 488 628 q 673 473 631 545 q 785 586 716 543 q 936 629 853 629 q 1164 532 1069 629 q 1260 301 1260 435 z "},"ခ":{"ha":803,"x_min":76,"x_max":728,"o":"m 500 125 q 425 191 473 165 q 323 217 376 217 q 218 195 271 217 q 400 99 288 99 q 500 125 453 99 m 728 301 q 635 70 728 167 q 400 -27 541 -27 q 258 3 330 -27 q 133 96 186 34 q 76 237 80 159 q 321 324 201 324 q 458 292 388 324 q 574 208 528 260 q 602 301 602 250 q 583 383 602 339 q 515 465 564 427 q 400 502 467 502 q 209 391 279 502 l 100 449 q 225 581 144 533 q 400 629 307 629 q 637 528 545 629 q 728 301 728 426 z "},"ဂ":{"ha":807,"x_min":75,"x_max":732,"o":"m 732 278 q 703 102 732 175 q 606 -27 674 28 l 533 76 q 589 164 572 122 q 605 278 605 206 q 549 436 605 370 q 403 502 492 502 q 257 436 313 502 q 201 278 201 370 q 217 164 201 206 q 274 76 233 122 l 201 -27 q 104 102 133 28 q 75 278 75 175 q 170 526 75 425 q 403 628 264 628 q 633 530 534 628 q 732 278 732 431 z "},"ဃ":{"ha":1328,"x_min":75,"x_max":1253,"o":"m 1253 301 q 1157 70 1253 167 q 928 -27 1061 -27 q 777 16 845 -27 q 665 126 708 58 q 549 13 620 53 q 393 -27 477 -27 q 165 53 255 -27 q 75 227 75 133 q 94 318 75 281 q 141 373 114 355 q 196 403 168 391 q 243 429 224 415 q 263 463 263 442 q 250 503 263 490 q 216 515 236 515 q 187 504 199 515 q 171 479 175 492 l 75 536 q 127 601 84 574 q 216 628 170 628 q 328 585 281 628 q 376 463 376 541 q 357 393 376 422 q 313 346 339 363 q 262 313 288 328 q 219 276 237 297 q 201 227 201 255 q 254 143 201 187 q 393 99 308 99 q 538 164 481 99 q 594 331 594 229 q 522 525 594 457 l 595 628 q 722 320 722 532 q 786 172 722 245 q 928 99 850 99 q 1069 159 1010 99 q 1127 301 1127 218 q 1068 442 1127 382 q 928 502 1009 502 q 882 494 902 502 l 831 610 q 928 629 868 629 q 1157 533 1061 629 q 1253 301 1253 437 z "},"င":{"ha":779,"x_min":75,"x_max":704,"o":"m 704 152 q 578 20 661 68 q 401 -27 496 -27 q 171 69 267 -27 q 75 301 75 165 q 172 532 75 435 q 401 629 269 629 q 579 582 494 629 q 704 449 665 534 l 591 391 q 401 502 526 502 q 260 442 320 502 q 201 301 201 382 q 260 159 201 218 q 401 99 320 99 q 591 212 530 99 l 704 152 z "},"စ":{"ha":795,"x_min":75,"x_max":719,"o":"m 335 301 q 274 457 335 387 q 201 301 201 395 q 274 144 201 203 q 335 301 335 217 m 593 301 q 538 440 593 380 q 407 502 484 500 q 374 496 389 502 q 442 301 442 415 q 374 104 442 193 q 406 99 399 99 q 538 163 484 106 q 593 301 593 221 m 719 301 q 625 68 719 164 q 396 -27 532 -27 q 169 69 263 -27 q 75 301 75 165 q 169 532 75 435 q 395 629 263 629 q 625 533 530 629 q 719 301 719 437 z "},"ဆ":{"ha":1321,"x_min":76,"x_max":1246,"o":"m 500 125 q 323 217 431 217 q 216 195 277 217 q 399 99 288 99 q 500 125 452 99 m 1120 301 q 1063 442 1120 382 q 925 502 1005 502 q 785 442 844 502 q 727 301 727 382 q 786 159 727 218 q 925 99 845 99 q 1063 158 1006 99 q 1120 301 1120 217 m 1246 301 q 1152 69 1246 165 q 925 -27 1057 -27 q 775 9 844 -27 q 665 110 707 46 q 552 10 621 47 q 399 -27 483 -27 q 258 3 330 -27 q 133 97 187 33 q 76 243 79 161 q 321 324 206 324 q 454 294 385 324 q 572 208 524 263 q 601 301 601 251 q 582 383 601 339 q 514 465 563 427 q 399 502 465 502 q 209 391 285 502 l 99 449 q 222 581 138 533 q 399 629 305 629 q 663 490 570 629 q 775 592 707 555 q 925 629 844 629 q 1152 532 1058 629 q 1246 301 1246 435 z "},"ဇ":{"ha":861,"x_min":75,"x_max":806,"o":"m 586 342 q 552 368 568 362 q 506 374 536 374 q 457 330 457 374 q 474 302 457 311 q 511 293 491 293 q 586 342 578 293 m 806 206 l 715 140 q 651 251 674 218 q 511 194 600 194 q 404 231 449 194 q 358 330 358 269 q 390 420 358 381 q 483 468 422 460 q 511 461 499 468 q 399 507 468 507 q 262 444 323 507 q 201 301 201 380 q 258 158 201 217 q 397 99 315 99 q 556 148 495 99 l 644 58 q 544 -7 600 14 q 397 -27 488 -27 q 170 69 264 -27 q 75 301 75 165 q 172 532 75 434 q 397 629 269 629 q 593 568 509 629 q 690 400 678 507 q 806 206 742 338 z "},"ဈ":{"ha":1084,"x_min":75,"x_max":974,"o":"m 335 302 q 274 458 335 391 q 201 302 201 399 q 273 145 201 206 q 335 302 335 220 m 538 163 q 565 193 538 163 q 593 302 593 222 q 538 441 593 382 q 407 505 483 500 q 376 498 392 505 q 442 302 442 418 q 374 104 442 189 q 406 99 387 99 q 538 163 483 104 m 974 -629 l 460 -505 l 460 -19 q 399 -26 431 -26 q 169 70 263 -26 q 75 302 75 165 q 169 534 75 437 q 395 631 263 631 q 625 534 530 631 q 719 302 719 437 q 684 149 719 218 q 586 35 648 80 l 586 -406 l 848 -467 l 848 623 l 974 623 l 974 -629 z "},"ဉ":{"ha":780,"x_min":75,"x_max":1222,"o":"m 1222 -382 l 1222 -468 q 1194 -586 1222 -551 q 1069 -629 1157 -629 l 365 -629 q 153 -545 237 -629 q 75 -339 75 -467 l 75 152 l 187 212 q 378 99 252 99 q 519 159 461 99 q 578 301 578 218 q 519 442 578 382 q 378 502 461 502 q 277 477 330 502 q 187 391 224 452 l 75 449 q 204 584 119 538 q 378 629 289 629 q 608 532 511 629 q 705 301 705 435 q 609 69 705 165 q 378 -27 513 -27 q 201 23 285 -27 l 201 -323 q 244 -457 201 -415 q 384 -503 290 -503 l 1042 -503 q 1086 -491 1076 -503 q 1096 -442 1096 -479 l 1096 -382 l 1222 -382 z "},"ည":{"ha":1310,"x_min":75,"x_max":1236,"o":"m 1236 301 q 1139 70 1236 167 q 910 -27 1043 -27 q 760 14 827 -27 q 647 122 692 56 q 533 14 605 54 q 378 -27 461 -27 q 201 24 279 -27 l 201 -323 q 244 -457 201 -415 q 384 -503 290 -503 l 1034 -503 q 1076 -491 1066 -503 q 1086 -442 1086 -479 l 1086 -382 l 1213 -382 l 1213 -468 q 1184 -586 1213 -551 q 1059 -629 1149 -629 l 365 -629 q 153 -545 237 -629 q 75 -339 75 -467 l 75 152 l 187 212 q 378 99 247 99 q 519 158 461 99 q 578 300 578 217 q 519 441 578 380 q 378 502 461 502 q 187 391 254 502 l 75 449 q 204 584 119 538 q 378 629 289 629 q 606 533 510 629 q 704 301 703 437 q 777 163 716 227 q 910 99 838 99 q 1050 159 991 99 q 1109 301 1109 218 q 1050 442 1109 382 q 910 502 991 502 q 864 495 887 502 l 814 610 q 910 629 857 629 q 1140 534 1044 629 q 1236 301 1236 438 z "},"ဋ":{"ha":844,"x_min":75,"x_max":807,"o":"m 807 -581 q 736 -614 777 -598 q 680 -629 696 -629 q 604 -601 631 -629 q 578 -521 578 -572 l 578 -407 q 401 -431 492 -431 q 117 -366 245 -431 l 117 -7 q 401 -113 259 -113 q 578 -69 494 -113 l 578 23 q 401 -27 495 -27 q 171 69 267 -27 q 75 301 75 165 q 172 532 75 435 q 401 629 269 629 q 574 584 490 629 q 704 449 659 538 l 591 391 q 511 473 562 445 q 401 502 460 502 q 260 442 320 502 q 201 301 201 382 q 260 159 201 218 q 401 99 320 99 q 591 212 529 99 l 704 152 l 704 -129 q 401 -231 562 -231 q 244 -205 321 -231 l 244 -286 q 401 -313 316 -313 q 704 -228 556 -313 l 704 -454 q 719 -479 704 -479 q 776 -461 735 -479 l 807 -581 z "},"ဌ":{"ha":779,"x_min":75,"x_max":704,"o":"m 704 152 l 704 -366 q 631 -552 704 -473 q 453 -629 553 -629 l 269 -629 q 139 -569 184 -629 q 94 -439 94 -509 q 148 -308 94 -362 q 283 -254 202 -254 q 410 -289 363 -254 l 347 -399 q 283 -380 312 -380 q 239 -395 258 -380 q 221 -439 221 -410 q 241 -486 221 -469 q 293 -503 260 -503 l 419 -503 q 541 -464 502 -503 q 578 -351 578 -427 l 578 23 q 401 -27 495 -27 q 171 69 267 -27 q 75 301 75 165 q 172 532 75 435 q 401 629 269 629 q 574 584 490 629 q 704 449 659 538 l 591 391 q 401 502 524 502 q 260 442 320 502 q 201 301 201 382 q 260 159 201 218 q 401 99 320 99 q 591 212 525 99 l 704 152 z "},"ဍ":{"ha":799,"x_min":75,"x_max":739,"o":"m 739 -629 l 519 -629 l 519 -222 q 378 -244 453 -244 q 75 -153 186 -244 l 75 152 l 187 212 q 378 99 254 99 q 519 159 461 99 q 578 301 578 218 q 519 442 578 382 q 378 502 461 502 q 187 391 255 502 l 75 449 q 204 584 119 538 q 378 629 289 629 q 608 532 511 629 q 705 301 705 435 q 609 69 705 165 q 378 -27 513 -27 q 203 23 282 -27 l 203 -84 q 378 -126 283 -126 q 646 -35 525 -126 l 646 -503 l 739 -503 l 739 -629 z "},"ဎ":{"ha":796,"x_min":75,"x_max":722,"o":"m 722 326 q 625 72 722 171 q 393 -27 529 -27 q 165 53 255 -27 q 75 227 75 133 q 94 318 75 281 q 141 373 114 355 q 196 403 168 391 q 243 429 224 415 q 263 463 263 442 q 212 515 263 515 q 186 508 199 515 q 171 492 174 500 l 75 551 q 123 603 84 578 q 208 628 163 628 q 328 585 279 628 q 376 463 376 543 q 357 393 376 422 q 313 346 339 363 q 262 313 288 328 q 219 276 237 297 q 201 227 201 255 q 254 143 201 187 q 393 99 308 99 q 481 120 438 99 q 560 195 525 141 q 595 326 595 250 q 522 525 595 452 l 595 628 q 722 326 722 532 z "},"ဏ":{"ha":1420,"x_min":75,"x_max":1344,"o":"m 802 473 q 713 502 760 502 q 623 475 665 502 q 663 301 663 397 q 652 235 663 282 q 640 175 640 187 q 713 99 640 99 q 764 117 743 99 q 784 175 784 136 q 774 237 784 191 q 764 301 764 282 q 802 473 764 403 m 1344 301 q 1261 68 1344 163 q 1047 -27 1179 -27 q 975 -15 998 -27 l 1019 104 q 1047 99 1035 99 q 1173 157 1127 99 q 1218 301 1218 216 q 1169 444 1218 385 q 1040 502 1120 502 q 929 444 970 502 q 888 301 888 385 q 901 218 888 264 q 913 144 913 172 q 850 20 913 66 q 713 -27 787 -27 q 576 20 640 -27 q 513 144 513 66 q 526 222 513 178 q 538 301 538 266 q 496 444 538 385 q 380 502 453 502 q 250 444 300 502 q 201 301 201 385 q 247 157 201 214 q 373 99 293 99 q 401 104 388 99 l 444 -15 q 373 -27 423 -27 q 158 68 241 -27 q 75 301 75 163 q 161 534 75 438 q 380 629 248 629 q 544 572 465 629 q 713 629 624 629 q 880 574 804 629 q 1040 629 963 629 q 1258 534 1172 629 q 1344 301 1344 438 z "},"တ":{"ha":1324,"x_min":75,"x_max":1251,"o":"m 593 298 q 536 441 593 381 q 399 502 480 502 q 259 442 317 502 q 201 301 201 382 q 258 159 201 218 q 395 99 316 99 q 535 159 477 99 q 593 298 593 218 m 1251 301 q 1154 69 1251 165 q 924 -27 1058 -27 q 829 -9 863 -27 l 879 106 q 924 99 902 99 q 1065 159 1006 99 q 1124 301 1124 218 q 1065 442 1124 382 q 924 502 1006 502 q 785 432 844 502 q 719 294 726 362 q 627 71 719 170 q 399 -27 534 -27 q 169 68 263 -27 q 75 301 75 164 q 169 532 75 435 q 395 629 263 629 q 549 589 477 629 q 663 480 621 548 q 775 587 707 545 q 924 629 844 629 q 1154 532 1057 629 q 1251 301 1251 435 z "},"ထ":{"ha":1317,"x_min":75,"x_max":1241,"o":"m 593 301 q 535 442 593 382 q 399 502 477 502 q 259 442 317 502 q 201 301 201 382 q 258 159 201 218 q 395 99 316 99 q 534 159 476 99 q 593 301 593 218 m 1116 301 q 1059 442 1116 382 q 921 502 1001 502 q 781 442 840 502 q 723 301 723 382 q 781 159 723 218 q 918 99 838 99 q 1058 159 1000 99 q 1116 301 1116 218 m 1241 301 q 1147 69 1241 165 q 921 -27 1054 -27 q 770 10 840 -27 q 659 113 701 47 q 545 10 613 47 q 399 -27 477 -27 q 169 68 263 -27 q 75 301 75 164 q 169 532 75 435 q 395 629 263 629 q 659 488 560 629 q 770 591 701 553 q 918 629 840 629 q 1147 532 1053 629 q 1241 301 1241 435 z "},"ဒ":{"ha":741,"x_min":75,"x_max":666,"o":"m 666 176 q 591 30 666 87 q 370 -27 517 -27 q 151 25 228 -27 q 75 161 75 77 l 195 206 q 241 133 195 167 q 370 99 286 99 q 490 118 441 99 q 540 178 540 137 q 492 229 540 212 q 370 248 445 247 l 370 353 q 540 426 540 358 q 490 483 540 464 q 370 502 441 502 q 241 468 286 502 q 195 395 195 434 l 75 439 q 153 576 75 524 q 370 629 231 629 q 591 572 517 629 q 666 425 666 514 q 594 300 666 339 q 666 176 666 256 z "},"ဓ":{"ha":795,"x_min":75,"x_max":719,"o":"m 551 178 q 399 235 483 235 q 243 174 315 235 q 395 99 307 99 q 551 178 488 99 m 591 311 q 531 445 587 388 q 399 502 475 502 q 262 446 320 502 q 201 309 203 389 q 208 278 201 294 q 397 342 278 342 q 586 278 511 342 q 591 311 591 293 m 719 301 q 625 68 719 164 q 399 -27 532 -27 q 169 68 263 -27 q 75 301 75 164 q 169 532 75 435 q 395 629 263 629 q 625 533 530 629 q 719 301 719 437 z "},"န":{"ha":753,"x_min":65,"x_max":686,"o":"m 359 83 q 259 186 336 186 q 203 170 229 186 q 178 132 178 155 q 305 83 178 83 l 359 83 m 686 190 q 639 56 686 106 q 491 -15 591 7 l 491 -629 l 365 -629 l 365 -27 l 330 -27 q 241 -23 278 -27 q 159 -5 205 -19 q 90 44 114 9 q 65 132 65 79 q 123 249 65 199 q 259 298 182 298 q 399 243 336 298 q 481 104 463 186 q 560 190 560 127 q 522 260 560 231 q 431 308 484 289 q 323 348 377 327 q 232 404 270 369 q 194 487 194 438 q 248 590 194 551 q 393 629 302 629 q 540 576 484 629 l 484 488 q 393 522 445 522 q 320 487 320 522 q 358 450 320 467 q 450 418 396 434 q 557 378 503 401 q 648 306 610 354 q 686 190 686 258 z "},"ပ":{"ha":807,"x_min":75,"x_max":731,"o":"m 731 323 q 636 75 731 176 q 403 -27 541 -27 q 170 75 264 -27 q 75 323 75 176 q 104 498 75 426 q 201 628 133 570 l 274 525 q 217 436 233 477 q 201 323 201 395 q 257 165 201 231 q 403 99 313 99 q 549 165 492 99 q 605 323 605 231 q 589 437 605 395 q 533 525 572 479 l 606 628 q 703 498 674 570 q 731 323 731 426 z "},"ဖ":{"ha":806,"x_min":75,"x_max":731,"o":"m 567 191 q 605 323 605 244 q 541 471 605 401 q 496 331 496 410 q 567 191 496 248 m 731 323 q 635 74 731 175 q 403 -27 540 -27 q 170 74 266 -27 q 75 323 75 175 q 201 628 75 525 l 274 525 q 218 439 236 484 q 201 323 201 395 q 260 163 201 228 q 403 99 319 99 q 484 119 453 99 q 389 331 389 210 q 437 511 389 429 q 563 628 484 593 q 686 487 642 559 q 731 323 731 415 z "},"ဗ":{"ha":807,"x_min":75,"x_max":731,"o":"m 605 315 q 578 426 605 378 q 403 353 517 353 q 228 427 290 353 q 201 315 201 381 q 258 164 201 229 q 403 99 315 99 q 548 164 491 99 q 605 315 605 229 m 731 315 q 635 74 731 175 q 403 -27 540 -27 q 170 74 266 -27 q 75 315 75 175 q 199 628 75 540 q 403 479 288 479 q 606 628 519 479 q 731 315 731 540 z "},"ဘ":{"ha":1309,"x_min":75,"x_max":1234,"o":"m 1234 301 q 1138 69 1234 165 q 909 -27 1042 -27 q 812 -9 846 -27 l 861 106 q 909 99 886 99 q 1049 159 990 99 q 1108 301 1108 218 q 1049 442 1108 382 q 909 502 990 502 q 769 432 831 502 q 703 285 707 362 q 608 70 703 167 q 378 -27 514 -27 q 203 18 288 -27 q 75 152 119 64 l 187 212 q 378 99 252 99 q 520 158 463 99 q 578 298 578 217 q 520 441 578 381 q 378 502 463 502 q 277 477 330 502 q 187 391 224 452 l 75 449 q 203 584 119 538 q 378 629 288 629 q 533 589 461 629 q 647 480 605 548 q 760 588 692 547 q 909 629 827 629 q 1138 532 1042 629 q 1234 301 1234 435 z "},"မ":{"ha":807,"x_min":75,"x_max":731,"o":"m 557 175 q 403 235 491 235 q 250 175 319 235 q 403 99 307 99 q 557 175 498 99 m 731 323 q 636 75 731 176 q 403 -27 541 -27 q 170 75 264 -27 q 75 323 75 176 q 104 498 75 426 q 201 628 133 570 l 274 525 q 218 435 235 480 q 201 323 201 391 q 209 278 201 298 q 403 342 282 342 q 598 277 518 342 q 605 323 605 301 q 589 434 605 389 q 533 525 572 479 l 606 628 q 703 498 674 570 q 731 323 731 426 z "},"ယ":{"ha":1333,"x_min":75,"x_max":1259,"o":"m 1259 301 q 1162 70 1259 167 q 932 -27 1065 -27 q 784 16 850 -27 q 674 125 718 58 q 559 12 629 53 q 403 -28 488 -28 q 170 73 264 -28 q 75 321 75 175 q 104 496 75 425 q 201 627 133 568 l 274 524 q 217 435 233 479 q 201 321 201 391 q 258 164 201 231 q 403 98 315 98 q 548 164 491 98 q 605 321 605 231 q 589 434 605 389 q 533 524 572 479 l 606 627 q 703 494 675 567 q 731 321 731 422 q 793 172 731 244 q 932 99 854 99 q 1073 159 1015 99 q 1131 301 1131 218 q 1073 442 1131 382 q 932 502 1015 502 q 886 495 905 502 l 837 610 q 932 629 875 629 q 1162 533 1066 629 q 1259 301 1259 437 z "},"ရ":{"ha":861,"x_min":75,"x_max":876,"o":"m 448 103 q 349 214 412 179 q 209 250 285 250 q 277 141 224 183 q 401 99 331 99 q 448 103 429 99 m 876 -629 l 651 -629 l 651 214 q 627 343 651 286 q 566 433 604 400 q 485 484 528 467 q 401 502 442 502 q 279 461 330 502 q 212 359 228 420 q 414 300 321 359 q 585 23 551 213 q 408 -27 517 -27 l 401 -27 q 171 69 267 -27 q 75 301 75 165 q 169 528 75 427 q 401 628 263 628 q 540 602 473 628 q 661 528 606 576 q 747 400 715 479 q 779 225 779 321 l 779 -502 l 876 -502 l 876 -629 z "},"လ":{"ha":1325,"x_min":75,"x_max":1251,"o":"m 1251 301 q 1161 68 1251 164 q 939 -27 1072 -27 q 819 -8 872 -27 q 732 41 766 11 q 669 116 697 71 q 626 203 642 161 q 595 301 610 245 q 396 502 544 502 q 258 444 316 502 q 201 302 201 385 q 258 159 201 218 q 396 99 316 99 q 456 114 420 99 l 515 3 q 396 -27 477 -27 q 165 68 256 -27 q 75 301 75 163 q 165 534 75 438 q 396 629 256 629 q 612 538 529 629 q 728 301 694 446 q 939 99 776 99 q 1072 159 1019 99 q 1124 301 1124 220 q 1071 443 1124 384 q 939 502 1017 502 q 869 488 899 502 l 810 600 q 939 629 861 629 q 1158 535 1065 629 q 1251 301 1251 441 z "},"ဝ":{"ha":793,"x_min":75,"x_max":719,"o":"m 535 159 q 564 189 535 159 q 593 301 593 218 q 535 443 593 384 q 399 502 477 502 q 258 443 316 502 q 201 301 201 384 q 258 159 201 218 q 396 99 315 99 q 535 159 477 99 m 719 301 q 625 69 719 165 q 399 -27 532 -27 q 173 70 271 -27 q 75 301 75 167 q 169 532 75 435 q 396 629 263 629 q 625 532 530 629 q 719 301 719 435 z "},"သ":{"ha":1310,"x_min":75,"x_max":1236,"o":"m 1236 301 q 1139 69 1236 165 q 910 -27 1043 -27 q 760 14 827 -27 q 647 122 692 56 q 532 13 604 53 q 378 -27 461 -27 q 201 20 282 -27 q 75 152 119 66 l 187 212 q 378 99 256 99 q 520 159 463 99 q 578 304 578 218 q 518 443 578 384 q 378 502 458 502 q 269 473 320 502 q 187 391 217 445 l 75 449 q 198 581 118 533 q 378 629 278 629 q 606 534 509 629 q 703 308 703 439 q 773 167 712 235 q 910 99 834 99 q 1050 159 991 99 q 1109 301 1109 218 q 1050 442 1109 382 q 910 502 991 502 q 863 495 883 502 l 814 610 q 910 629 853 629 q 1139 532 1043 629 q 1236 301 1236 435 z "},"ဟ":{"ha":1335,"x_min":75,"x_max":1260,"o":"m 1260 301 q 1164 69 1260 165 q 935 -27 1067 -27 q 838 -9 869 -27 l 888 106 q 935 99 911 99 q 1076 159 1017 99 q 1134 301 1134 218 q 1075 442 1134 382 q 935 502 1016 502 q 800 435 860 502 q 731 302 739 369 q 634 72 728 171 q 403 -27 540 -27 q 171 75 267 -27 q 75 323 75 178 q 104 498 75 426 q 201 628 133 570 l 279 530 q 218 441 236 486 q 201 323 201 396 q 261 166 201 233 q 403 99 321 99 q 545 166 484 99 q 605 323 605 233 q 587 439 605 396 q 528 530 570 483 l 606 628 q 696 507 673 570 q 935 629 796 629 q 1164 532 1067 629 q 1260 301 1260 435 z "},"ဠ":{"ha":817,"x_min":75,"x_max":722,"o":"m 704 -144 q 401 -244 583 -244 q 244 -218 321 -244 l 244 -382 q 275 -487 244 -458 q 365 -517 311 -517 l 525 -517 q 610 -463 610 -517 q 545 -411 610 -411 q 481 -437 518 -411 l 422 -342 q 545 -301 471 -301 q 673 -346 625 -301 q 722 -463 722 -391 q 677 -581 722 -533 q 548 -629 633 -629 l 312 -629 q 227 -612 258 -629 q 167 -564 195 -595 q 117 -380 117 -509 l 117 -20 q 401 -126 259 -126 q 578 -87 495 -126 l 578 23 q 401 -27 495 -27 q 171 69 267 -27 q 75 301 75 165 q 171 532 75 435 q 401 629 267 629 q 576 584 491 629 q 704 449 661 538 l 591 391 q 401 502 522 502 q 260 442 320 502 q 201 301 201 382 q 260 159 201 218 q 401 99 320 99 q 591 212 529 99 l 704 152 l 704 -144 z "},"အ":{"ha":1264,"x_min":75,"x_max":1190,"o":"m 1062 289 q 936 240 996 286 q 850 100 878 199 q 996 151 936 100 q 1062 289 1053 197 m 1190 301 q 1093 68 1190 163 q 861 -27 996 -27 q 727 5 777 -27 q 857 309 727 194 q 1029 388 924 369 q 968 469 1015 437 q 864 502 921 502 q 754 479 808 502 q 665 415 700 456 q 594 300 654 334 q 665 176 665 255 q 594 33 665 92 q 370 -27 526 -27 q 150 24 225 -27 q 75 161 75 76 l 195 206 q 248 127 201 155 q 370 99 294 99 q 492 119 445 99 q 540 178 540 138 q 492 229 540 210 q 370 248 444 247 l 370 353 q 540 426 540 358 q 492 483 540 464 q 370 502 445 502 q 195 395 210 502 l 75 439 q 152 577 75 525 q 370 629 229 629 q 616 545 538 629 q 864 629 718 629 q 1094 532 998 629 q 1190 301 1190 435 z "},"ဢ":{"ha":1328,"x_min":75,"x_max":1253,"o":"m 1253 301 q 1157 69 1253 165 q 928 -27 1061 -27 q 831 -9 868 -27 l 882 106 q 928 99 906 99 q 1069 159 1010 99 q 1127 301 1127 218 q 1069 443 1127 384 q 928 502 1010 502 q 785 428 849 502 q 722 277 722 354 q 595 -26 722 71 l 522 77 q 594 271 594 141 q 532 443 594 382 q 393 503 469 503 q 254 459 308 503 q 201 376 201 415 q 219 326 201 347 q 264 290 237 305 q 316 258 290 275 q 360 210 342 240 q 378 136 378 179 q 329 16 378 58 q 208 -26 279 -26 q 128 -3 170 -26 q 75 52 87 20 l 170 110 q 212 87 184 87 q 247 100 233 87 q 260 136 260 113 q 241 170 260 156 q 195 197 222 184 q 140 229 168 210 q 94 284 113 247 q 75 376 75 321 q 165 549 75 469 q 393 629 255 629 q 548 588 476 629 q 665 476 620 547 q 777 587 708 544 q 928 629 845 629 q 1157 532 1061 629 q 1253 301 1253 435 z "},"ဣ":{"ha":1336,"x_min":75,"x_max":1260,"o":"m 1192 -629 l 972 -629 l 972 -549 q 1015 -484 1001 -515 q 1028 -396 1028 -452 q 985 -273 1028 -324 q 872 -222 941 -222 q 760 -272 804 -222 q 716 -396 716 -321 l 716 -514 l 620 -514 l 620 -396 q 575 -273 620 -323 q 464 -222 530 -222 q 352 -273 396 -222 q 308 -396 308 -324 q 320 -486 308 -453 q 365 -551 332 -518 l 309 -632 q 212 -396 212 -551 q 285 -205 212 -283 q 464 -126 358 -126 q 669 -239 593 -126 q 872 -126 741 -126 q 1051 -205 978 -126 q 1124 -396 1124 -283 q 1092 -547 1124 -479 l 1192 -547 l 1192 -629 m 1260 278 q 1231 100 1260 174 q 1135 -27 1202 27 l 1062 76 q 1118 165 1103 125 q 1134 278 1134 205 q 1077 435 1134 369 q 932 502 1020 502 q 788 437 845 502 q 731 278 731 372 l 731 123 l 605 123 l 605 278 q 547 437 605 372 q 403 502 490 502 q 258 435 315 502 q 201 278 201 369 q 217 165 201 206 q 274 76 233 123 l 201 -27 q 104 102 133 30 q 75 278 75 174 q 170 526 75 425 q 403 628 264 628 q 553 589 484 628 q 669 483 623 551 q 781 589 712 551 q 932 628 850 628 q 1165 526 1070 628 q 1260 278 1260 425 z "},"ဤ":{"ha":1630,"x_min":75,"x_max":1554,"o":"m 1550 -629 l 1424 -629 l 1424 517 q 1389 638 1424 586 q 1303 725 1354 690 q 1204 793 1253 760 q 1119 879 1154 827 q 1084 997 1084 930 q 1158 1173 1084 1101 q 1336 1245 1232 1245 q 1477 1205 1417 1245 q 1554 1107 1537 1165 l 1447 1042 q 1404 1098 1434 1077 q 1336 1119 1374 1119 q 1244 1083 1278 1119 q 1210 997 1210 1047 q 1245 921 1210 956 q 1330 854 1280 886 q 1430 782 1379 822 q 1515 675 1480 742 q 1550 522 1550 609 l 1550 -629 m 1261 -380 q 1188 -549 1261 -473 q 1010 -629 1115 -629 l 244 -629 q 118 -574 161 -629 q 75 -456 75 -519 q 469 -227 75 -227 q 713 -254 593 -227 q 890 -324 833 -282 l 814 -423 q 469 -355 675 -355 q 203 -456 203 -355 q 259 -503 203 -503 l 974 -503 q 1045 -496 1023 -503 q 1095 -465 1067 -488 q 1135 -366 1135 -430 l 1135 301 q 1081 437 1135 372 q 936 502 1027 502 q 794 428 857 502 q 731 274 731 354 q 702 101 731 172 q 606 -27 673 30 l 533 76 q 589 163 574 122 q 605 278 605 205 q 548 435 605 369 q 403 502 491 502 q 259 435 315 502 q 203 278 203 369 q 219 163 203 205 q 274 76 235 121 l 201 -27 q 104 102 133 30 q 75 278 75 174 q 170 526 75 425 q 403 628 264 628 q 560 587 490 628 q 673 473 631 545 q 784 587 716 544 q 936 629 852 629 q 1165 532 1069 629 q 1261 301 1261 435 l 1261 -380 z "},"ဥ":{"ha":779,"x_min":75,"x_max":705,"o":"m 692 -382 l 692 -469 q 661 -590 692 -553 q 529 -629 623 -629 l 326 -629 q 146 -552 224 -629 q 75 -380 75 -480 l 75 152 l 187 212 q 378 99 250 99 q 519 159 461 99 q 578 301 578 218 q 519 442 578 382 q 378 502 461 502 q 187 391 252 502 l 75 449 q 204 584 119 538 q 378 629 289 629 q 608 532 511 629 q 705 301 705 435 q 609 69 705 165 q 378 -27 513 -27 q 203 24 281 -27 l 203 -366 q 239 -464 203 -434 q 342 -503 290 -503 l 511 -503 q 555 -491 544 -503 q 566 -448 566 -479 l 566 -382 l 692 -382 z "},"ဦ":{"ha":779,"x_min":75,"x_max":705,"o":"m 692 -382 l 692 -469 q 661 -590 692 -553 q 529 -629 623 -629 l 326 -629 q 146 -552 224 -629 q 75 -380 75 -480 l 75 152 l 187 212 q 378 99 250 99 q 519 159 461 99 q 578 301 578 218 q 519 442 578 382 q 378 502 461 502 q 187 391 252 502 l 75 449 q 204 584 119 538 q 378 629 289 629 q 608 532 511 629 q 705 301 705 435 q 609 69 705 165 q 378 -27 513 -27 q 203 24 281 -27 l 203 -366 q 239 -464 203 -434 q 342 -503 290 -503 l 511 -503 q 555 -491 544 -503 q 566 -448 566 -479 l 566 -382 l 692 -382 m 498 895 q 378 943 445 943 q 258 894 315 943 q 376 833 305 833 q 498 895 450 833 m 528 997 q 481 1103 525 1058 q 378 1147 438 1147 q 273 1103 317 1147 q 225 997 228 1058 q 231 972 225 983 q 378 1021 293 1021 q 524 972 460 1021 q 528 997 528 985 m 551 1169 q 588 1132 551 1169 q 624 990 624 1095 q 552 811 624 886 q 378 736 480 736 q 202 811 275 736 q 129 990 129 886 q 202 1168 129 1093 q 376 1244 275 1244 q 551 1169 479 1244 z "},"ဧ":{"ha":810,"x_min":75,"x_max":735,"o":"m 583 167 q 494 186 534 186 q 332 106 395 186 q 415 92 372 92 q 506 111 458 92 q 583 167 553 130 m 582 434 q 504 490 552 471 q 415 510 456 510 q 332 492 372 510 q 407 434 372 452 q 494 416 442 416 q 582 434 547 416 m 735 197 q 631 44 715 115 q 415 -27 547 -27 q 167 73 259 -27 q 75 301 75 172 q 167 530 75 430 q 415 629 259 629 q 629 559 541 629 q 735 404 716 490 q 492 323 628 323 q 248 433 349 323 q 201 301 201 381 q 248 167 201 225 q 494 279 345 279 q 735 197 631 279 z "},"ဨ":{"ha":793,"x_min":75,"x_max":719,"o":"m 719 -302 q 629 -533 719 -437 q 399 -629 538 -629 q 163 -530 251 -629 q 75 -304 75 -431 l 75 302 q 163 530 75 431 q 399 629 251 629 q 631 528 543 629 q 719 300 719 427 q 654 67 719 161 q 458 -27 589 -27 q 347 8 392 -27 q 301 107 301 43 q 324 170 301 144 q 375 206 347 195 q 426 229 403 217 q 449 255 449 241 q 435 288 449 274 q 399 301 422 301 q 363 288 380 301 q 345 260 347 274 l 267 307 q 317 369 279 343 q 399 395 354 395 q 502 354 460 395 q 544 255 544 313 q 509 182 544 210 q 439 141 475 155 q 404 117 404 127 q 458 81 404 81 q 568 133 525 81 q 610 298 610 184 q 543 448 610 395 q 399 502 475 502 q 258 446 315 502 q 201 301 201 389 l 201 -301 q 258 -446 201 -388 q 399 -503 315 -503 q 536 -445 480 -503 q 593 -302 593 -387 l 719 -302 z "},"ဩ":{"ha":1621,"x_min":94,"x_max":1546,"o":"m 1546 -141 l 1546 -266 q 1523 -414 1546 -340 q 1455 -532 1500 -487 q 1181 -629 1364 -629 l 457 -629 q 309 -606 372 -629 q 193 -524 247 -582 q 94 -266 94 -418 l 94 954 q 123 1099 94 1027 q 205 1221 152 1171 q 442 1316 308 1316 l 1180 1316 q 1457 1214 1366 1316 q 1519 1108 1495 1171 q 1546 989 1544 1046 l 1419 989 q 1363 1133 1412 1078 q 1158 1190 1309 1190 l 479 1190 q 281 1118 349 1190 q 221 929 221 1054 l 221 -254 q 242 -363 221 -308 q 296 -448 263 -418 q 495 -502 358 -502 l 1157 -502 q 1369 -439 1312 -502 q 1420 -243 1420 -381 l 1420 -141 l 1546 -141 m 1523 301 q 1427 70 1523 167 q 1198 -27 1331 -27 q 1049 14 1116 -27 q 937 122 982 56 q 821 13 894 53 q 666 -27 749 -27 q 492 18 576 -27 q 363 152 407 62 l 475 212 q 666 99 543 99 q 809 159 751 99 q 867 304 867 218 q 806 443 867 384 q 666 502 746 502 q 557 473 610 502 q 475 391 503 444 l 363 449 q 492 584 407 538 q 666 629 576 629 q 894 534 796 629 q 991 308 991 439 q 1061 166 1001 233 q 1198 99 1120 99 q 1339 159 1280 99 q 1397 301 1397 218 q 1339 442 1397 382 q 1198 502 1280 502 q 1152 495 1175 502 l 1101 610 q 1198 629 1139 629 q 1428 533 1332 629 q 1523 301 1523 437 z "},"ဪ":{"ha":2974,"x_min":75,"x_max":2900,"o":"m 2897 1137 l 2827 1080 q 2780 1128 2810 1108 q 2714 1149 2749 1149 q 2606 1107 2656 1149 q 2555 991 2555 1065 q 2612 871 2555 916 q 2713 826 2668 826 l 2713 728 q 2539 805 2619 728 q 2459 991 2459 882 q 2536 1174 2459 1103 q 2713 1245 2612 1245 q 2818 1216 2768 1245 q 2897 1137 2869 1187 m 585 195 q 480 216 536 216 q 301 125 369 216 q 401 99 349 99 q 585 195 514 99 m 726 243 q 625 54 724 134 q 401 -27 525 -27 q 168 70 260 -27 q 75 301 75 167 q 168 528 75 426 q 401 629 260 629 q 574 583 490 629 q 703 449 659 537 l 593 391 q 401 502 521 502 q 256 437 311 502 q 201 301 201 373 q 229 208 201 251 q 347 294 278 264 q 481 323 416 323 q 726 243 605 323 m 2900 301 q 2805 69 2900 165 q 2578 -27 2710 -27 q 2458 -1 2511 -27 l 2507 113 q 2577 99 2539 99 q 2717 158 2660 99 q 2774 301 2774 217 q 2717 443 2774 384 q 2578 502 2660 502 q 2313 355 2447 502 q 2321 301 2321 328 q 2224 70 2321 167 q 1995 -27 2128 -27 q 1735 122 1839 -27 q 1619 13 1691 53 q 1463 -27 1548 -27 q 1289 18 1374 -27 q 1161 152 1204 64 l 1274 212 q 1463 99 1340 99 q 1607 159 1549 99 q 1664 304 1664 218 q 1604 443 1664 384 q 1463 502 1544 502 q 1355 474 1407 502 q 1274 391 1303 446 l 1161 449 q 1290 584 1206 538 q 1463 629 1374 629 q 1691 534 1592 629 q 1789 311 1789 439 q 1857 168 1796 236 q 1995 99 1918 99 q 2136 158 2078 99 q 2195 301 2195 217 q 2136 442 2195 382 q 1995 502 2078 502 q 1949 495 1967 502 l 1899 610 q 1995 629 1937 629 q 2148 590 2077 629 q 2264 484 2220 551 q 2417 593 2344 557 q 2578 629 2490 629 q 2805 532 2710 629 q 2900 301 2900 435 m 2344 989 l 2216 989 q 2162 1123 2207 1069 q 2080 1176 2129 1162 q 1956 1190 2030 1190 l 1275 1190 q 1082 1122 1149 1190 q 1019 928 1019 1057 l 1019 -254 q 1040 -363 1019 -308 q 1093 -448 1061 -418 q 1293 -502 1156 -502 l 1956 -502 q 2163 -442 2106 -502 q 2218 -243 2218 -387 l 2218 -141 l 2344 -141 l 2344 -266 q 2321 -414 2344 -340 q 2253 -532 2298 -487 q 1979 -629 2162 -629 l 1255 -629 q 990 -524 1093 -629 q 891 -266 891 -422 l 891 954 q 918 1093 891 1019 q 1002 1221 945 1166 q 1240 1316 1105 1316 l 1979 1316 q 2264 1202 2171 1316 q 2344 989 2336 1108 z "},"ါ":{"ha":292,"x_min":-252,"x_max":218,"o":"m 218 0 l 91 0 l 91 975 q -15 1108 91 1108 q -127 981 -127 1108 l -252 981 q -231 1099 -252 1044 q -154 1194 -210 1154 q -15 1234 -98 1234 q 152 1168 85 1234 q 218 975 218 1103 l 218 0 z "},"ာ":{"ha":578,"x_min":-165,"x_max":503,"o":"m 503 301 q 408 69 503 165 q 180 -27 312 -27 q 60 -1 115 -27 l 109 113 q 179 99 134 99 q 319 158 262 99 q 376 301 376 217 q 319 443 376 384 q 180 502 262 502 q 62 467 121 502 q -92 349 4 431 l -165 460 q -43 555 -81 528 q 56 606 -4 583 q 180 629 115 629 q 408 532 312 629 q 503 301 503 435 z "},"ိ":{"ha":0,"x_min":-568,"x_max":-75,"o":"m -171 990 q -215 1100 -171 1053 q -320 1147 -259 1147 q -428 1100 -384 1147 q -472 990 -472 1053 q -428 880 -472 926 q -323 833 -384 833 q -215 880 -259 833 q -171 990 -171 926 m -75 990 q -146 810 -75 884 q -320 736 -218 736 q -496 810 -423 736 q -568 990 -568 884 q -496 1169 -568 1095 q -323 1244 -423 1244 q -147 1169 -220 1244 q -75 990 -75 1095 z "},"ီ":{"ha":0,"x_min":-568,"x_max":-75,"o":"m -201 895 q -320 941 -251 941 q -441 894 -385 941 q -323 833 -393 833 q -201 895 -247 833 m -218 1103 q -239 1125 -218 1103 q -320 1147 -260 1147 q -425 1103 -380 1147 q -472 997 -469 1058 q -468 972 -472 985 q -320 1021 -406 1021 q -174 972 -237 1021 q -170 997 -170 985 q -218 1103 -175 1059 m -147 1169 q -111 1132 -147 1169 q -75 990 -75 1095 q -146 811 -75 886 q -320 736 -218 736 q -496 811 -423 736 q -568 990 -568 886 q -496 1169 -568 1095 q -323 1244 -423 1244 q -147 1169 -220 1244 z "},"ု":{"ha":258,"x_min":54,"x_max":293,"o":"m 293 -629 l 54 -629 l 54 602 l 180 602 l 180 -503 l 293 -503 l 293 -629 z "},"ူ":{"ha":484,"x_min":53,"x_max":521,"o":"m 180 -629 l 53 -629 l 53 602 l 180 602 l 180 -629 m 521 -629 l 286 -629 l 286 602 l 412 602 l 412 -503 l 521 -503 l 521 -629 z "},"ေ":{"ha":803,"x_min":75,"x_max":726,"o":"m 585 195 q 480 216 536 216 q 301 125 368 216 q 401 99 349 99 q 503 123 452 99 q 585 195 553 148 m 726 243 q 625 54 724 134 q 401 -27 525 -27 q 168 70 260 -27 q 75 301 75 167 q 168 528 75 426 q 401 629 260 629 q 578 582 492 629 q 703 449 665 534 l 593 391 q 401 502 522 502 q 287 465 335 502 q 220 383 239 427 q 201 301 201 339 q 229 208 201 251 q 346 294 278 264 q 481 323 414 323 q 726 243 602 323 z "},"ဲ":{"ha":0,"x_min":-545,"x_max":-75,"o":"m -75 849 l -134 770 l -545 1097 l -490 1176 l -75 849 z "},"ဳ":{"ha":0,"x_min":-570,"x_max":-75,"o":"m -298 990 q -304 1005 -298 998 q -319 1012 -311 1012 q -335 1005 -328 1012 q -342 990 -342 998 q -335 975 -342 981 q -319 968 -328 968 q -304 975 -311 968 q -298 990 -298 981 m -264 1047 q -253 1035 -264 1047 q -241 990 -241 1023 q -264 933 -241 958 q -319 909 -286 909 q -375 933 -351 909 q -399 990 -399 958 q -375 1047 -399 1023 q -319 1072 -351 1072 q -264 1047 -286 1072 m -171 990 q -214 1100 -171 1053 q -319 1147 -258 1147 q -427 1101 -382 1147 q -472 990 -472 1054 q -428 880 -472 926 q -323 834 -384 834 q -215 880 -259 834 q -171 990 -171 926 m -75 990 q -146 811 -75 886 q -319 736 -217 736 q -496 811 -423 736 q -570 990 -570 886 q -497 1168 -570 1093 q -323 1244 -425 1244 q -146 1168 -218 1244 q -75 990 -75 1093 z "},"ဴ":{"ha":0,"x_min":-547,"x_max":-75,"o":"m -75 1085 l -487 758 l -547 836 l -132 1164 l -75 1085 z "},"ဵ":{"ha":0,"x_min":-576,"x_max":-76,"o":"m -183 910 q -264 926 -222 926 q -404 852 -355 926 q -326 833 -363 833 q -183 910 -235 833 m -76 943 q -154 798 -76 860 q -326 735 -232 735 q -506 810 -435 735 q -576 989 -576 884 q -506 1164 -576 1086 q -326 1241 -435 1241 q -189 1204 -255 1241 q -94 1104 -123 1168 l -178 1058 q -326 1145 -239 1145 q -436 1097 -392 1145 q -480 989 -480 1050 q -456 917 -480 945 q -264 1005 -380 1005 q -76 943 -171 1005 z "},"ံ":{"ha":0,"x_min":-343,"x_max":-75,"o":"m -148 911 q -166 952 -148 935 q -209 970 -184 970 q -253 952 -236 970 q -270 911 -270 935 q -252 867 -270 887 q -209 848 -235 848 q -165 867 -183 848 q -148 911 -148 886 m -75 911 q -115 817 -75 857 q -209 777 -155 777 q -303 817 -263 777 q -343 911 -343 857 q -303 1004 -343 964 q -209 1044 -263 1044 q -115 1004 -155 1044 q -75 911 -75 964 z "},"့":{"ha":75,"x_min":-269,"x_max":0,"o":"m -73 -319 q -91 -277 -73 -296 q -134 -259 -109 -259 q -178 -277 -161 -259 q -195 -319 -195 -294 q -178 -363 -195 -343 q -134 -382 -160 -382 q -92 -363 -110 -382 q -73 -319 -73 -343 m -40 -225 q -20 -245 -40 -225 q 0 -319 0 -264 q -40 -412 0 -373 q -134 -452 -80 -452 q -229 -412 -189 -452 q -269 -319 -269 -373 q -229 -225 -269 -264 q -134 -186 -189 -186 q -40 -225 -80 -186 z "},"း":{"ha":419,"x_min":76,"x_max":343,"o":"m 252 454 q 261 463 252 454 q 270 496 270 472 q 252 539 270 521 q 209 557 235 557 q 165 539 183 557 q 148 496 148 521 q 165 454 148 472 q 209 435 183 435 q 252 454 235 435 m 304 591 q 323 571 304 591 q 343 496 343 552 q 304 401 343 441 q 209 362 264 362 q 115 401 153 362 q 76 496 76 441 q 115 591 76 552 q 209 629 153 629 q 304 591 264 629 m 252 83 q 261 93 252 83 q 270 126 270 102 q 252 169 270 151 q 209 187 235 187 q 165 169 183 187 q 148 126 148 151 q 165 83 148 102 q 209 65 183 65 q 252 83 235 65 m 343 126 q 304 33 343 72 q 209 -7 264 -7 q 115 32 155 -7 q 76 126 76 71 q 115 221 76 182 q 209 260 153 260 q 304 221 264 260 q 343 126 343 182 z "},"္":{"ha":75,"x_min":-510,"x_max":0,"o":"m -19 -465 q -41 -488 -19 -488 q -64 -465 -64 -488 q -41 -441 -64 -441 q -19 -465 -19 -441 m -91 -517 q -68 -540 -68 -517 q -91 -563 -68 -563 q -115 -540 -115 -563 q -91 -517 -115 -517 m -167 -566 q -155 -566 -167 -566 q -144 -589 -144 -566 q -167 -612 -144 -612 q -190 -589 -190 -612 q -167 -566 -190 -566 m -232 -608 q -254 -629 -232 -629 q -278 -608 -278 -629 q -254 -585 -278 -585 q -232 -608 -232 -585 m -343 -566 q -332 -566 -343 -566 q -320 -589 -320 -566 q -343 -612 -320 -612 q -366 -589 -366 -612 q -343 -566 -366 -566 m -419 -517 q -395 -540 -395 -517 q -419 -563 -395 -563 q -442 -540 -442 -563 q -419 -517 -442 -517 m -446 -465 q -468 -488 -446 -488 q -491 -465 -491 -488 q -468 -441 -491 -441 q -446 -465 -446 -441 m -486 -353 q -464 -376 -464 -353 q -486 -399 -464 -399 q -510 -376 -510 -399 q -486 -353 -510 -353 m -468 -264 q -446 -288 -446 -264 q -468 -311 -446 -311 q -491 -288 -491 -311 q -468 -264 -491 -264 m -395 -214 q -419 -237 -395 -237 q -442 -214 -442 -237 q -419 -190 -442 -190 q -395 -214 -395 -190 m -320 -161 q -343 -186 -320 -186 q -366 -161 -366 -186 q -343 -138 -366 -138 q -320 -161 -320 -138 m -254 -122 q -232 -145 -232 -122 q -254 -168 -232 -168 q -278 -145 -278 -168 q -254 -122 -278 -122 m -144 -161 q -167 -186 -144 -186 q -190 -161 -190 -186 q -167 -138 -190 -138 q -144 -161 -144 -138 m -68 -214 q -91 -237 -68 -237 q -115 -214 -115 -237 q -91 -190 -115 -190 q -68 -214 -68 -190 m -41 -264 q -19 -288 -19 -264 q -41 -311 -19 -311 q -64 -288 -64 -311 q -41 -264 -64 -264 m -24 -353 q 0 -376 0 -353 q -24 -399 0 -399 q -47 -376 -47 -399 q -24 -353 -47 -353 z "},"်":{"ha":75,"x_min":-437,"x_max":0,"o":"m 0 1141 l -69 1084 q -183 1152 -111 1152 q -293 1108 -245 1152 q -340 994 -340 1065 q -285 873 -340 918 q -183 829 -229 829 l -183 732 q -357 809 -277 732 q -437 994 -437 886 q -360 1177 -437 1105 q -183 1248 -283 1248 q -81 1221 -132 1248 q 0 1141 -31 1194 z "},"ျ":{"ha":277,"x_min":-297,"x_max":201,"o":"m 201 -629 l -297 -503 l -297 88 l -171 88 l -171 -404 l 75 -467 l 75 602 l 201 602 l 201 -629 z "},"ြ":{"ha":290,"x_min":94,"x_max":1032,"o":"m 1032 -122 l 1032 -266 q 943 -532 1032 -441 q 821 -609 887 -589 q 669 -629 754 -629 l 458 -629 q 306 -610 373 -629 q 184 -532 239 -590 q 94 -266 94 -439 l 94 954 q 186 1219 94 1127 q 458 1316 282 1316 l 669 1316 q 940 1218 844 1316 q 1007 1107 982 1175 q 1032 989 1032 1039 l 906 989 q 888 1062 906 1017 q 846 1134 871 1107 q 643 1190 792 1190 l 483 1190 q 279 1134 336 1190 q 221 928 221 1074 l 221 -243 q 279 -446 221 -387 q 483 -502 336 -502 l 644 -502 q 846 -446 792 -502 q 906 -243 906 -387 l 906 -122 l 1032 -122 z "},"ွ":{"ha":0,"x_min":-570,"x_max":-75,"o":"m -216 -486 q -193 -463 -216 -486 q -171 -376 -171 -439 q -215 -265 -171 -312 q -320 -218 -259 -218 q -429 -266 -384 -218 q -473 -376 -473 -313 q -429 -486 -473 -438 q -323 -533 -384 -533 q -216 -486 -260 -533 m -75 -376 q -146 -555 -75 -480 q -320 -629 -218 -629 q -496 -555 -423 -629 q -570 -376 -570 -480 q -497 -197 -570 -273 q -323 -122 -425 -122 q -147 -197 -220 -122 q -75 -376 -75 -273 z "},"ှ":{"ha":0,"x_min":-308,"x_max":-75,"o":"m -75 -629 l -308 -629 l -308 -515 l -190 -515 l -190 -137 l -75 -137 l -75 -629 z "},"ဿ":{"ha":1839,"x_min":75,"x_max":1766,"o":"m 1766 301 q 1670 70 1766 167 q 1439 -27 1573 -27 q 1179 122 1278 -27 q 1064 14 1135 54 q 910 -27 993 -27 q 647 122 751 -27 q 533 14 605 54 q 378 -27 461 -27 q 203 18 288 -27 q 75 152 119 62 l 187 212 q 378 99 254 99 q 520 159 463 99 q 578 302 578 218 q 519 443 578 384 q 378 502 461 502 q 271 474 323 502 q 187 391 218 446 l 75 449 q 203 584 118 538 q 378 629 288 629 q 607 533 510 629 q 704 307 704 437 q 770 170 711 241 q 910 99 830 99 q 1051 159 993 99 q 1109 302 1109 218 q 1051 441 1109 380 q 910 502 993 502 q 863 495 887 502 l 814 610 q 910 629 849 629 q 1140 532 1046 629 q 1234 307 1234 435 q 1299 170 1240 241 q 1439 99 1359 99 q 1581 159 1522 99 q 1640 301 1640 218 q 1581 442 1640 382 q 1439 502 1522 502 q 1394 495 1415 502 l 1344 610 q 1439 629 1379 629 q 1670 533 1573 629 q 1766 301 1766 437 z "},"၀":{"ha":793,"x_min":75,"x_max":719,"o":"m 593 301 q 535 442 593 382 q 399 502 477 502 q 259 442 317 502 q 201 301 201 382 q 258 159 201 218 q 395 99 316 99 q 534 159 476 99 q 593 301 593 218 m 625 533 q 672 485 625 533 q 719 301 719 437 q 625 69 719 165 q 399 -27 532 -27 q 168 68 262 -27 q 75 301 75 164 q 168 532 75 435 q 395 629 262 629 q 625 533 530 629 z "},"၁":{"ha":783,"x_min":76,"x_max":707,"o":"m 707 301 q 610 69 707 165 q 380 -27 514 -27 q 202 20 283 -27 q 76 152 121 66 l 189 212 q 380 99 258 99 q 520 159 461 99 q 579 301 579 218 q 520 443 579 384 q 380 502 461 502 q 189 391 256 502 l 76 449 q 201 581 119 533 q 380 629 283 629 q 610 532 513 629 q 707 301 707 435 z "},"၂":{"ha":770,"x_min":109,"x_max":662,"o":"m 662 623 l 662 -374 q 592 -558 662 -487 q 385 -629 522 -629 q 179 -551 250 -629 q 109 -340 109 -473 l 233 -340 q 276 -465 233 -426 q 385 -503 319 -503 q 536 -353 536 -503 l 536 623 l 662 623 z "},"၃":{"ha":803,"x_min":81,"x_max":712,"o":"m 712 301 q 616 69 712 165 q 385 -27 519 -27 q 330 -20 351 -27 l 693 -629 l 545 -629 l 104 113 q 81 152 85 141 l 194 212 q 385 99 256 99 q 527 159 468 99 q 586 301 586 218 q 527 442 586 382 q 385 502 468 502 q 194 391 263 502 l 81 449 q 210 584 126 538 q 385 629 294 629 q 615 532 518 629 q 712 301 712 435 z "},"၄":{"ha":803,"x_min":91,"x_max":720,"o":"m 720 152 q 697 113 709 129 l 258 -629 l 109 -629 l 472 -20 q 418 -27 452 -27 q 187 69 283 -27 q 91 301 91 165 q 187 532 91 435 q 418 629 283 629 q 592 584 507 629 q 720 449 677 538 l 609 391 q 418 502 537 502 q 277 442 336 502 q 217 301 217 382 q 277 159 217 218 q 418 99 336 99 q 609 212 537 99 l 720 152 z "},"၅":{"ha":803,"x_min":79,"x_max":723,"o":"m 313 304 q 294 351 313 331 q 247 370 274 370 q 198 351 217 370 q 179 304 179 331 q 198 254 179 274 q 244 233 217 233 q 293 254 273 233 q 313 304 313 274 m 723 -302 q 635 -530 723 -431 q 399 -629 547 -629 q 166 -530 254 -629 q 79 -301 79 -430 l 206 -301 q 261 -444 206 -384 q 399 -503 316 -503 q 541 -446 484 -503 q 597 -301 597 -389 l 597 301 q 540 445 597 388 q 399 502 483 502 q 285 457 336 502 q 377 404 338 446 q 416 304 416 361 q 364 184 416 235 q 244 133 312 133 q 126 183 174 133 q 79 304 79 233 l 79 312 q 172 536 81 444 q 399 629 262 629 q 635 530 547 629 q 723 304 723 431 l 723 -302 z "},"၆":{"ha":803,"x_min":79,"x_max":723,"o":"m 507 403 q 517 413 507 403 q 528 452 528 423 q 508 500 528 480 q 461 519 488 519 q 413 500 433 519 q 393 452 393 481 q 413 404 393 425 q 458 382 433 382 q 507 403 487 382 m 723 301 q 635 73 723 174 q 403 -27 547 -27 q 167 72 255 -27 q 79 300 79 171 l 79 906 q 167 1131 79 1032 q 403 1230 255 1230 q 633 1135 543 1230 q 723 905 723 1039 l 597 905 q 541 1047 597 987 q 403 1107 484 1107 q 262 1048 319 1107 q 206 903 206 990 l 206 301 q 262 155 206 213 q 403 98 319 98 q 514 135 465 98 q 582 229 563 172 l 411 293 q 324 355 357 313 q 292 452 292 397 q 342 570 292 518 q 461 621 393 621 q 579 570 530 621 q 628 452 628 519 q 593 349 628 395 l 723 301 z "},"၇":{"ha":795,"x_min":75,"x_max":719,"o":"m 658 -548 q 472 -629 600 -629 q 380 -613 420 -629 q 315 -572 339 -597 q 277 -513 292 -547 q 256 -448 262 -479 q 251 -385 251 -418 q 304 -212 251 -320 q 422 -9 358 -104 q 539 180 486 85 q 593 315 593 274 q 530 454 593 407 q 395 502 468 502 q 253 443 305 502 q 201 301 201 384 l 75 301 q 163 528 75 427 q 395 629 251 629 q 616 542 513 629 q 719 315 719 454 q 665 151 719 255 q 548 -46 612 47 q 431 -237 484 -140 q 377 -385 377 -335 q 402 -467 377 -433 q 472 -502 427 -502 q 574 -457 524 -502 l 658 -548 z "},"၈":{"ha":807,"x_min":75,"x_max":731,"o":"m 266 129 q 309 270 309 190 q 239 410 309 350 q 201 278 201 350 q 266 129 201 199 m 731 278 q 606 -27 731 73 l 533 76 q 588 162 571 118 q 605 278 605 206 q 546 438 605 374 q 403 502 487 502 q 323 480 354 502 q 416 271 416 387 q 361 81 416 161 q 244 -27 305 1 q 75 278 75 110 q 171 527 75 426 q 403 628 267 628 q 636 527 541 628 q 731 278 731 426 z "},"၉":{"ha":803,"x_min":79,"x_max":723,"o":"m 508 88 q 518 98 508 88 q 528 136 528 107 q 507 184 528 164 q 458 205 487 205 q 412 184 431 205 q 393 136 393 164 q 412 88 393 107 q 461 69 431 69 q 508 88 488 69 m 723 -290 q 633 -532 723 -435 q 403 -629 544 -629 q 167 -531 255 -629 q 79 -304 79 -433 l 79 302 q 167 530 79 430 q 403 629 255 629 q 636 528 549 629 q 723 286 723 427 l 593 237 q 629 136 629 191 q 580 17 629 66 q 461 -33 530 -33 q 341 14 391 -33 q 292 136 292 60 q 324 233 292 191 q 411 296 357 275 l 583 359 q 517 463 566 425 q 403 502 469 502 q 262 445 319 502 q 206 301 206 388 l 206 -301 q 262 -446 206 -389 q 403 -503 319 -503 q 542 -445 487 -503 q 597 -290 597 -387 l 723 -290 z "},"၊":{"ha":278,"x_min":75,"x_max":201,"o":"m 201 0 l 75 0 l 75 602 l 201 602 l 201 0 z "},"။":{"ha":510,"x_min":75,"x_max":434,"o":"m 201 0 l 75 0 l 75 602 l 201 602 l 201 0 m 434 0 l 308 0 l 308 602 l 434 602 l 434 0 z "},"၌":{"ha":796,"x_min":75,"x_max":723,"o":"m 699 1137 l 629 1080 q 515 1149 583 1149 q 407 1106 457 1149 q 357 991 357 1063 q 413 871 357 916 q 515 826 469 826 l 515 730 q 341 806 422 730 q 260 991 260 882 q 337 1174 260 1103 q 515 1245 414 1245 q 617 1218 568 1245 q 699 1137 666 1191 m 723 301 q 626 69 723 165 q 395 -27 529 -27 q 220 23 300 -27 l 220 -87 q 395 -126 298 -126 q 680 -20 541 -126 l 680 -380 q 620 -564 680 -495 q 456 -629 560 -629 l 251 -629 q 120 -581 165 -629 q 75 -463 75 -532 q 122 -346 75 -391 q 251 -301 170 -301 q 376 -342 327 -301 l 315 -437 q 251 -411 277 -411 q 186 -463 186 -411 q 270 -517 186 -517 l 418 -517 q 483 -510 463 -517 q 524 -484 503 -503 q 553 -387 553 -456 l 553 -218 q 395 -244 469 -244 q 92 -144 213 -244 l 92 152 l 206 212 q 395 99 273 99 q 537 159 477 99 q 597 301 597 218 q 537 442 597 382 q 395 502 477 502 q 206 391 271 502 l 92 449 q 222 584 137 538 q 395 629 307 629 q 626 532 529 629 q 723 301 723 435 z "},"၍":{"ha":1142,"x_min":75,"x_max":1063,"o":"m 448 103 q 349 214 406 183 q 209 250 286 250 q 278 142 224 184 q 401 99 332 99 q 448 103 430 99 m 779 -410 l 651 -410 l 651 214 q 572 427 651 351 q 401 502 492 502 q 279 462 330 502 q 212 359 228 422 q 414 300 324 359 q 586 23 549 212 q 401 -27 519 -27 q 171 69 267 -27 q 75 301 75 165 q 168 528 75 429 q 401 628 262 628 q 667 522 555 628 q 779 225 779 415 l 779 -410 m 1059 -380 q 986 -552 1059 -479 q 795 -629 913 -629 l 304 -629 q 174 -569 220 -629 q 127 -439 127 -509 q 182 -308 127 -362 q 319 -254 237 -254 q 442 -289 400 -254 l 381 -399 q 319 -381 350 -381 q 275 -395 293 -381 q 256 -439 256 -410 q 275 -484 256 -464 q 323 -503 293 -503 l 770 -503 q 844 -494 819 -503 q 895 -464 868 -486 q 933 -366 933 -434 l 933 519 q 898 640 933 587 q 813 726 863 692 q 714 795 764 761 q 629 878 665 829 q 594 991 594 928 q 669 1175 594 1104 q 852 1245 743 1245 q 989 1205 933 1245 q 1063 1107 1044 1165 l 958 1042 q 852 1119 926 1119 q 755 1083 789 1119 q 720 991 720 1047 q 739 939 720 964 q 788 892 758 914 q 854 848 818 871 q 926 794 890 825 q 991 728 962 764 q 1040 637 1021 692 q 1059 519 1059 583 l 1059 -380 z "},"၎":{"ha":779,"x_min":75,"x_max":704,"o":"m 704 -629 l 578 -629 l 578 24 q 401 -27 495 -27 q 171 69 267 -27 q 75 301 75 165 q 171 532 75 435 q 401 629 267 629 q 576 584 491 629 q 704 449 661 538 l 591 391 q 401 502 522 502 q 260 442 320 502 q 201 301 201 382 q 260 159 201 218 q 401 99 320 99 q 591 212 524 99 l 704 152 l 704 -629 z "},"၏":{"ha":1379,"x_min":75,"x_max":1301,"o":"m 582 434 q 504 490 552 471 q 415 510 456 510 q 332 494 373 510 q 492 416 397 416 q 582 434 541 416 m 583 167 q 494 186 530 186 q 332 106 399 186 q 415 92 372 92 q 507 112 460 92 q 583 167 555 132 m 1295 -7 l 1169 -7 l 1169 524 q 1134 638 1169 587 q 1049 724 1099 689 q 950 795 1000 760 q 865 880 901 830 q 830 991 830 929 q 904 1175 830 1104 q 1086 1245 978 1245 q 1222 1207 1165 1245 q 1301 1107 1279 1169 l 1194 1042 q 1086 1119 1161 1119 q 991 1083 1024 1119 q 958 991 958 1047 q 983 932 958 962 q 1045 880 1008 903 q 1126 821 1082 856 q 1208 750 1171 787 q 1270 654 1245 713 q 1295 524 1295 594 l 1295 -7 m 1019 -7 l 892 -7 l 892 412 q 869 479 892 457 q 808 502 845 502 q 711 454 753 502 q 731 404 722 434 q 492 323 618 323 q 248 433 350 323 q 201 301 201 374 q 248 167 201 229 q 494 279 345 279 q 731 197 628 279 q 622 36 709 99 q 415 -27 534 -27 q 167 73 259 -27 q 75 301 75 172 q 167 530 75 430 q 415 629 259 629 q 629 559 543 629 q 808 629 700 629 q 958 572 898 629 q 1019 412 1019 515 l 1019 -7 z "},"ၐ":{"ha":807,"x_min":75,"x_max":732,"o":"m 422 258 q 427 263 422 258 q 431 278 431 267 q 422 298 431 289 q 403 307 414 307 q 384 298 392 307 q 376 278 376 289 q 384 258 376 267 q 403 250 392 250 q 422 258 414 250 m 505 278 q 475 208 505 237 q 403 178 445 178 q 334 207 363 178 q 304 278 304 236 q 333 350 304 320 q 403 380 362 380 q 475 350 445 380 q 505 278 505 320 m 732 278 q 703 102 732 174 q 606 -27 674 30 l 533 76 q 589 163 574 122 q 605 278 605 205 q 548 435 605 369 q 403 502 491 502 q 258 435 315 502 q 201 278 201 369 q 217 165 201 206 q 274 76 233 123 l 201 -27 q 104 102 133 30 q 75 278 75 174 q 170 526 75 425 q 403 628 264 628 q 637 526 543 628 q 732 278 732 425 z "},"ၑ":{"ha":807,"x_min":75,"x_max":732,"o":"m 422 302 q 427 306 422 302 q 431 321 431 311 q 422 341 431 332 q 403 350 414 350 q 384 341 392 350 q 376 321 376 332 q 384 302 376 311 q 403 293 392 293 q 422 302 414 293 m 505 321 q 475 251 505 281 q 403 221 445 221 q 334 250 363 221 q 304 321 304 279 q 333 393 304 363 q 403 423 362 423 q 475 393 445 423 q 505 321 505 363 m 732 321 q 637 74 732 175 q 403 -27 541 -27 q 170 74 264 -27 q 75 321 75 175 q 104 498 75 426 q 201 628 133 571 l 274 525 q 217 436 233 477 q 201 321 201 395 q 258 165 201 231 q 403 99 315 99 q 548 165 491 99 q 605 321 605 231 q 589 437 605 395 q 533 525 574 479 l 606 628 q 703 498 674 571 q 732 321 732 426 z "},"ၒ":{"ha":796,"x_min":75,"x_max":722,"o":"m 722 227 q 631 53 722 133 q 403 -27 541 -27 q 172 73 269 -27 q 75 326 75 172 q 201 628 75 532 l 274 525 q 201 326 201 452 q 236 195 201 250 q 315 120 271 141 q 403 99 358 99 q 542 143 488 99 q 595 227 595 187 q 577 276 595 255 q 533 313 559 297 q 482 346 507 328 q 439 393 457 363 q 420 463 420 422 q 469 585 420 543 q 589 628 517 628 q 667 606 631 628 q 722 551 704 585 l 625 492 q 589 515 614 515 q 536 463 536 515 q 555 429 536 442 q 602 403 574 415 q 656 373 629 391 q 703 318 684 355 q 722 227 722 281 z "},"ၓ":{"ha":898,"x_min":75,"x_max":822,"o":"m 822 551 l 741 479 q 682 515 713 515 q 648 503 662 515 q 635 463 635 490 q 656 422 635 442 q 701 384 677 401 q 747 325 726 366 q 768 227 768 283 q 677 54 768 134 q 448 -27 586 -27 q 219 53 309 -27 q 129 227 129 133 q 150 323 129 283 q 196 380 171 363 q 242 417 221 396 q 263 463 263 438 q 249 503 263 490 q 214 515 235 515 q 157 479 183 515 l 75 551 q 208 628 122 628 q 328 585 279 628 q 376 463 376 543 q 357 379 376 414 q 315 328 338 345 q 274 286 293 312 q 255 227 255 260 q 309 144 255 189 q 448 99 362 99 q 587 144 533 99 q 642 227 642 189 q 623 288 642 260 q 582 332 605 315 q 541 384 559 350 q 522 463 522 418 q 570 585 522 543 q 689 628 617 628 q 822 551 774 628 z "},"ၔ":{"ha":803,"x_min":75,"x_max":726,"o":"m 585 406 q 401 502 514 502 q 301 477 350 502 q 479 385 369 385 q 585 406 532 385 m 726 358 q 480 277 594 277 q 347 308 416 277 q 229 393 277 339 q 201 300 201 350 q 256 161 201 224 q 401 99 312 99 q 593 212 519 99 l 701 152 q 574 18 658 64 q 401 -27 491 -27 q 168 74 260 -27 q 75 300 75 175 q 168 532 75 434 q 401 629 260 629 q 625 549 526 629 q 726 358 724 468 z "},"ၕ":{"ha":803,"x_min":75,"x_max":726,"o":"m 585 406 q 401 502 514 502 q 301 477 350 502 q 479 385 368 385 q 585 406 532 385 m 726 358 q 480 278 594 278 q 346 308 415 278 q 229 393 277 338 q 201 300 201 354 q 231 172 201 237 q 302 106 260 107 q 329 130 313 106 q 366 177 345 153 q 415 201 388 201 q 464 177 442 201 q 501 130 486 153 q 528 106 517 106 q 602 190 564 106 l 708 137 q 528 -20 637 -20 q 470 3 494 -20 q 434 50 446 26 q 415 73 422 73 q 395 50 408 73 q 359 3 382 27 q 302 -20 335 -20 q 180 33 235 -20 q 100 159 126 87 q 75 300 75 231 q 168 530 75 430 q 401 629 262 629 q 628 549 532 629 q 726 358 724 468 z "},"ၖ":{"ha":715,"x_min":75,"x_max":640,"o":"m 640 213 q 616 102 640 151 q 551 27 591 54 q 462 -14 510 0 q 361 -27 414 -27 q 205 20 290 -27 q 75 164 121 66 l 179 240 q 261 135 209 171 q 359 99 313 99 q 511 213 511 99 q 484 262 511 240 q 418 302 457 285 q 342 339 380 319 q 277 395 304 359 q 250 477 250 430 q 302 588 250 547 q 411 629 355 629 q 501 614 463 629 q 587 552 540 600 l 519 464 q 411 517 467 517 q 388 507 399 517 q 377 477 377 496 q 424 438 381 461 q 514 392 467 415 q 601 321 562 369 q 640 213 640 274 z "},"ၗ":{"ha":693,"x_min":71,"x_max":644,"o":"m 644 213 q 599 55 644 130 q 476 -20 553 -20 q 420 3 444 -20 q 383 50 396 26 q 363 73 370 73 q 345 50 357 73 q 309 3 332 27 q 251 -20 285 -20 q 71 137 151 -20 l 176 190 q 251 106 212 106 q 277 130 262 106 q 315 177 293 153 q 363 201 336 201 q 412 177 391 201 q 450 130 434 153 q 476 106 465 106 q 505 139 494 106 q 515 213 515 172 q 488 262 515 240 q 423 302 461 285 q 347 339 385 319 q 281 395 308 359 q 254 477 254 430 q 307 588 254 547 q 415 629 359 629 q 505 614 467 629 q 590 552 544 600 l 524 464 q 415 517 471 517 q 392 507 403 517 q 381 477 381 496 q 428 438 385 461 q 518 392 471 415 q 605 321 566 369 q 644 213 644 274 z "},"ၘ":{"ha":654,"x_min":76,"x_max":578,"o":"m 471 -297 q 327 -220 418 -220 q 250 -241 286 -220 q 309 -294 270 -273 q 391 -315 349 -315 q 471 -297 427 -315 m 578 -331 q 391 -395 483 -395 q 287 -370 343 -395 q 197 -304 231 -346 q 174 -376 174 -338 q 216 -484 174 -435 q 327 -532 258 -532 q 476 -445 425 -532 l 559 -491 q 460 -594 528 -559 q 327 -629 392 -629 q 146 -551 217 -629 q 76 -376 76 -473 q 146 -197 76 -271 q 327 -122 217 -122 q 499 -186 420 -122 q 578 -331 578 -250 z "},"ၙ":{"ha":654,"x_min":76,"x_max":578,"o":"m 469 -293 q 328 -218 415 -218 q 252 -239 289 -218 q 389 -308 302 -308 q 469 -293 431 -308 m 578 -330 q 389 -392 477 -392 q 286 -369 339 -392 q 195 -302 233 -346 q 175 -374 175 -332 q 196 -471 175 -416 q 252 -525 217 -525 q 273 -507 262 -525 q 301 -470 285 -488 q 339 -452 317 -452 q 377 -470 361 -452 q 405 -507 393 -488 q 425 -525 416 -525 q 487 -449 453 -525 l 567 -492 q 425 -623 509 -623 q 381 -604 399 -623 q 354 -568 363 -586 q 339 -549 345 -549 q 323 -568 334 -549 q 296 -604 313 -586 q 252 -623 278 -623 q 126 -541 176 -623 q 76 -374 76 -460 q 149 -198 76 -275 q 328 -121 221 -121 q 503 -182 429 -121 q 578 -330 576 -244 z "},"ၚ":{"ha":779,"x_min":75,"x_max":704,"o":"m 525 -256 q 460 -374 525 -296 q 395 -476 395 -453 q 423 -505 395 -505 q 471 -484 450 -505 l 506 -578 q 423 -606 471 -606 q 334 -576 374 -606 q 293 -476 293 -547 q 313 -410 293 -446 q 359 -347 334 -373 q 404 -294 384 -320 q 425 -256 425 -269 q 388 -218 425 -218 q 357 -235 369 -218 q 345 -274 345 -251 l 244 -274 q 284 -165 244 -214 q 388 -117 324 -117 q 484 -151 442 -117 q 525 -256 525 -184 m 704 152 q 576 18 661 62 q 401 -27 491 -27 q 171 69 267 -27 q 75 301 75 165 q 171 532 75 435 q 401 629 267 629 q 576 584 491 629 q 704 449 661 538 l 591 391 q 401 502 525 502 q 260 442 320 502 q 201 301 201 382 q 260 159 201 218 q 401 99 320 99 q 591 212 525 99 l 704 152 z "},"ၛ":{"ha":1059,"x_min":75,"x_max":985,"o":"m 586 342 q 552 368 568 362 q 506 374 536 374 q 457 330 457 374 q 474 302 457 311 q 511 293 491 293 q 586 342 578 293 m 985 -629 l 450 -503 l 450 -23 q 397 -27 426 -27 q 170 69 264 -27 q 75 301 75 165 q 172 532 75 434 q 397 629 269 629 q 594 568 510 629 q 690 396 678 507 q 806 206 749 326 l 715 140 q 651 251 686 194 q 511 194 600 194 q 404 231 449 194 q 358 330 358 269 q 390 420 358 381 q 483 468 422 460 q 511 461 499 468 q 399 507 471 507 q 262 444 323 507 q 201 301 201 380 q 258 158 201 217 q 397 99 315 99 q 556 148 495 99 l 644 58 q 576 7 610 27 l 576 -404 l 857 -467 l 857 602 l 985 602 l 985 -629 z "},"ၜ":{"ha":802,"x_min":75,"x_max":727,"o":"m 422 280 q 426 284 422 280 q 430 300 430 289 q 422 319 430 311 q 403 328 414 328 q 382 319 391 328 q 374 300 374 311 q 382 280 374 289 q 403 271 391 271 q 422 280 414 271 m 473 372 q 488 357 473 372 q 503 300 503 342 q 473 229 503 258 q 403 199 444 199 q 332 229 362 199 q 302 300 302 258 q 332 372 302 342 q 403 401 362 401 q 473 372 444 401 m 549 151 q 580 181 549 151 q 610 300 610 212 q 550 451 610 388 q 403 514 490 514 q 255 451 316 514 q 194 300 194 388 q 254 151 194 213 q 400 90 315 90 q 549 151 488 90 m 727 300 q 631 68 727 165 q 403 -28 536 -28 q 171 68 267 -28 q 75 300 75 165 q 171 532 75 435 q 400 629 267 629 q 631 533 536 629 q 727 300 727 437 z "},"ၝ":{"ha":806,"x_min":75,"x_max":731,"o":"m 557 175 q 403 235 491 235 q 250 175 319 235 q 403 99 307 99 q 557 175 498 99 m 731 -366 q 657 -554 731 -479 q 477 -629 583 -629 l 296 -629 q 166 -569 212 -629 q 121 -439 121 -509 q 175 -308 121 -362 q 311 -254 229 -254 q 437 -289 388 -254 l 374 -399 q 311 -380 343 -380 q 267 -395 285 -380 q 248 -439 248 -410 q 266 -484 248 -464 q 320 -503 283 -503 l 456 -503 q 605 -351 605 -503 l 605 43 q 403 -27 534 -27 q 170 75 264 -27 q 75 323 75 176 q 104 498 75 426 q 201 628 133 570 l 274 525 q 216 435 232 479 q 201 320 201 391 q 209 278 201 298 q 403 342 290 342 q 598 277 514 342 q 605 319 605 300 q 589 433 605 389 q 533 525 574 476 l 606 628 q 703 498 674 570 q 731 323 731 426 l 731 -366 z "},"ၞ":{"ha":0,"x_min":-399,"x_max":85,"o":"m -176 -372 q -258 -391 -218 -373 q -297 -445 -297 -410 q -266 -502 -297 -480 q -203 -524 -235 -524 q -176 -491 -176 -524 l -176 -372 m 85 -365 l 38 -431 q -75 -378 -4 -393 l -75 -480 q -103 -595 -75 -560 q -203 -629 -132 -629 q -236 -626 -216 -629 q -286 -610 -256 -623 q -339 -579 -315 -598 q -381 -525 -363 -560 q -399 -445 -399 -490 q -176 -273 -399 -290 l -176 -137 l -75 -137 l -75 -277 q 85 -365 16 -294 z "},"ၟ":{"ha":0,"x_min":-399,"x_max":81,"o":"m 81 -536 q -142 -629 -8 -629 q -215 -623 -179 -629 q -297 -600 -251 -617 q -371 -543 -343 -583 q -399 -445 -399 -503 q -376 -359 -399 -395 q -315 -306 -353 -323 q -244 -281 -277 -289 q -176 -273 -212 -274 l -176 -137 l -75 -137 l -75 -377 q -142 -370 -98 -370 q -250 -388 -203 -370 q -297 -445 -297 -406 q -142 -528 -297 -528 q 34 -468 -35 -528 l 81 -536 z "},"ၠ":{"ha":0,"x_min":-568,"x_max":-75,"o":"m -75 -629 l -568 -629 l -293 -129 l -153 -129 l -358 -507 l -75 -507 l -75 -629 z "},"ၡ":{"ha":853,"x_min":75,"x_max":779,"o":"m 545 -629 l 312 -629 l 312 -515 l 431 -515 l 431 -137 l 545 -137 l 545 -629 m 448 104 q 349 214 407 183 q 209 251 279 251 q 277 142 224 183 q 401 100 331 100 q 448 104 433 100 m 779 -629 l 651 -629 l 651 216 q 572 427 651 353 q 401 502 494 502 q 279 461 330 502 q 212 359 228 420 q 414 300 326 357 q 586 23 553 208 q 401 -27 515 -27 q 172 69 269 -27 q 75 301 75 165 q 168 529 75 430 q 401 628 262 628 q 667 522 555 628 q 779 227 779 415 l 779 -629 z "},"ၢ":{"ha":425,"x_min":54,"x_max":349,"o":"m 349 0 l 229 0 l 229 476 l 54 476 l 54 602 l 349 602 l 349 0 z "},"ၣ":{"ha":779,"x_min":75,"x_max":704,"o":"m 704 301 q 608 69 704 165 q 377 -27 511 -27 q 201 24 283 -27 l 201 -629 l 75 -629 l 75 155 l 187 212 q 377 99 254 99 q 518 159 458 99 q 578 301 578 218 q 518 442 578 382 q 377 502 458 502 q 187 391 256 502 l 75 449 q 201 582 118 534 q 377 629 285 629 q 607 532 510 629 q 704 301 704 435 z "},"ၤ":{"ha":579,"x_min":54,"x_max":525,"o":"m 525 0 l 229 0 l 229 476 l 54 476 l 54 602 l 349 602 l 349 126 l 525 126 l 525 0 z "},"ၥ":{"ha":783,"x_min":76,"x_max":707,"o":"m 707 301 q 610 69 707 165 q 380 -27 514 -27 q 201 20 282 -27 q 76 152 119 68 l 189 212 q 380 99 259 99 q 520 159 461 99 q 579 301 579 218 q 520 443 579 384 q 380 502 461 502 q 189 391 252 502 l 76 449 q 203 582 121 534 q 380 629 285 629 q 610 532 513 629 q 707 301 707 435 z "},"ၦ":{"ha":807,"x_min":75,"x_max":732,"o":"m 461 -629 l 228 -629 l 228 -515 l 347 -515 l 347 -137 l 461 -137 l 461 -629 m 732 321 q 637 74 732 175 q 403 -27 541 -27 q 170 74 264 -27 q 75 321 75 175 q 104 498 75 426 q 201 628 133 571 l 274 525 q 217 436 233 477 q 201 321 201 395 q 258 165 201 231 q 403 99 315 99 q 548 165 491 99 q 605 321 605 231 q 589 437 605 395 q 533 525 574 479 l 606 628 q 703 497 674 570 q 732 321 732 425 z "},"ၧ":{"ha":468,"x_min":68,"x_max":400,"o":"m 289 137 q 271 178 289 160 q 228 195 252 195 q 184 178 201 195 q 167 137 167 160 q 184 93 167 113 q 228 73 202 73 q 271 92 254 73 q 289 137 289 111 m 400 636 l 400 142 q 351 18 400 62 q 228 -27 302 -27 q 115 21 161 -27 q 68 137 68 69 q 115 252 68 203 q 228 300 161 300 q 274 292 252 300 l 274 636 l 400 636 z "},"ၨ":{"ha":522,"x_min":75,"x_max":448,"o":"m 369 0 l 75 0 l 75 126 l 250 126 l 250 602 l 369 602 l 369 0 m 374 911 q 356 952 374 935 q 313 970 338 970 q 269 952 286 970 q 252 911 252 935 q 270 867 252 887 q 313 848 288 848 q 357 867 339 848 q 374 911 374 886 m 408 1005 q 428 985 408 1005 q 448 911 448 966 q 408 817 448 857 q 313 777 368 777 q 219 817 259 777 q 179 911 179 857 q 219 1005 179 966 q 313 1044 259 1044 q 408 1005 368 1044 z "},"ၩ":{"ha":518,"x_min":54,"x_max":457,"o":"m 401 577 q 429 551 401 577 q 457 445 457 525 q 400 320 457 365 q 300 275 368 294 q 224 251 233 256 q 180 191 180 231 q 204 123 180 148 q 259 99 228 99 q 370 148 326 99 l 450 50 q 259 -27 387 -27 q 121 28 189 -27 q 54 197 54 84 q 148 349 54 298 q 228 378 168 359 q 311 408 288 396 q 331 445 331 420 q 313 488 331 469 q 267 507 296 507 q 164 461 214 507 l 84 555 q 267 629 159 629 q 401 577 345 629 z "},"ၪ":{"ha":477,"x_min":75,"x_max":411,"o":"m 411 629 l 411 146 q 363 19 411 65 q 243 -27 315 -27 q 123 24 172 -27 q 75 148 75 75 l 201 148 q 214 108 201 123 q 243 92 227 92 q 272 106 260 92 q 283 146 283 121 l 283 629 l 411 629 z "},"ၫ":{"ha":477,"x_min":68,"x_max":403,"o":"m 403 -7 l 277 -7 l 277 453 q 264 500 277 483 q 236 517 252 517 q 206 501 218 517 q 194 460 194 486 l 68 460 q 114 586 68 536 q 236 636 160 636 q 357 585 312 636 q 403 453 403 533 l 403 -7 z "},"ၬ":{"ha":477,"x_min":68,"x_max":403,"o":"m 403 148 q 355 24 403 75 q 236 -27 308 -27 q 116 19 164 -27 q 68 146 68 65 l 68 629 l 194 629 l 194 146 q 206 107 194 122 q 236 92 218 92 q 264 108 251 92 q 278 148 278 123 l 403 148 z "},"ၭ":{"ha":518,"x_min":60,"x_max":463,"o":"m 463 197 q 396 28 463 84 q 259 -27 330 -27 q 68 50 132 -27 l 148 148 q 259 99 193 99 q 312 125 288 99 q 336 195 336 151 q 294 251 336 231 q 221 273 292 252 q 118 320 151 294 q 60 445 60 362 q 117 577 60 525 q 251 629 174 629 q 434 555 358 629 l 354 461 q 251 507 302 507 q 203 488 221 507 q 186 445 186 469 q 208 408 186 422 q 290 378 231 396 q 369 349 349 359 q 463 197 463 298 z "},"ၮ":{"ha":1633,"x_min":75,"x_max":1558,"o":"m 1558 301 q 1463 69 1558 165 q 1233 -27 1367 -27 q 1137 -9 1172 -27 l 1187 106 q 1233 99 1211 99 q 1374 159 1316 99 q 1432 301 1432 218 q 1374 443 1432 384 q 1233 502 1316 502 q 1092 427 1154 502 q 1029 274 1029 353 q 903 -27 1028 75 l 830 76 q 886 163 869 121 q 902 278 902 206 q 846 436 902 370 q 701 502 789 502 q 656 495 674 502 q 731 278 731 407 q 703 102 731 174 q 606 -27 674 30 l 533 76 q 589 164 572 122 q 605 278 605 206 q 549 436 605 370 q 403 502 492 502 q 257 436 313 502 q 201 278 201 370 q 217 164 201 206 q 274 76 233 122 l 201 -27 q 104 102 133 28 q 75 278 75 175 q 170 526 75 425 q 403 628 264 628 q 552 591 484 628 q 701 628 617 628 q 854 588 783 628 q 970 473 925 548 q 1082 586 1013 543 q 1233 629 1150 629 q 1462 532 1366 629 q 1558 301 1558 435 z "},"ၯ":{"ha":1335,"x_min":75,"x_max":1260,"o":"m 985 -629 l 751 -629 l 751 -515 l 871 -515 l 871 -137 l 985 -137 l 985 -629 m 1260 301 q 1164 69 1260 165 q 935 -27 1067 -27 q 838 -9 875 -27 l 888 106 q 935 99 911 99 q 1076 159 1017 99 q 1134 301 1134 218 q 1075 442 1134 382 q 935 502 1016 502 q 800 435 860 502 q 731 302 739 369 q 634 72 728 171 q 403 -27 540 -27 q 171 75 267 -27 q 75 323 75 178 q 104 498 75 426 q 201 628 133 570 l 279 530 q 218 441 236 486 q 201 323 201 396 q 261 166 201 233 q 403 99 321 99 q 545 166 484 99 q 605 323 605 233 q 587 439 605 396 q 528 530 570 483 l 606 628 q 696 507 673 570 q 935 629 796 629 q 1164 532 1067 629 q 1260 301 1260 435 z "},"ၰ":{"ha":1328,"x_min":75,"x_max":1253,"o":"m 985 -629 l 751 -629 l 751 -515 l 871 -515 l 871 -137 l 985 -137 l 985 -629 m 1253 301 q 1157 70 1253 167 q 928 -27 1061 -27 q 777 16 845 -27 q 665 126 708 58 q 548 13 618 53 q 393 -27 477 -27 q 165 53 255 -27 q 75 227 75 133 q 94 318 75 281 q 141 373 114 355 q 196 402 168 391 q 243 428 224 414 q 263 463 263 442 q 249 502 263 488 q 216 515 235 515 q 171 479 186 515 l 75 536 q 127 602 85 575 q 216 628 168 628 q 328 585 281 628 q 376 463 376 541 q 357 393 376 422 q 313 346 339 363 q 262 313 288 328 q 219 276 237 297 q 201 227 201 255 q 254 143 201 187 q 393 99 308 99 q 532 159 469 99 q 594 331 594 220 q 522 525 594 446 l 595 628 q 722 319 722 532 q 787 172 723 244 q 928 99 850 99 q 1069 159 1010 99 q 1127 301 1127 218 q 1068 442 1127 382 q 928 502 1009 502 q 882 494 899 502 l 831 610 q 928 629 872 629 q 1157 533 1061 629 q 1253 301 1253 437 z "},"ၱ":{"ha":757,"x_min":75,"x_max":684,"o":"m 610 867 q 593 908 610 890 q 549 926 575 926 q 505 908 522 926 q 488 867 488 890 q 505 824 488 844 q 549 804 522 804 q 593 823 575 804 q 610 867 610 842 m 644 961 q 664 941 644 961 q 684 867 684 921 q 644 773 684 812 q 549 734 604 734 q 455 773 495 734 q 415 867 415 812 q 455 961 415 921 q 549 1001 495 1001 q 644 961 604 1001 m 270 867 q 252 908 270 890 q 209 926 235 926 q 165 908 182 926 q 148 867 148 890 q 165 824 148 844 q 209 804 182 804 q 252 823 235 804 q 270 867 270 842 m 303 961 q 323 941 303 961 q 343 867 343 921 q 303 773 343 812 q 209 734 263 734 q 115 773 155 734 q 75 867 75 812 q 115 961 75 921 q 209 1001 155 1001 q 303 961 263 1001 z "},"ၲ":{"ha":0,"x_min":-511,"x_max":-75,"o":"m -75 1141 l -144 1084 q -258 1152 -186 1152 q -368 1108 -320 1152 q -415 994 -415 1065 q -359 873 -415 918 q -258 829 -304 829 l -258 732 q -431 809 -351 732 q -511 994 -511 886 q -435 1177 -511 1105 q -258 1248 -358 1248 q -156 1221 -206 1248 q -75 1141 -106 1194 z "},"ၳ":{"ha":627,"x_min":0,"x_max":627,"o":"m 627 840 l 556 772 l 313 1013 l 69 772 l 0 840 l 313 1154 l 627 840 z "},"ၴ":{"ha":0,"x_min":-701,"x_max":-75,"o":"m -75 1086 l -387 772 l -701 1086 l -631 1154 l -387 913 l -145 1154 l -75 1086 z "},"ၵ":{"ha":796,"x_min":75,"x_max":722,"o":"m 722 275 q 595 -27 722 71 l 522 76 q 595 275 595 149 q 560 406 595 351 q 481 481 525 460 q 393 502 438 502 q 254 457 308 502 q 201 374 201 412 q 219 324 201 346 q 262 287 237 302 q 313 254 288 271 q 357 208 339 237 q 376 138 376 179 q 328 16 376 58 q 208 -27 279 -27 q 132 -7 170 -27 q 75 50 94 14 l 171 109 q 208 85 183 85 q 263 138 263 85 q 243 172 263 159 q 196 198 224 186 q 141 228 168 210 q 94 283 114 245 q 75 374 75 320 q 165 547 75 467 q 393 628 255 628 q 625 528 528 628 q 722 275 722 429 z "},"ၶ":{"ha":803,"x_min":75,"x_max":727,"o":"m 505 127 q 330 217 437 217 q 224 195 277 217 q 399 99 290 99 q 505 127 456 99 m 727 301 q 632 70 727 167 q 399 -27 537 -27 q 257 0 320 -27 q 158 69 194 27 q 103 156 122 111 q 83 243 84 201 q 328 324 213 324 q 458 295 391 324 q 575 213 526 266 q 601 302 601 255 q 585 387 601 345 q 526 466 570 430 q 419 502 483 502 q 380 480 396 502 q 353 433 363 458 q 311 387 342 408 q 235 365 281 365 q 121 403 168 365 q 75 502 75 441 q 148 629 75 589 l 214 557 q 184 515 184 541 q 235 472 184 472 q 270 496 255 472 q 295 551 285 521 q 337 605 305 581 q 419 629 369 629 q 637 528 547 629 q 727 301 727 426 z "},"ၷ":{"ha":806,"x_min":75,"x_max":739,"o":"m 614 278 q 578 410 614 355 q 506 269 506 349 q 551 129 506 189 q 614 278 614 199 m 739 278 q 571 -27 739 114 q 454 81 510 3 q 397 270 397 160 q 490 477 397 382 q 406 502 454 502 q 258 458 315 502 q 201 374 201 414 q 218 324 201 346 q 259 287 235 302 q 308 254 283 271 q 349 208 332 237 q 366 138 366 179 q 322 16 366 58 q 208 -27 278 -27 q 134 -7 174 -27 q 75 50 94 14 l 171 109 q 208 85 184 85 q 240 99 227 85 q 254 138 254 113 q 235 172 254 159 q 191 198 217 186 q 138 228 164 210 q 93 283 111 245 q 75 374 75 320 q 168 547 75 467 q 406 628 262 628 q 642 527 544 628 q 739 278 739 426 z "},"ၸ":{"ha":1324,"x_min":75,"x_max":1249,"o":"m 1067 159 q 1096 189 1067 159 q 1124 301 1124 218 q 1066 443 1124 384 q 925 502 1008 502 q 787 442 844 502 q 731 298 731 382 q 789 159 731 218 q 929 99 846 99 q 1067 159 1009 99 m 1249 301 q 1155 68 1249 164 q 925 -27 1061 -27 q 699 71 791 -27 q 606 294 606 170 q 538 432 598 362 q 400 502 479 502 q 259 443 317 502 q 201 301 201 384 q 259 159 201 218 q 400 99 317 99 q 446 106 422 99 l 495 -9 q 400 -27 460 -27 q 170 69 266 -27 q 75 301 75 165 q 171 532 75 435 q 400 629 267 629 q 549 587 480 629 q 661 480 617 545 q 774 589 703 548 q 929 629 846 629 q 1155 532 1061 629 q 1249 301 1249 435 z "},"ၹ":{"ha":1284,"x_min":75,"x_max":1210,"o":"m 203 288 q 268 154 210 208 q 401 100 326 100 l 414 100 q 328 240 385 201 q 203 288 271 286 m 1084 301 q 1025 442 1084 382 q 886 502 967 502 q 749 442 807 502 q 692 301 692 382 q 750 159 692 218 q 890 99 808 99 q 1026 159 968 99 q 1084 301 1084 218 m 1210 301 q 1116 68 1210 164 q 886 -27 1021 -27 q 659 68 753 -27 q 566 301 566 164 q 591 427 566 365 q 400 502 505 502 q 298 469 345 502 q 235 388 252 437 q 406 309 340 370 q 537 5 534 187 q 403 -27 488 -27 q 172 68 270 -27 q 75 301 75 164 q 171 532 75 435 q 400 629 267 629 q 662 533 555 629 q 890 629 761 629 q 1116 532 1021 629 q 1210 301 1210 435 z "},"ၺ":{"ha":1375,"x_min":84,"x_max":1301,"o":"m 1301 301 q 1204 70 1301 167 q 975 -27 1108 -27 q 779 56 861 -27 l 779 -503 l 876 -503 l 876 -629 l 651 -629 l 651 214 q 574 427 651 351 q 408 502 498 502 q 264 444 319 502 q 210 301 210 385 q 270 158 210 217 q 408 99 330 99 q 486 115 445 99 l 528 -4 q 408 -27 476 -27 q 180 68 275 -27 q 84 301 84 164 q 176 528 84 429 q 408 628 269 628 q 650 536 547 628 q 776 278 754 444 q 852 153 796 208 q 975 99 907 99 q 1116 159 1058 99 q 1175 301 1175 218 q 1116 442 1175 382 q 975 502 1057 502 q 929 495 947 502 l 879 610 q 975 629 918 629 q 1205 533 1109 629 q 1301 301 1301 437 z "},"ၻ":{"ha":1284,"x_min":75,"x_max":1210,"o":"m 1082 288 q 956 240 1010 283 q 871 100 898 197 q 1015 152 954 100 q 1082 288 1076 203 m 593 301 q 535 442 593 382 q 399 502 477 502 q 259 442 317 502 q 201 301 201 382 q 258 159 201 218 q 395 99 316 99 q 534 159 476 99 q 593 301 593 218 m 1210 301 q 1112 68 1210 164 q 882 -27 1015 -27 q 747 5 796 -27 q 873 302 758 198 q 1050 388 952 370 q 986 469 1032 437 q 884 502 940 502 q 693 427 780 502 q 719 301 719 365 q 625 68 719 164 q 399 -27 532 -27 q 169 68 263 -27 q 75 301 75 164 q 169 532 75 435 q 395 629 263 629 q 623 533 524 629 q 884 629 730 629 q 1114 532 1017 629 q 1210 301 1210 435 z "},"ၼ":{"ha":1374,"x_min":81,"x_max":1299,"o":"m 1157 178 q 990 244 1105 244 q 909 226 955 244 q 834 175 864 208 q 990 99 894 99 q 1083 118 1036 99 q 1157 178 1130 137 m 544 176 q 471 225 514 206 q 388 244 427 244 q 221 178 286 244 q 294 119 247 140 q 388 99 340 99 q 544 176 483 99 m 1299 172 q 1272 121 1290 148 q 1218 57 1253 94 q 1122 -3 1183 20 q 985 -27 1061 -27 q 810 21 888 -27 q 690 151 732 69 q 567 22 650 71 q 389 -27 484 -27 q 254 -3 315 -27 q 159 57 193 20 q 107 121 125 94 q 81 172 90 149 q 389 342 183 342 q 587 269 507 342 q 590 290 590 275 q 528 445 590 388 q 389 502 465 502 q 198 391 263 502 l 88 449 q 212 582 126 534 q 389 629 298 629 q 566 577 483 629 q 692 445 650 525 q 812 578 734 526 q 985 629 891 629 q 1166 581 1081 629 q 1290 449 1251 532 l 1177 391 q 985 502 1107 502 q 850 444 910 502 q 789 289 789 387 q 792 267 789 274 q 990 342 865 342 q 1299 172 1199 342 z "},"ၽ":{"ha":1324,"x_min":77,"x_max":1248,"o":"m 1108 195 q 1001 217 1055 217 q 823 125 894 217 q 925 99 871 99 q 1108 195 1036 99 m 1248 243 q 1145 54 1246 136 q 925 -27 1044 -27 q 771 10 841 -27 q 658 111 701 47 q 396 -27 560 -27 q 168 53 258 -27 q 77 227 77 133 q 97 318 77 281 q 144 373 117 355 q 199 403 171 391 q 246 429 227 415 q 266 463 266 442 q 217 515 266 515 q 174 492 191 515 l 77 551 q 132 606 95 585 q 212 628 170 628 q 331 585 283 628 q 378 463 378 543 q 361 393 378 422 q 317 346 343 363 q 266 313 292 328 q 222 276 240 297 q 205 227 205 255 q 258 144 205 189 q 396 99 311 99 q 534 157 469 99 q 598 326 598 214 q 526 525 598 452 l 600 628 q 686 519 658 583 q 925 629 777 629 q 1095 584 1008 629 q 1225 449 1183 538 l 1115 391 q 925 502 1040 502 q 781 443 840 502 q 723 302 723 384 q 753 208 723 248 q 868 294 799 263 q 1001 324 937 324 q 1248 243 1119 324 z "},"ၾ":{"ha":1324,"x_min":77,"x_max":1248,"o":"m 1108 195 q 1001 217 1055 217 q 823 125 894 217 q 925 99 871 99 q 1108 195 1036 99 m 1248 243 q 1145 54 1246 136 q 925 -27 1044 -27 q 771 10 841 -27 q 658 111 701 47 q 396 -27 560 -27 q 168 53 258 -27 q 77 227 77 133 q 97 318 77 281 q 144 373 117 355 q 199 403 171 391 q 246 429 227 415 q 266 463 266 442 q 217 515 266 515 q 174 492 191 515 l 77 551 q 132 606 95 585 q 212 628 170 628 q 331 585 283 628 q 378 463 378 543 q 361 393 378 422 q 317 346 343 363 q 266 313 292 328 q 222 276 240 297 q 205 227 205 255 q 258 144 205 189 q 396 99 311 99 q 534 157 469 99 q 598 326 598 214 q 526 525 598 452 l 600 628 q 686 519 658 583 q 925 629 777 629 q 1095 584 1008 629 q 1225 449 1183 538 l 1115 391 q 925 502 1040 502 q 781 443 840 502 q 723 302 723 384 q 753 208 723 248 q 868 294 799 263 q 1001 324 937 324 q 1248 243 1119 324 m 985 -629 l 751 -629 l 751 -515 l 871 -515 l 871 -137 l 985 -137 l 985 -629 z "},"ၿ":{"ha":807,"x_min":75,"x_max":731,"o":"m 309 331 q 264 471 309 412 q 201 323 201 399 q 239 191 201 252 q 309 331 309 248 m 731 323 q 635 73 731 174 q 403 -27 540 -27 q 170 74 266 -27 q 75 323 75 175 q 244 628 75 487 q 361 519 305 597 q 416 331 416 441 q 323 119 416 213 q 403 99 357 99 q 545 163 486 99 q 605 323 605 227 q 587 439 605 395 q 532 525 570 483 l 605 628 q 731 323 731 526 z "},"ႀ":{"ha":1332,"x_min":76,"x_max":1257,"o":"m 500 125 q 323 217 430 217 q 216 195 269 217 q 399 99 288 99 q 500 125 453 99 m 1162 533 q 1210 485 1162 533 q 1257 301 1257 437 q 1162 69 1257 165 q 932 -27 1066 -27 q 784 14 852 -27 q 673 121 716 54 q 557 13 629 53 q 399 -27 486 -27 q 178 54 279 -27 q 76 243 77 134 q 321 324 205 324 q 455 294 385 324 q 572 208 525 264 q 601 301 601 252 q 547 438 601 374 q 399 502 492 502 q 209 391 275 502 l 99 449 q 224 582 140 534 q 399 629 308 629 q 628 534 537 629 q 724 317 719 439 q 793 168 732 237 q 932 99 854 99 q 1074 159 1015 99 q 1133 301 1133 218 q 1074 443 1133 384 q 932 502 1015 502 q 886 494 906 502 l 837 610 q 932 629 879 629 q 1162 533 1066 629 z "},"ႂ":{"ha":590,"x_min":205,"x_max":644,"o":"m 644 -533 q 458 -636 591 -636 q 281 -566 358 -636 q 205 -384 205 -495 q 281 -198 205 -273 q 458 -123 358 -123 l 458 -220 q 355 -260 410 -220 q 301 -384 301 -300 q 351 -498 301 -456 q 458 -540 400 -540 q 572 -473 528 -540 l 644 -533 z "},"ႃ":{"ha":433,"x_min":45,"x_max":502,"o":"m 502 -629 l 214 -629 l 214 476 l 45 476 l 45 602 l 334 602 l 334 -503 l 502 -503 l 502 -629 z "},"ႄ":{"ha":741,"x_min":75,"x_max":665,"o":"m 665 161 q 590 24 665 76 q 372 -27 515 -27 q 150 30 225 -27 q 75 176 75 87 q 145 300 75 254 q 75 425 75 343 q 150 572 75 514 q 372 629 225 629 q 587 576 510 629 q 665 439 665 524 l 545 395 q 498 470 545 438 q 372 502 452 502 q 250 484 300 502 q 201 425 201 465 q 245 374 201 392 q 369 353 290 355 l 369 248 q 245 229 290 247 q 201 178 201 210 q 251 118 201 137 q 372 99 301 99 q 498 131 452 99 q 545 206 545 163 l 665 161 z "},"ႅ":{"ha":0,"x_min":-528,"x_max":-75,"o":"m -75 884 q -132 778 -75 818 q -301 738 -190 738 q -471 783 -414 738 q -528 897 -528 827 q -475 990 -528 962 q -528 1086 -528 1023 q -471 1201 -528 1157 q -301 1245 -414 1245 q -134 1204 -194 1245 q -75 1099 -75 1164 l -165 1065 q -201 1122 -165 1096 q -301 1149 -237 1149 q -393 1134 -355 1149 q -431 1086 -431 1119 q -396 1046 -431 1061 q -302 1032 -361 1032 l -302 952 q -395 937 -359 951 q -431 898 -431 922 q -393 850 -431 865 q -301 834 -355 834 q -203 861 -240 834 q -165 920 -165 888 l -75 884 z "},"ႆ":{"ha":0,"x_min":-396,"x_max":-83,"o":"m -165 1085 q -187 1135 -165 1114 q -240 1157 -209 1157 q -294 1135 -273 1157 q -315 1085 -315 1114 q -294 1031 -315 1057 q -240 1006 -273 1006 q -186 1029 -208 1006 q -165 1085 -165 1053 m -83 1084 l -83 1069 q -142 864 -83 956 q -275 726 -201 772 l -298 746 q -224 828 -259 772 q -182 932 -190 884 q -239 922 -205 922 q -349 970 -302 922 q -396 1084 -396 1017 q -350 1197 -396 1150 q -239 1244 -304 1244 q -129 1197 -175 1244 q -83 1084 -83 1150 z "},"ႇ":{"ha":411,"x_min":71,"x_max":339,"o":"m 266 126 q 248 168 266 149 q 205 186 231 186 q 161 168 178 186 q 144 126 144 149 q 161 83 144 103 q 205 62 178 62 q 248 81 231 62 q 266 126 266 100 m 339 126 l 339 111 q 283 -64 339 19 q 176 -170 227 -148 l 157 -152 q 217 -86 189 -133 q 252 1 245 -39 q 205 -7 231 -7 q 111 33 151 -7 q 71 126 71 72 q 111 220 71 180 q 205 259 151 259 q 300 220 260 259 q 339 126 339 180 z "},"ႈ":{"ha":411,"x_min":71,"x_max":339,"o":"m 266 496 q 248 536 266 518 q 205 555 231 555 q 161 537 179 555 q 144 496 144 519 q 161 452 144 472 q 205 433 179 433 q 248 452 231 433 q 266 496 266 471 m 300 590 q 319 570 300 590 q 339 496 339 551 q 300 402 339 442 q 205 362 260 362 q 111 402 151 362 q 71 496 71 442 q 111 590 71 551 q 205 629 151 629 q 300 590 260 629 m 266 126 q 248 168 266 149 q 205 186 231 186 q 161 168 179 186 q 144 126 144 149 q 161 83 144 103 q 205 62 179 62 q 248 82 231 62 q 266 126 266 102 m 339 110 q 282 -66 339 19 q 176 -170 225 -151 l 157 -152 q 217 -85 189 -132 q 252 1 245 -39 q 205 -7 231 -7 q 111 33 151 -7 q 71 126 71 72 q 111 220 71 182 q 205 259 151 259 q 300 220 260 259 q 339 123 339 180 l 339 110 z "},"ႉ":{"ha":410,"x_min":71,"x_max":339,"o":"m 266 125 q 248 166 266 148 q 205 184 231 184 q 161 166 178 184 q 144 125 144 148 q 161 81 144 102 q 205 61 178 61 q 248 81 231 61 q 266 125 266 100 m 300 219 q 319 199 300 219 q 339 125 339 179 q 300 31 339 71 q 205 -8 260 -8 q 111 31 151 -8 q 71 125 71 71 q 111 219 71 179 q 205 259 151 259 q 300 219 260 259 z "},"ႊ":{"ha":579,"x_min":75,"x_max":503,"o":"m 270 127 q 252 168 270 151 q 208 186 233 186 q 165 169 182 186 q 148 127 148 152 q 165 83 148 103 q 208 64 183 64 q 252 83 233 64 q 270 127 270 102 m 503 156 q 398 49 480 104 q 221 -7 316 -7 l 208 -7 q 114 33 153 -7 q 75 127 75 72 q 114 220 75 180 q 208 260 153 260 q 302 220 263 260 q 342 127 342 180 q 331 80 342 102 q 420 113 373 85 q 487 174 468 141 l 503 156 m 270 496 q 252 537 270 519 q 208 555 233 555 q 165 538 182 555 q 148 496 148 521 q 165 452 148 472 q 208 433 183 433 q 252 452 233 433 q 270 496 270 471 m 503 525 q 400 419 484 475 q 222 362 316 363 l 208 362 q 114 401 153 362 q 75 496 75 441 q 114 589 75 549 q 208 629 153 629 q 302 589 263 629 q 342 496 342 549 q 331 449 342 471 q 420 482 373 454 q 487 543 468 510 l 503 525 z "},"ႋ":{"ha":418,"x_min":75,"x_max":343,"o":"m 270 302 q 252 342 270 324 q 209 361 235 361 q 165 343 182 361 q 148 302 148 326 q 165 258 148 278 q 209 239 182 239 q 252 258 235 239 q 270 302 270 277 m 303 396 q 323 376 303 396 q 343 302 343 357 q 303 209 343 248 q 209 170 263 170 q 115 209 155 170 q 75 302 75 248 q 115 396 75 357 q 209 435 155 435 q 303 396 263 435 z "},"ႌ":{"ha":757,"x_min":75,"x_max":684,"o":"m 610 302 q 593 342 610 324 q 549 361 575 361 q 505 343 522 361 q 488 302 488 326 q 505 258 488 278 q 549 239 522 239 q 593 258 575 239 q 610 302 610 277 m 644 396 q 664 376 644 396 q 684 302 684 357 q 644 209 684 248 q 549 170 604 170 q 455 209 495 170 q 415 302 415 248 q 455 396 415 357 q 549 435 495 435 q 644 396 604 435 m 270 302 q 252 342 270 324 q 209 361 235 361 q 165 343 182 361 q 148 302 148 326 q 165 258 148 278 q 209 239 182 239 q 252 258 235 239 q 270 302 270 277 m 303 396 q 323 376 303 396 q 343 302 343 357 q 303 209 343 248 q 209 170 263 170 q 115 209 155 170 q 75 302 75 248 q 115 396 75 357 q 209 435 155 435 q 303 396 263 435 z "},"ႍ":{"ha":746,"x_min":75,"x_max":671,"o":"m 671 -240 l 75 -240 l 75 -114 l 671 -114 l 671 -240 z "},"ႎ":{"ha":795,"x_min":75,"x_max":719,"o":"m 552 423 q 397 502 491 502 q 243 423 301 502 q 397 366 311 366 q 552 423 484 366 m 591 289 q 586 321 591 307 q 397 259 510 259 q 208 321 285 259 q 201 290 201 305 q 254 162 201 225 q 395 99 308 99 q 538 162 484 99 q 591 289 591 225 m 625 533 q 672 485 625 533 q 719 301 719 437 q 625 69 719 165 q 397 -27 530 -27 q 168 68 262 -27 q 75 301 75 164 q 169 532 75 435 q 395 629 263 629 q 625 533 530 629 z "},"ႏ":{"ha":411,"x_min":71,"x_max":339,"o":"m 264 496 q 248 537 264 519 q 205 555 231 555 q 161 536 179 555 q 142 496 142 518 q 160 452 142 471 q 205 433 178 433 q 248 452 231 433 q 264 496 264 472 m 298 590 q 319 570 298 590 q 339 496 339 551 q 298 402 339 442 q 205 362 258 362 q 110 402 149 362 q 71 496 71 442 q 110 590 71 551 q 205 629 149 629 q 298 590 258 629 m 248 83 q 256 93 248 83 q 264 126 264 103 q 248 168 264 149 q 205 186 231 186 q 160 168 178 186 q 142 126 142 149 q 160 82 142 102 q 205 62 178 62 q 248 83 231 62 m 298 220 q 319 200 298 220 q 339 126 339 180 q 298 33 339 72 q 205 -7 258 -7 q 157 1 179 -7 q 192 -86 164 -39 q 251 -152 220 -133 l 233 -170 q 127 -65 183 -148 q 71 110 71 18 l 71 123 q 110 220 71 180 q 205 259 149 259 q 298 220 258 259 z "},"႐":{"ha":795,"x_min":75,"x_max":720,"o":"m 594 -301 l 594 301 q 537 446 594 388 q 396 503 480 503 q 256 446 313 503 q 199 301 199 388 l 199 -301 q 256 -447 199 -389 q 396 -505 313 -505 q 538 -448 481 -505 q 594 -301 594 -391 m 720 -305 q 633 -532 720 -434 q 396 -629 545 -629 q 162 -532 250 -629 q 75 -305 75 -434 l 75 301 q 163 529 75 429 q 396 629 251 629 q 632 529 544 629 q 720 301 720 429 l 720 -305 z "},"႑":{"ha":852,"x_min":75,"x_max":777,"o":"m 777 -431 l 363 -629 l 363 429 l 125 313 l 75 427 l 488 627 l 488 -431 l 727 -316 l 777 -431 z "},"႒":{"ha":806,"x_min":75,"x_max":731,"o":"m 731 301 q 702 157 731 224 q 626 41 673 91 q 523 -54 579 -8 q 410 -144 467 -99 q 306 -235 353 -189 q 230 -342 259 -281 q 201 -472 201 -403 l 201 -629 l 75 -629 l 75 -477 q 104 -314 75 -389 q 180 -184 133 -239 q 283 -81 227 -130 q 396 10 339 -33 q 500 95 453 53 q 576 190 547 137 q 605 301 605 243 q 546 442 605 380 q 407 505 487 505 q 258 435 316 505 q 201 233 201 366 l 75 233 l 75 628 l 199 628 l 199 551 q 407 628 285 628 q 636 532 541 628 q 731 301 731 435 z "},"႓":{"ha":913,"x_min":75,"x_max":838,"o":"m 838 -629 l 712 -629 l 712 -311 q 655 -168 712 -225 q 514 -110 598 -110 q 376 -156 433 -110 q 209 -629 213 -617 l 75 -629 l 524 625 l 652 625 l 433 4 q 514 16 475 16 q 748 -83 661 16 q 837 -311 836 -183 l 838 -629 z "},"႔":{"ha":1017,"x_min":75,"x_max":943,"o":"m 943 -431 l 529 -629 l 529 239 q 366 -199 498 159 q 206 -629 233 -557 l 75 -629 l 540 625 l 655 625 l 655 -431 l 894 -316 l 943 -431 z "},"႕":{"ha":890,"x_min":75,"x_max":815,"o":"m 606 -277 l 606 -99 l 463 -99 q 268 -155 335 -99 q 201 -301 201 -210 q 261 -446 202 -385 q 400 -506 320 -506 q 545 -441 484 -506 q 606 -277 606 -376 m 815 -99 l 731 -99 l 731 -277 q 635 -530 731 -431 q 400 -629 540 -629 q 170 -533 266 -629 q 75 -302 75 -437 q 175 -66 75 -159 q 463 27 275 27 l 606 27 l 606 628 l 731 628 l 731 27 l 815 27 l 815 -99 z "},"႖":{"ha":890,"x_min":75,"x_max":815,"o":"m 606 98 l 606 275 q 546 440 606 376 q 400 505 486 505 q 260 446 319 505 q 201 300 202 387 q 268 153 201 209 q 463 98 335 98 l 606 98 m 815 -27 l 731 -27 l 731 -629 l 606 -629 l 606 -27 l 463 -27 q 175 65 275 -27 q 75 301 75 157 q 170 532 75 435 q 400 628 266 628 q 635 530 540 628 q 731 275 731 431 l 731 98 l 815 98 l 815 -27 z "},"႗":{"ha":732,"x_min":75,"x_max":658,"o":"m 658 -629 l 127 -629 l 441 476 l 75 476 l 75 604 l 605 604 l 292 -505 l 658 -505 l 658 -629 z "},"႘":{"ha":806,"x_min":75,"x_max":731,"o":"m 595 -281 q 536 -125 595 -197 q 401 -54 476 -54 q 264 -125 324 -54 q 203 -281 203 -195 q 261 -440 203 -377 q 399 -503 319 -503 q 538 -440 480 -503 q 595 -281 595 -377 m 722 -281 q 629 -528 722 -426 q 401 -629 537 -629 q 175 -526 273 -629 q 77 -281 77 -423 q 119 -116 77 -194 q 232 9 160 -38 q 119 141 164 61 q 75 323 75 221 q 104 498 75 426 q 201 628 133 570 l 274 525 q 217 436 233 477 q 201 323 201 395 q 258 152 201 228 q 403 76 315 76 q 548 152 491 76 q 605 323 605 228 q 589 437 605 395 q 533 525 572 479 l 606 628 q 703 498 674 570 q 731 323 731 426 q 685 138 731 220 q 570 5 639 56 q 682 -118 643 -41 q 722 -281 722 -195 z "},"႙":{"ha":806,"x_min":75,"x_max":731,"o":"m 595 279 q 538 439 595 376 q 399 502 480 502 q 261 439 319 502 q 203 279 203 376 q 264 123 203 194 q 401 53 324 53 q 536 124 476 53 q 595 279 595 195 m 685 -139 q 708 -180 685 -139 q 731 -324 731 -221 q 703 -499 731 -427 q 606 -629 674 -571 l 533 -526 q 589 -438 572 -480 q 605 -324 605 -396 q 548 -153 605 -229 q 403 -77 491 -77 q 258 -153 315 -77 q 201 -324 201 -229 q 217 -437 201 -396 q 274 -526 233 -479 l 201 -629 q 104 -499 133 -571 q 75 -324 75 -427 q 119 -142 75 -222 q 232 -11 164 -62 q 119 115 160 37 q 77 279 77 193 q 175 525 77 422 q 401 628 273 628 q 629 526 537 628 q 722 279 722 425 q 682 117 722 194 q 570 -7 643 39 q 685 -139 639 -57 z "},"ႚ":{"ha":410,"x_min":71,"x_max":339,"o":"m 266 495 q 248 536 266 518 q 205 555 231 555 q 161 536 179 555 q 144 495 144 518 q 161 452 144 472 q 205 433 179 433 q 248 452 231 433 q 266 495 266 471 m 299 589 q 319 569 299 589 q 339 495 339 549 q 300 401 339 441 q 205 362 260 362 q 111 401 151 362 q 71 495 71 441 q 111 589 71 549 q 205 629 151 629 q 299 589 259 629 z "},"ႛ":{"ha":411,"x_min":71,"x_max":339,"o":"m 266 887 q 248 928 266 910 q 205 947 231 947 q 161 928 178 947 q 144 887 144 910 q 161 844 144 864 q 205 823 178 823 q 248 843 231 823 q 266 887 266 863 m 339 880 q 290 705 339 784 q 176 591 240 625 l 157 608 q 216 675 187 627 q 252 762 245 723 q 205 753 224 753 q 111 792 151 753 q 71 887 71 831 q 111 981 71 941 q 205 1020 151 1020 q 300 981 262 1020 q 339 880 339 943 z "},"ႜ":{"ha":579,"x_min":75,"x_max":503,"o":"m 270 125 q 252 170 270 151 q 208 189 233 189 q 165 169 183 189 q 148 125 148 149 q 165 83 148 100 q 208 66 182 66 q 252 84 233 66 q 270 125 270 102 m 503 96 l 487 79 q 420 138 467 111 q 331 172 373 165 q 342 125 342 153 q 302 33 342 72 q 208 -7 263 -7 q 114 33 153 -7 q 75 125 75 72 q 114 219 75 179 q 208 259 153 259 l 222 259 q 400 203 316 259 q 503 96 484 146 m 270 495 q 252 539 270 521 q 208 557 233 557 q 165 538 183 557 q 148 495 148 519 q 165 453 148 471 q 208 435 182 435 q 252 453 233 435 q 270 495 270 471 m 503 467 l 487 448 q 420 507 468 479 q 331 543 373 536 q 342 495 342 518 q 302 401 342 441 q 208 361 263 361 q 114 401 153 361 q 75 495 75 441 q 114 589 75 549 q 208 629 153 629 l 220 629 q 397 573 315 629 q 503 467 480 517 z "},"ႝ":{"ha":75,"x_min":-419,"x_max":-136,"o":"m -136 471 l -231 471 l -231 837 q -248 886 -231 865 q -296 906 -266 906 q -354 878 -330 906 l -419 936 q -290 1001 -369 1001 q -181 956 -227 1001 q -136 849 -136 911 l -136 471 z "},"႞":{"ha":433,"x_min":45,"x_max":502,"o":"m 277 890 q 259 930 277 911 q 216 948 241 948 q 172 930 189 948 q 155 890 155 913 q 172 846 155 865 q 216 826 189 826 q 259 845 241 826 q 277 890 277 864 m 350 890 q 310 795 350 834 q 216 755 270 755 q 121 795 161 755 q 81 890 81 834 q 121 983 81 944 q 216 1023 161 1023 q 310 983 270 1023 q 350 890 350 944 m 502 -629 l 214 -629 l 214 476 l 45 476 l 45 602 l 334 602 l 334 -503 l 502 -503 l 502 -629 z "},"႟":{"ha":1142,"x_min":75,"x_max":1063,"o":"m 1059 -414 q 1002 -563 1059 -496 q 854 -629 945 -629 q 707 -563 762 -629 q 651 -414 651 -496 l 651 214 q 574 427 651 353 q 401 502 498 502 q 260 441 319 502 q 201 293 201 381 q 235 176 201 228 q 324 99 270 125 l 273 -18 q 127 100 180 19 q 75 293 75 182 q 167 532 75 435 q 401 628 259 628 q 669 522 560 628 q 779 225 779 416 l 779 -414 q 802 -480 779 -457 q 854 -503 825 -503 q 909 -480 886 -503 q 933 -414 933 -457 l 933 521 q 898 641 933 589 q 813 728 863 693 q 714 796 764 762 q 629 879 665 830 q 594 991 594 928 q 669 1175 594 1104 q 852 1245 743 1245 q 989 1205 933 1245 q 1063 1107 1044 1165 l 958 1042 q 916 1097 945 1076 q 852 1119 887 1119 q 755 1083 789 1119 q 720 991 720 1047 q 745 931 720 960 q 808 878 770 902 q 890 821 846 854 q 971 751 933 788 q 1034 654 1009 713 q 1059 522 1059 594 l 1059 -414 z "},"​":{"ha":0,"x_min":0,"x_max":0,"o":""},"‌":{"ha":0,"x_min":0,"x_max":0,"o":""},"‍":{"ha":0,"x_min":0,"x_max":0,"o":""},"“":{"ha":682,"x_min":68,"x_max":627,"o":"m 627 903 q 593 819 627 854 q 515 784 560 784 q 431 819 464 784 q 399 903 399 854 q 445 1073 399 993 q 552 1188 491 1153 l 578 1168 q 515 1092 541 1139 q 490 991 490 1044 q 492 964 490 975 q 589 994 556 994 q 627 903 627 985 m 296 903 q 263 819 296 854 q 184 784 231 784 q 101 820 134 784 q 68 903 68 856 q 115 1073 68 993 q 222 1188 161 1153 l 248 1168 q 185 1091 212 1138 q 159 991 159 1044 q 161 964 159 975 q 258 994 229 994 q 296 903 296 985 z "},"”":{"ha":682,"x_min":54,"x_max":613,"o":"m 282 1069 q 236 899 282 979 q 129 784 190 818 l 104 804 q 165 880 140 831 q 191 981 191 928 q 190 1008 191 1001 q 95 978 126 978 q 54 1069 54 985 q 88 1153 54 1118 q 167 1188 122 1188 q 250 1153 217 1188 q 282 1069 282 1118 m 613 1069 q 566 899 613 979 q 460 784 519 818 l 434 804 q 496 880 469 831 q 522 981 522 928 q 519 1008 522 1001 q 423 978 456 978 q 385 1069 385 986 q 419 1153 385 1118 q 498 1188 453 1188 q 581 1153 548 1188 q 613 1069 613 1118 z "},"‘":{"ha":351,"x_min":68,"x_max":296,"o":"m 296 903 q 263 819 296 854 q 184 784 231 784 q 101 820 134 784 q 68 903 68 856 q 115 1073 68 993 q 222 1188 161 1153 l 248 1166 q 185 1092 212 1139 q 159 991 159 1044 q 161 964 159 975 q 258 994 229 994 q 296 903 296 985 z "},"’":{"ha":353,"x_min":54,"x_max":282,"o":"m 282 1069 q 236 899 282 979 q 129 784 190 818 l 104 804 q 165 880 140 831 q 191 981 191 928 q 190 1008 191 1002 q 95 978 126 978 q 54 1069 54 985 q 88 1153 54 1118 q 167 1188 122 1188 q 250 1153 217 1188 q 282 1069 282 1118 z "},"–":{"ha":644,"x_min":0,"x_max":644,"o":"m 644 236 l 0 236 l 0 362 l 644 362 l 644 236 z "},"—":{"ha":1142,"x_min":0,"x_max":1142,"o":"m 1142 236 l 0 236 l 0 362 l 1142 362 l 1142 236 z "},"⁠":{"ha":0,"x_min":0,"x_max":0,"o":""},"≠":{"ha":812,"x_min":50,"x_max":762,"o":"m 762 119 l 331 119 l 144 -92 l 50 -7 l 161 119 l 64 119 l 64 245 l 274 245 l 374 359 l 64 359 l 64 486 l 486 486 l 661 682 l 754 595 l 655 486 l 762 486 l 762 359 l 543 359 l 442 245 l 762 245 l 762 119 z "},"◌":{"ha":879,"x_min":75,"x_max":803,"o":"m 776 186 q 745 153 776 153 q 712 186 712 153 q 745 220 712 220 q 776 186 776 220 m 705 79 q 673 45 705 45 q 639 79 639 45 q 673 111 639 111 q 705 79 705 111 m 598 8 q 564 -23 598 -23 q 533 8 533 -23 q 564 41 533 41 q 598 8 598 41 m 471 -18 q 441 -47 471 -47 q 407 -18 407 -47 q 441 15 407 15 q 471 -18 471 15 m 346 8 q 313 -23 346 -23 q 279 8 279 -23 q 313 41 279 41 q 346 8 346 41 m 239 79 q 205 45 239 45 q 172 79 172 45 q 205 111 172 111 q 239 79 239 111 m 167 186 q 134 153 167 153 q 102 186 102 153 q 134 220 102 220 q 167 186 167 220 m 141 313 q 109 281 141 281 q 75 313 76 281 q 109 347 77 347 q 141 313 141 347 m 167 439 q 134 406 167 406 q 102 439 102 406 q 134 471 102 471 q 167 439 167 471 m 239 545 q 205 513 239 513 q 172 545 172 513 q 205 579 172 579 q 239 545 239 579 m 346 618 q 313 585 346 585 q 279 618 279 585 q 313 651 279 651 q 346 618 346 651 m 471 643 q 441 609 471 609 q 407 643 407 609 q 441 675 407 675 q 471 643 471 675 m 598 618 q 564 585 598 585 q 533 618 533 585 q 564 651 533 651 q 598 618 598 651 m 705 545 q 673 513 705 513 q 639 545 639 513 q 673 579 639 579 q 705 545 705 579 m 776 439 q 745 406 776 406 q 712 439 712 406 q 745 471 712 471 q 776 439 776 471 m 803 313 q 769 281 803 281 q 736 313 736 281 q 769 347 736 347 q 803 313 803 347 z "},"ᜀ":{"ha":879,"x_min":75,"x_max":803,"o":"m 776 186 q 745 153 776 153 q 712 186 712 153 q 745 220 712 220 q 776 186 776 220 m 705 79 q 673 45 705 45 q 639 79 639 45 q 673 111 639 111 q 705 79 705 111 m 598 8 q 564 -23 598 -23 q 533 8 533 -23 q 564 41 533 41 q 598 8 598 41 m 471 -18 q 441 -47 471 -47 q 407 -18 407 -47 q 441 15 407 15 q 471 -18 471 15 m 346 8 q 313 -23 346 -23 q 279 8 279 -23 q 313 41 279 41 q 346 8 346 41 m 239 79 q 205 45 239 45 q 172 79 172 45 q 205 111 172 111 q 239 79 239 111 m 167 186 q 134 153 167 153 q 102 186 102 153 q 134 220 102 220 q 167 186 167 220 m 141 313 q 109 281 141 281 q 75 313 76 281 q 109 347 77 347 q 141 313 141 347 m 167 439 q 134 406 167 406 q 102 439 102 406 q 134 471 102 471 q 167 439 167 471 m 239 545 q 205 513 239 513 q 172 545 172 513 q 205 579 172 579 q 239 545 239 579 m 346 618 q 313 585 346 585 q 279 618 279 585 q 313 651 279 651 q 346 618 346 651 m 471 643 q 441 609 471 609 q 407 643 407 609 q 441 675 407 675 q 471 643 471 675 m 598 618 q 564 585 598 585 q 533 618 533 585 q 564 651 533 651 q 598 618 598 651 m 705 545 q 673 513 705 513 q 639 545 639 513 q 673 579 639 579 q 705 545 705 579 m 776 439 q 745 406 776 406 q 712 439 712 406 q 745 471 712 471 q 776 439 776 471 m 803 313 q 769 281 803 281 q 736 313 736 281 q 769 347 736 347 q 803 313 803 347 z "},"꤮":{"ha":742,"x_min":75,"x_max":669,"o":"m 669 194 q 370 297 511 297 q 75 193 228 297 l 75 289 q 370 414 218 414 q 536 375 454 414 q 669 289 617 336 l 669 194 z "},"ꧠ":{"ha":798,"x_min":75,"x_max":723,"o":"m 251 403 q 258 410 251 403 q 264 434 264 416 q 251 465 264 452 q 221 477 237 477 q 190 464 203 477 q 176 434 176 450 q 190 402 176 415 q 221 389 203 389 q 251 403 237 389 m 483 115 q 412 166 458 148 q 315 184 365 184 q 225 165 269 184 q 296 113 248 130 q 393 95 343 95 q 483 115 446 95 m 723 301 q 629 70 723 167 q 393 -27 536 -27 q 181 38 273 -27 q 75 205 90 103 q 311 283 189 283 q 562 194 476 283 q 597 301 597 237 q 537 441 597 381 q 389 502 477 502 q 331 490 355 502 q 353 434 353 468 q 315 340 353 378 q 221 301 277 301 q 127 340 165 301 q 88 434 88 378 q 113 507 88 473 q 227 595 149 560 q 389 629 305 629 q 631 529 538 629 q 723 301 723 429 z "},"ꧡ":{"ha":1308,"x_min":75,"x_max":1233,"o":"m 1233 301 q 1136 69 1233 165 q 905 -27 1039 -27 q 642 83 745 -27 q 399 -27 545 -27 q 214 19 298 -27 q 92 151 129 65 l 201 210 q 399 99 271 99 q 549 168 498 99 q 601 300 601 237 q 572 393 601 354 q 454 307 524 338 q 319 277 384 277 q 196 299 263 277 q 75 363 129 321 q 176 547 79 464 q 399 629 273 629 q 634 531 541 629 q 727 302 727 433 q 709 197 727 245 q 905 99 787 99 q 1047 159 987 99 q 1107 301 1107 218 q 1048 443 1107 384 q 906 502 990 502 q 849 494 872 502 l 799 610 q 906 629 849 629 q 1137 532 1042 629 q 1233 301 1233 435 m 499 477 q 399 502 450 502 q 216 406 286 502 q 320 385 273 385 q 499 477 435 385 z "},"ꧢ":{"ha":1289,"x_min":75,"x_max":1214,"o":"m 705 301 q 684 183 705 241 q 887 99 768 99 q 990 132 944 99 q 1053 214 1036 164 q 833 332 914 227 q 751 582 751 437 l 751 595 q 886 629 802 629 q 1116 534 1019 629 q 1214 300 1214 438 q 1117 69 1214 165 q 887 -27 1020 -27 q 617 76 720 -27 q 378 -27 521 -27 q 199 21 281 -27 q 75 152 117 69 l 187 212 q 378 99 258 99 q 519 159 461 99 q 578 301 578 220 q 519 443 578 384 q 378 502 461 502 q 187 391 251 502 l 75 449 q 201 582 119 534 q 378 629 283 629 q 608 532 511 629 q 705 301 705 435 m 1077 313 q 1013 448 1072 396 q 878 500 955 500 l 867 500 q 940 370 882 423 q 1077 313 998 317 z "},"ꧣ":{"ha":1318,"x_min":75,"x_max":1244,"o":"m 246 401 q 253 407 246 401 q 259 431 259 414 q 246 463 259 449 q 216 476 233 476 q 184 463 198 476 q 171 431 171 449 q 184 401 171 414 q 216 388 198 388 q 246 401 233 388 m 746 194 q 921 95 802 95 q 1090 167 1040 95 q 746 194 1029 193 m 567 194 q 229 167 289 193 q 391 95 274 95 q 567 194 511 95 m 594 301 q 534 441 594 381 q 387 502 475 502 q 324 488 350 502 q 347 431 347 469 q 309 337 347 376 q 216 298 270 298 q 121 338 160 298 q 83 431 83 377 q 107 506 83 472 q 223 595 145 562 q 387 629 301 629 q 658 492 559 629 q 921 629 757 629 q 1097 582 1010 629 q 1221 449 1183 534 l 1111 391 q 921 502 1040 502 q 806 465 854 502 q 739 383 758 427 q 720 301 720 339 l 720 292 q 1076 275 970 290 q 1244 220 1183 259 q 1139 48 1232 123 q 921 -27 1046 -27 q 656 106 751 -27 q 391 -27 560 -27 q 175 43 263 -27 q 75 220 87 114 q 241 275 138 259 q 594 292 345 290 l 594 301 z "},"ꧤ":{"ha":1324,"x_min":75,"x_max":1249,"o":"m 1139 996 l 1077 887 q 926 926 1013 926 q 792 876 853 926 q 731 742 731 825 l 731 560 q 926 629 818 629 q 1155 532 1061 629 q 1249 300 1249 435 q 1156 69 1249 165 q 929 -27 1063 -27 q 774 13 846 -27 q 661 121 703 53 q 549 14 617 56 q 400 -27 481 -27 q 171 69 267 -27 q 75 300 75 165 q 171 532 75 435 q 400 629 267 629 q 495 612 460 629 l 448 495 q 400 502 427 502 q 259 443 317 502 q 201 300 201 384 q 260 159 201 218 q 400 99 319 99 q 538 169 477 99 q 606 304 598 239 l 606 742 q 703 964 606 876 q 925 1051 799 1051 q 1139 996 1050 1051 m 1124 300 q 1067 442 1124 382 q 929 502 1009 502 q 789 441 846 502 q 731 302 731 381 q 788 159 731 218 q 926 99 845 99 q 1066 159 1008 99 q 1124 300 1124 218 z "},"ꧥ":{"ha":75,"x_min":-321,"x_max":0,"o":"m -8 1035 l -75 986 q -146 1028 -102 1028 q -202 1005 -179 1028 q -225 948 -225 982 q -157 860 -225 888 q 0 769 -56 857 l -71 728 q -160 779 -109 779 q -251 728 -210 779 l -321 770 q -259 831 -294 810 q -308 948 -308 878 q -260 1060 -308 1010 q -146 1109 -212 1109 q -8 1035 -54 1109 z "},"ꧦ":{"ha":382,"x_min":-34,"x_max":442,"o":"m 228 734 l 142 734 l 357 1104 l 442 1104 l 228 734 m 49 734 l -34 734 l 180 1104 l 264 1104 l 49 734 z "},"ꧧ":{"ha":1328,"x_min":75,"x_max":1253,"o":"m 1253 301 q 1157 69 1253 165 q 928 -27 1061 -27 q 831 -9 868 -27 l 882 106 q 928 99 906 99 q 1069 159 1010 99 q 1127 301 1127 218 q 1069 443 1127 384 q 928 502 1010 502 q 783 430 845 502 q 720 275 720 358 l 720 -503 l 821 -503 l 821 -629 l 594 -629 l 594 271 q 532 443 594 382 q 393 503 469 503 q 254 459 308 503 q 201 376 201 415 q 219 326 201 347 q 264 290 237 305 q 316 258 290 275 q 360 210 342 240 q 378 136 378 179 q 329 16 378 58 q 208 -26 279 -26 q 128 -3 170 -26 q 75 52 87 20 l 170 110 q 212 87 184 87 q 247 100 233 87 q 260 136 260 113 q 241 170 260 156 q 195 197 222 184 q 140 229 168 210 q 94 284 113 247 q 75 376 75 321 q 165 549 75 469 q 393 629 255 629 q 548 588 476 629 q 665 476 620 547 q 777 587 708 544 q 928 629 845 629 q 1157 532 1061 629 q 1253 301 1253 435 z "},"ꧨ":{"ha":1324,"x_min":75,"x_max":1249,"o":"m 1139 996 l 1077 887 q 926 926 1013 926 q 792 876 853 926 q 731 742 731 825 l 731 560 q 926 629 818 629 q 1155 532 1061 629 q 1249 300 1249 435 q 1156 69 1249 165 q 929 -27 1063 -27 q 731 42 818 -27 l 731 -629 l 506 -629 l 506 -503 l 606 -503 l 606 57 q 400 -27 515 -27 q 171 69 267 -27 q 75 300 75 165 q 171 532 75 435 q 400 629 267 629 q 495 612 460 629 l 448 495 q 400 502 427 502 q 259 443 317 502 q 201 300 201 384 q 260 159 201 218 q 400 99 319 99 q 538 169 477 99 q 606 304 598 239 l 606 742 q 703 964 606 876 q 925 1051 799 1051 q 1139 996 1050 1051 m 1124 300 q 1067 442 1124 382 q 929 502 1009 502 q 789 441 846 502 q 731 302 731 381 q 788 159 731 218 q 926 99 845 99 q 1066 159 1008 99 q 1124 300 1124 218 z "},"ꧩ":{"ha":1335,"x_min":75,"x_max":1260,"o":"m 1001 364 q 1014 351 1001 364 q 1027 300 1027 338 q 1001 236 1027 262 q 937 210 975 210 q 874 236 901 210 q 848 300 848 262 q 874 364 848 338 q 937 391 901 391 q 1001 364 975 391 m 1260 301 q 1164 69 1260 165 q 936 -27 1069 -27 q 840 -9 872 -27 l 890 106 q 936 99 913 99 q 1077 159 1019 99 q 1135 301 1135 218 q 1077 443 1135 384 q 936 502 1019 502 q 791 429 850 502 q 731 274 731 357 q 702 100 731 172 q 606 -27 673 28 l 533 76 q 589 164 572 122 q 605 278 605 206 q 549 436 605 370 q 403 502 492 502 q 257 436 313 502 q 201 278 201 370 q 217 164 201 206 q 274 76 233 122 l 201 -27 q 104 102 133 28 q 75 278 75 175 q 170 526 75 425 q 403 628 264 628 q 559 587 488 628 q 673 473 631 545 q 781 586 713 543 q 936 629 849 629 q 1164 532 1069 629 q 1260 301 1260 435 z "},"ꧪ":{"ha":1325,"x_min":75,"x_max":1251,"o":"m 995 364 q 1008 351 995 364 q 1021 300 1021 338 q 995 236 1021 262 q 930 210 968 210 q 868 236 894 210 q 842 300 842 262 q 868 364 842 338 q 930 391 894 391 q 995 364 968 391 m 1251 301 q 1160 68 1251 163 q 929 -27 1069 -27 q 810 3 850 -27 l 869 114 q 929 99 905 99 q 1067 159 1009 99 q 1124 302 1124 218 q 1067 444 1124 385 q 929 502 1009 502 q 730 301 781 502 q 699 203 715 245 q 656 116 684 161 q 593 41 628 71 q 506 -8 559 11 q 387 -27 453 -27 q 164 68 254 -27 q 75 301 75 164 q 168 535 75 441 q 387 629 260 629 q 515 600 464 629 l 456 488 q 387 502 426 502 q 254 443 308 502 q 201 301 201 384 q 254 159 201 220 q 387 99 307 99 q 597 301 549 99 q 713 538 631 446 q 929 629 796 629 q 1160 534 1069 629 q 1251 301 1251 438 z "},"ꧫ":{"ha":1324,"x_min":75,"x_max":1249,"o":"m 989 365 q 1003 351 989 365 q 1016 300 1016 338 q 989 236 1016 262 q 925 210 963 210 q 863 237 890 210 q 837 300 837 263 q 863 365 837 338 q 925 392 890 392 q 989 365 963 392 m 1067 159 q 1096 189 1067 159 q 1124 301 1124 218 q 1066 443 1124 384 q 925 502 1008 502 q 787 442 844 502 q 731 298 731 382 q 789 159 731 218 q 929 99 846 99 q 1067 159 1009 99 m 1249 301 q 1155 68 1249 164 q 925 -27 1061 -27 q 699 71 791 -27 q 606 294 606 170 q 538 432 598 362 q 400 502 479 502 q 259 443 317 502 q 201 301 201 384 q 259 159 201 218 q 400 99 317 99 q 446 106 422 99 l 495 -9 q 400 -27 460 -27 q 170 69 266 -27 q 75 301 75 165 q 171 532 75 435 q 400 629 267 629 q 549 587 480 629 q 661 480 617 545 q 774 589 703 548 q 929 629 846 629 q 1155 532 1061 629 q 1249 301 1249 435 z "},"ꧬ":{"ha":1366,"x_min":75,"x_max":1291,"o":"m 1093 300 q 1067 238 1093 263 q 1005 213 1042 213 q 944 238 970 213 q 918 300 918 263 q 944 363 918 338 q 1005 389 970 389 q 1067 363 1042 389 q 1093 300 1093 338 m 1291 300 q 1205 68 1291 164 q 990 -27 1119 -27 q 857 3 907 -27 q 788 77 806 34 q 760 163 770 121 q 734 237 750 206 q 684 267 718 267 q 633 237 650 267 q 607 163 617 206 q 578 77 597 119 q 509 3 560 34 q 376 -27 458 -27 q 160 68 245 -27 q 75 300 75 164 q 151 534 75 439 q 355 628 227 628 q 431 608 401 628 l 403 490 q 355 502 385 502 q 239 439 278 502 q 201 300 201 376 q 248 155 201 212 q 376 99 296 99 q 452 130 425 99 q 493 203 480 160 q 521 290 506 247 q 576 363 536 332 q 684 393 616 393 q 791 363 751 393 q 846 289 831 332 q 874 203 861 245 q 914 130 887 160 q 990 99 941 99 q 1118 155 1070 99 q 1165 300 1165 212 q 1126 439 1165 376 q 1012 502 1088 502 q 963 490 982 502 l 935 608 q 1012 628 966 628 q 1215 534 1139 628 q 1291 300 1291 439 z "},"ꧭ":{"ha":1325,"x_min":75,"x_max":1251,"o":"m 1015 300 q 988 236 1015 262 q 924 210 962 210 q 861 236 887 210 q 834 300 834 262 q 861 366 834 339 q 924 392 887 392 q 988 366 962 392 q 1015 300 1015 339 m 487 300 q 460 236 487 262 q 396 210 434 210 q 334 237 361 210 q 308 300 308 263 q 334 366 308 339 q 396 392 359 392 q 460 366 434 392 q 487 300 487 339 m 593 298 q 536 441 593 381 q 399 502 480 502 q 259 442 317 502 q 201 301 201 382 q 258 159 201 218 q 395 99 316 99 q 535 159 477 99 q 593 298 593 218 m 1251 301 q 1154 69 1251 165 q 924 -27 1058 -27 q 829 -9 864 -27 l 879 106 q 924 99 899 99 q 1065 159 1006 99 q 1124 301 1124 218 q 1065 442 1124 382 q 924 502 1006 502 q 781 434 837 502 q 719 294 724 366 q 627 71 719 170 q 399 -27 534 -27 q 169 68 263 -27 q 75 301 75 164 q 169 532 75 435 q 395 629 263 629 q 549 589 477 629 q 663 480 620 548 q 924 629 761 629 q 1154 532 1057 629 q 1251 301 1251 435 z "},"ꧮ":{"ha":1316,"x_min":75,"x_max":1241,"o":"m 1009 300 q 983 236 1009 262 q 918 210 956 210 q 856 237 882 210 q 830 300 830 263 q 856 366 830 339 q 918 392 882 392 q 983 366 956 392 q 1009 300 1009 339 m 487 300 q 460 236 487 262 q 396 210 434 210 q 334 237 361 210 q 308 300 308 263 q 334 366 308 339 q 396 392 359 392 q 460 366 434 392 q 487 300 487 339 m 593 301 q 535 442 593 382 q 399 502 477 502 q 259 442 317 502 q 201 301 201 382 q 258 159 201 218 q 395 99 316 99 q 534 159 476 99 q 593 301 593 218 m 1116 301 q 1059 442 1116 382 q 921 502 1001 502 q 781 442 840 502 q 723 301 723 382 q 781 159 723 218 q 918 99 838 99 q 1058 159 1000 99 q 1116 301 1116 218 m 1241 301 q 1147 69 1241 165 q 921 -27 1054 -27 q 770 10 840 -27 q 659 113 701 47 q 545 10 613 47 q 399 -27 477 -27 q 169 68 263 -27 q 75 301 75 164 q 169 532 75 435 q 395 629 263 629 q 659 488 560 629 q 770 591 701 553 q 918 629 840 629 q 1147 532 1053 629 q 1241 301 1241 435 z "},"ꧯ":{"ha":977,"x_min":68,"x_max":902,"o":"m 712 294 q 687 235 712 259 q 627 210 662 210 q 567 235 591 210 q 543 294 543 259 q 567 356 543 331 q 627 381 591 381 q 687 356 662 381 q 712 294 712 331 m 426 164 q 399 238 426 206 q 332 285 372 270 q 330 254 330 266 q 349 163 330 209 q 401 94 368 118 q 426 164 426 115 m 902 278 q 873 102 902 174 q 776 -27 844 30 l 703 76 q 760 165 743 123 q 776 278 776 206 q 713 435 776 368 q 559 502 650 502 q 446 469 503 502 q 365 384 388 435 q 485 295 439 357 q 530 164 530 233 q 499 45 530 96 q 414 -30 468 -7 q 298 46 343 -5 q 235 155 252 98 q 217 275 217 212 q 221 330 217 304 q 68 545 68 400 q 75 602 68 571 l 182 602 q 175 548 175 578 q 189 493 175 518 q 216 457 203 468 q 252 431 229 446 q 382 579 294 530 q 559 628 471 628 q 800 526 699 628 q 902 278 902 423 z "},"ꧺ":{"ha":1325,"x_min":75,"x_max":1251,"o":"m 484 300 q 458 236 484 262 q 393 210 431 210 q 330 236 357 210 q 304 300 304 262 q 330 366 304 339 q 393 392 357 392 q 458 366 431 392 q 484 300 484 339 m 1251 301 q 1161 68 1251 164 q 939 -27 1072 -27 q 819 -8 872 -27 q 732 41 766 11 q 669 116 697 71 q 626 203 642 161 q 595 301 610 245 q 396 502 544 502 q 258 444 316 502 q 201 302 201 385 q 258 159 201 218 q 396 99 316 99 q 456 111 426 99 l 515 1 q 396 -27 468 -27 q 165 68 256 -27 q 75 301 75 163 q 165 534 75 438 q 396 629 256 629 q 612 538 529 629 q 728 301 694 446 q 939 99 776 99 q 1072 159 1019 99 q 1124 301 1124 220 q 1071 443 1124 384 q 939 502 1017 502 q 869 488 899 502 l 810 600 q 939 629 861 629 q 1158 535 1065 629 q 1251 301 1251 441 z "},"ꧻ":{"ha":1325,"x_min":75,"x_max":1251,"o":"m 1015 300 q 988 236 1015 262 q 924 210 962 210 q 861 236 887 210 q 834 300 834 262 q 861 366 834 339 q 924 392 887 392 q 988 366 962 392 q 1015 300 1015 339 m 593 298 q 536 441 593 381 q 399 502 480 502 q 259 442 317 502 q 201 301 201 382 q 258 159 201 218 q 395 99 316 99 q 535 159 477 99 q 593 298 593 218 m 1251 301 q 1154 69 1251 165 q 924 -27 1058 -27 q 829 -9 863 -27 l 879 106 q 924 99 902 99 q 1065 159 1006 99 q 1124 301 1124 218 q 1065 442 1124 382 q 924 502 1006 502 q 782 435 838 502 q 719 294 726 368 q 627 71 719 170 q 399 -27 534 -27 q 169 68 263 -27 q 75 301 75 164 q 169 532 75 435 q 395 629 263 629 q 549 589 477 629 q 663 480 621 548 q 774 588 707 547 q 924 629 841 629 q 1154 532 1057 629 q 1251 301 1251 435 z "},"ꧼ":{"ha":1316,"x_min":75,"x_max":1241,"o":"m 984 366 q 997 353 984 366 q 1010 301 1010 339 q 984 237 1010 263 q 920 210 958 210 q 857 237 883 210 q 830 301 830 263 q 857 366 830 339 q 920 393 883 393 q 984 366 958 393 m 593 301 q 535 442 593 382 q 399 502 477 502 q 259 442 317 502 q 201 301 201 382 q 258 159 201 218 q 395 99 316 99 q 534 159 476 99 q 593 301 593 218 m 1116 301 q 1059 442 1116 382 q 921 502 1001 502 q 781 442 840 502 q 723 301 723 382 q 781 159 723 218 q 918 99 838 99 q 1058 159 1000 99 q 1116 301 1116 218 m 1241 301 q 1147 69 1241 165 q 921 -27 1054 -27 q 770 10 840 -27 q 659 113 701 47 q 545 10 613 47 q 399 -27 477 -27 q 169 68 263 -27 q 75 301 75 164 q 169 532 75 435 q 395 629 263 629 q 659 488 560 629 q 770 591 701 553 q 918 629 840 629 q 1147 532 1053 629 q 1241 301 1241 435 z "},"ꧽ":{"ha":806,"x_min":75,"x_max":731,"o":"m 467 380 q 480 367 467 380 q 494 316 494 354 q 467 252 494 278 q 403 225 439 225 q 340 252 366 225 q 313 316 313 278 q 340 380 313 354 q 403 407 366 407 q 467 380 439 407 m 731 323 q 636 75 731 176 q 403 -27 541 -27 q 170 75 264 -27 q 75 323 75 176 q 104 498 75 426 q 201 628 133 570 l 274 525 q 217 436 233 477 q 201 323 201 395 q 257 165 201 231 q 403 99 313 99 q 549 165 492 99 q 605 323 605 231 q 589 437 605 395 q 533 525 572 479 l 606 628 q 703 498 674 570 q 731 323 731 426 z "},"ꧾ":{"ha":1324,"x_min":75,"x_max":1249,"o":"m 1139 971 l 1077 863 q 926 902 1013 902 q 792 851 853 902 q 731 718 731 800 l 731 560 q 926 629 818 629 q 1155 532 1061 629 q 1249 300 1249 435 q 1156 69 1249 165 q 929 -27 1063 -27 q 774 13 846 -27 q 661 121 703 53 q 549 14 617 56 q 400 -27 481 -27 q 171 69 267 -27 q 75 300 75 165 q 171 532 75 435 q 400 629 267 629 q 495 612 460 629 l 448 495 q 400 502 427 502 q 259 443 317 502 q 201 300 201 384 q 260 159 201 218 q 400 99 319 99 q 538 169 477 99 q 606 304 598 239 l 606 718 q 703 939 606 852 q 925 1027 799 1027 q 1139 971 1050 1027 m 1017 300 q 991 236 1017 262 q 928 210 964 210 q 865 236 891 210 q 838 300 838 262 q 865 366 838 339 q 928 392 891 392 q 991 366 964 392 q 1017 300 1017 339 m 1124 300 q 1067 442 1124 382 q 929 502 1009 502 q 789 441 846 502 q 731 302 731 381 q 788 159 731 218 q 926 99 845 99 q 1066 159 1008 99 q 1124 300 1124 218 z "},"꧰":{"ha":795,"x_min":75,"x_max":720,"o":"m 594 300 l 594 699 q 537 843 594 785 q 396 901 480 901 q 256 843 313 901 q 199 699 199 785 l 199 300 q 256 155 199 212 q 396 98 312 98 q 538 155 481 98 q 594 300 594 212 m 720 296 q 632 71 720 168 q 396 -27 544 -27 q 162 71 250 -27 q 75 296 75 168 l 75 699 q 163 926 75 826 q 396 1027 251 1027 q 632 926 544 1027 q 720 699 720 826 l 720 296 z "},"꧱":{"ha":817,"x_min":75,"x_max":742,"o":"m 244 730 q 251 736 244 730 q 258 761 258 743 q 245 791 258 779 q 213 804 232 804 q 182 791 195 804 q 170 761 170 779 q 182 730 170 743 q 213 716 195 716 q 244 730 231 716 m 742 785 q 631 614 742 667 l 564 715 q 618 785 618 739 q 559 869 618 831 q 410 906 499 906 q 269 868 317 906 l 274 868 q 345 761 345 840 q 306 668 345 707 q 213 629 267 629 q 113 669 151 629 q 75 779 75 709 q 170 960 75 890 q 410 1029 264 1029 q 649 960 556 1029 q 742 785 742 891 m 321 368 q 309 398 321 385 q 278 411 296 411 q 248 398 260 411 q 235 368 235 385 q 248 336 235 349 q 278 323 260 323 q 309 336 296 323 q 321 368 321 349 m 712 -27 l 475 -27 l 475 161 q 517 288 475 220 q 559 406 559 357 q 519 477 559 445 q 411 509 480 509 q 355 496 381 509 q 319 465 328 483 q 343 475 327 475 q 392 434 373 464 q 411 368 411 404 q 372 273 411 312 q 278 235 334 235 q 170 282 213 235 q 127 410 127 330 q 207 563 127 494 q 411 632 286 632 q 610 562 534 632 q 685 406 685 492 q 643 283 685 351 q 601 163 601 216 l 601 95 l 712 95 l 712 -27 z "},"꧲":{"ha":799,"x_min":75,"x_max":724,"o":"m 723 1019 l 723 949 q 682 787 723 860 q 724 623 724 718 q 688 454 724 519 q 612 389 651 389 q 584 406 601 389 q 548 444 567 423 q 490 482 529 465 q 399 499 450 499 q 257 443 313 499 q 201 301 201 387 q 257 157 201 216 q 399 98 313 98 q 576 202 518 98 l 681 136 q 564 18 640 62 q 399 -27 487 -27 q 169 68 263 -27 q 75 301 75 164 q 168 530 75 437 q 396 623 260 623 q 166 714 258 623 q 75 949 75 806 l 75 1019 l 201 1019 l 201 949 q 256 804 201 861 q 399 746 312 746 q 542 804 486 746 q 598 949 598 861 l 598 1019 l 723 1019 m 406 623 q 589 555 509 623 q 602 623 602 567 q 590 684 602 665 q 406 623 506 623 z "},"꧳":{"ha":800,"x_min":75,"x_max":726,"o":"m 726 225 q 633 46 726 119 q 395 -27 541 -27 q 197 22 282 -27 q 75 159 113 71 l 186 213 q 395 98 248 98 q 541 134 480 98 q 601 225 601 170 q 404 355 601 355 q 304 334 358 355 q 216 312 251 312 q 130 369 163 312 q 98 500 98 426 q 130 632 98 575 q 216 689 163 689 q 304 667 251 689 q 404 646 358 646 q 547 679 494 646 q 601 772 601 712 q 541 867 601 833 q 395 901 481 901 q 271 872 331 901 q 193 791 210 844 l 76 836 q 195 975 107 922 q 395 1027 283 1027 q 633 953 541 1027 q 726 772 726 879 q 639 585 726 650 q 404 521 552 521 q 311 538 359 521 q 250 556 263 556 q 222 500 222 556 q 250 445 222 445 q 312 463 264 445 q 404 480 359 480 q 639 415 552 480 q 726 225 726 350 z "},"꧴":{"ha":800,"x_min":75,"x_max":726,"o":"m 726 159 q 603 22 688 71 q 406 -27 518 -27 q 167 46 259 -27 q 75 225 75 119 q 161 415 75 350 q 396 480 248 480 q 492 463 441 480 q 557 445 543 445 q 585 500 585 445 q 557 556 585 556 q 492 538 544 556 q 396 521 441 521 q 161 585 248 521 q 75 772 75 650 q 167 953 75 879 q 406 1027 259 1027 q 605 975 517 1027 q 724 836 693 922 l 608 791 q 530 873 590 845 q 406 901 471 901 q 260 867 319 901 q 201 772 201 833 q 254 679 201 712 q 396 646 307 646 q 499 667 442 646 q 591 689 556 689 q 677 632 644 689 q 709 500 709 575 q 677 369 709 426 q 591 312 644 312 q 499 334 556 312 q 396 355 442 355 q 201 225 201 355 q 260 134 201 170 q 406 98 320 98 q 614 213 552 98 l 726 159 z "},"꧵":{"ha":807,"x_min":75,"x_max":732,"o":"m 732 278 q 703 106 732 176 q 606 -20 674 37 l 533 83 q 589 169 574 130 q 605 278 605 208 q 548 425 605 361 q 403 488 491 488 q 258 425 315 488 q 201 278 201 361 q 217 168 201 208 q 274 83 233 129 l 201 -20 q 104 106 133 37 q 75 278 75 176 l 75 279 l 75 699 q 165 927 75 827 q 401 1027 256 1027 q 587 972 509 1027 q 701 830 665 917 l 589 774 q 516 866 566 831 q 401 901 467 901 q 259 843 317 901 q 201 699 201 785 l 201 543 q 403 614 290 614 q 633 518 533 614 q 732 278 732 422 z "},"꧶":{"ha":807,"x_min":75,"x_max":732,"o":"m 608 1020 q 703 892 674 962 q 732 720 732 823 l 732 719 l 732 300 q 642 72 732 171 q 407 -27 551 -27 q 220 28 298 -27 q 106 168 142 83 l 220 225 q 292 133 241 168 q 407 98 342 98 q 549 156 490 98 q 608 300 608 214 l 608 456 q 404 384 518 384 q 174 480 274 384 q 75 720 75 576 q 104 892 75 823 q 202 1020 133 962 l 275 916 q 219 831 235 869 q 203 720 203 792 q 260 574 203 637 q 404 511 316 511 q 549 574 492 511 q 606 720 606 637 q 591 830 606 792 q 534 916 575 868 l 608 1020 z "},"꧷":{"ha":788,"x_min":75,"x_max":825,"o":"m 332 513 q 341 523 332 513 q 351 562 351 533 q 332 610 351 590 q 285 629 313 629 q 237 610 258 629 q 217 562 217 590 q 236 513 217 533 q 285 494 255 494 q 332 513 312 494 m 825 -27 l 587 -27 l 587 693 q 536 844 587 788 q 399 901 484 901 q 261 842 316 901 q 206 723 206 783 q 208 704 206 709 q 285 731 237 731 q 401 682 349 731 q 453 562 453 633 q 404 442 453 491 q 285 393 355 393 q 132 476 189 393 q 75 690 75 559 q 168 927 75 827 q 399 1027 260 1027 q 627 935 541 1027 q 712 693 712 842 l 712 95 l 825 95 l 825 -27 z "},"꧸":{"ha":802,"x_min":75,"x_max":727,"o":"m 597 873 l 547 757 q 400 789 477 789 q 260 762 307 789 q 214 688 214 734 q 270 564 214 625 q 399 494 326 503 l 414 494 q 643 427 559 494 q 727 241 727 361 q 630 47 727 121 q 387 -27 533 -27 q 157 34 239 -27 q 75 214 75 95 q 218 448 75 368 q 123 558 160 495 q 87 688 87 621 q 174 851 87 787 q 400 916 262 916 q 597 873 518 916 m 604 241 q 557 335 604 300 q 414 370 511 370 q 252 328 305 370 q 198 214 198 285 q 387 96 198 96 q 545 136 486 96 q 604 241 604 176 z "},"꧹":{"ha":1109,"x_min":75,"x_max":1035,"o":"m 232 463 q 201 302 201 396 q 233 161 201 210 q 311 111 264 111 q 434 168 373 111 q 505 298 495 225 l 505 312 q 574 543 505 457 q 765 629 644 629 q 960 534 886 629 q 1035 294 1035 439 q 970 59 1035 145 q 787 -27 906 -27 q 551 117 631 -27 q 441 21 505 57 q 311 -15 377 -15 q 143 75 212 -15 q 75 302 75 165 q 117 513 75 434 l 232 463 m 911 294 q 871 448 911 392 q 765 505 831 505 q 667 457 705 505 q 628 312 628 410 q 672 151 628 205 q 787 96 716 96 q 877 147 842 96 q 911 294 911 198 z "},"ꩠ":{"ha":1293,"x_min":75,"x_max":1218,"o":"m 1082 288 q 956 240 1012 286 q 871 100 901 199 q 1015 151 955 100 q 1082 288 1076 201 m 1218 301 q 1120 68 1218 164 q 890 -27 1023 -27 q 755 5 806 -27 q 887 309 758 193 q 1058 388 958 374 q 995 469 1042 437 q 892 502 948 502 q 703 430 792 502 q 731 279 731 365 q 702 102 731 174 q 606 -27 673 30 l 533 76 q 589 163 574 122 q 605 278 605 205 q 547 435 605 368 q 403 502 488 502 q 260 438 320 502 q 201 278 201 374 q 217 165 201 206 q 274 76 233 123 l 201 -27 q 104 102 133 30 q 75 278 75 174 q 170 526 75 423 q 403 628 264 628 q 629 533 529 628 q 892 629 746 629 q 1122 532 1025 629 q 1218 301 1218 435 z "},"ꩡ":{"ha":1325,"x_min":85,"x_max":1251,"o":"m 1124 301 q 1066 442 1124 382 q 929 502 1008 502 q 790 442 848 502 q 732 301 732 382 q 790 159 732 218 q 928 99 848 99 q 1067 159 1009 99 q 1124 301 1124 218 m 1251 301 q 1157 69 1251 165 q 929 -27 1063 -27 q 692 79 787 -27 q 606 -27 656 14 l 533 76 q 606 275 606 153 q 545 441 606 380 q 404 503 483 503 q 265 458 319 503 q 212 376 212 414 q 230 326 212 347 q 273 288 248 304 q 324 256 298 273 q 368 210 350 239 q 387 140 387 180 q 338 17 387 60 q 218 -26 290 -26 q 145 -5 186 -26 q 85 52 104 15 l 182 110 q 221 87 195 87 q 274 140 274 87 q 254 174 274 160 q 207 199 235 187 q 152 229 179 212 q 105 284 125 247 q 85 376 85 321 q 176 549 85 468 q 404 629 266 629 q 553 592 484 629 q 666 488 621 555 q 777 591 708 553 q 928 629 845 629 q 1156 532 1062 629 q 1251 301 1251 435 z "},"ꩢ":{"ha":888,"x_min":75,"x_max":814,"o":"m 814 300 q 747 68 814 164 q 579 -27 680 -27 q 477 11 522 -27 q 411 94 433 49 q 367 178 389 140 q 328 216 345 216 q 304 201 317 216 q 274 159 290 187 q 245 107 258 132 q 214 45 232 83 q 187 -7 195 8 l 75 -7 l 75 602 l 195 602 l 195 237 q 264 319 233 300 q 328 339 294 339 q 410 302 372 339 q 472 219 449 264 q 524 136 495 174 q 579 99 552 99 q 656 158 624 99 q 688 300 688 217 q 639 453 688 404 q 528 502 590 502 q 481 487 498 502 l 431 600 q 528 628 469 628 q 736 534 659 628 q 814 300 814 439 z "},"ꩣ":{"ha":1332,"x_min":75,"x_max":1257,"o":"m 614 286 q 578 410 614 350 q 506 270 506 347 q 549 129 506 187 q 614 286 614 194 m 1131 301 q 1074 442 1131 382 q 937 502 1016 502 q 797 443 854 502 q 739 301 739 384 q 796 159 739 218 q 933 99 853 99 q 1074 158 1016 99 q 1131 301 1131 217 m 1257 301 q 1164 68 1257 164 q 937 -27 1070 -27 q 686 100 785 -27 q 570 -27 648 35 q 453 81 509 3 q 397 270 397 160 q 490 477 397 382 q 406 502 454 502 q 258 459 315 502 q 201 376 201 416 q 218 326 201 347 q 259 288 235 304 q 308 256 283 273 q 349 210 332 239 q 366 140 366 180 q 322 17 366 60 q 208 -26 278 -26 q 134 -5 175 -26 q 75 52 94 15 l 171 110 q 208 87 184 87 q 240 100 227 87 q 254 140 254 114 q 235 174 254 160 q 191 199 217 187 q 138 229 164 212 q 93 284 111 247 q 75 376 75 321 q 168 547 75 467 q 406 628 262 628 q 556 590 487 628 q 671 486 625 552 q 785 591 716 552 q 933 629 853 629 q 1163 533 1069 629 q 1257 301 1257 437 z "},"ꩤ":{"ha":1325,"x_min":75,"x_max":1251,"o":"m 1123 301 q 1066 442 1123 382 q 930 502 1009 502 q 789 441 845 502 q 732 296 732 381 q 790 158 732 217 q 926 99 848 99 q 1065 159 1008 99 q 1123 301 1123 218 m 1156 533 q 1203 485 1156 533 q 1251 301 1251 437 q 1157 69 1251 165 q 930 -27 1063 -27 q 783 12 852 -27 q 667 117 713 50 q 403 -27 572 -27 q 170 75 264 -27 q 75 321 75 176 q 104 496 75 425 q 201 627 133 568 l 274 524 q 217 435 233 476 q 201 323 201 395 q 260 163 201 227 q 403 100 320 100 q 548 166 491 100 q 605 323 605 232 q 589 437 605 396 q 533 525 574 479 l 606 629 q 693 521 665 579 q 926 629 788 629 q 1156 533 1062 629 z "},"ꩥ":{"ha":1358,"x_min":75,"x_max":1283,"o":"m 1283 301 q 1187 69 1283 165 q 956 -27 1090 -27 q 861 -9 898 -27 l 910 106 q 956 99 933 99 q 1097 159 1039 99 q 1156 301 1156 218 q 1097 442 1156 382 q 956 502 1038 502 q 833 446 888 502 q 755 326 779 389 q 731 218 731 263 l 731 -380 q 658 -557 731 -486 q 471 -629 585 -629 l 267 -629 q 137 -590 179 -629 q 95 -467 95 -551 l 95 -382 l 221 -382 l 221 -434 q 282 -503 221 -503 l 465 -503 q 564 -468 524 -503 q 604 -366 604 -433 l 604 49 q 403 -27 530 -27 q 170 75 264 -27 q 75 323 75 176 q 104 498 75 426 q 201 628 133 570 l 274 525 q 217 436 233 477 q 201 323 201 395 q 257 165 201 231 q 403 99 313 99 q 547 164 490 99 q 605 320 605 229 q 591 433 605 395 q 533 525 576 471 l 606 628 q 704 494 678 568 q 956 629 814 629 q 1186 532 1089 629 q 1283 301 1283 435 z "},"ꩦ":{"ha":1325,"x_min":75,"x_max":1251,"o":"m 487 300 q 460 236 487 262 q 396 210 434 210 q 334 237 361 210 q 308 300 308 263 q 334 366 308 339 q 396 392 359 392 q 460 366 434 392 q 487 300 487 339 m 593 298 q 536 441 593 381 q 399 502 480 502 q 259 442 317 502 q 201 301 201 382 q 258 159 201 218 q 395 99 316 99 q 535 159 477 99 q 593 298 593 218 m 1251 301 q 1154 69 1251 165 q 924 -27 1058 -27 q 829 -9 864 -27 l 879 106 q 924 99 899 99 q 1065 159 1006 99 q 1124 301 1124 218 q 1065 442 1124 382 q 924 502 1006 502 q 784 431 844 502 q 719 294 724 361 q 627 71 719 170 q 399 -27 534 -27 q 169 68 263 -27 q 75 301 75 164 q 169 532 75 435 q 395 629 263 629 q 549 589 477 629 q 663 480 620 548 q 775 587 707 545 q 924 629 844 629 q 1154 532 1057 629 q 1251 301 1251 435 z "},"ꩧ":{"ha":1317,"x_min":75,"x_max":1241,"o":"m 487 300 q 460 236 487 262 q 396 210 434 210 q 334 237 361 210 q 308 300 308 263 q 334 366 308 339 q 396 392 359 392 q 460 366 434 392 q 487 300 487 339 m 593 301 q 535 442 593 382 q 399 502 477 502 q 259 442 317 502 q 201 301 201 382 q 258 159 201 218 q 395 99 316 99 q 534 159 476 99 q 593 301 593 218 m 1116 301 q 1059 442 1116 382 q 921 502 1001 502 q 781 442 840 502 q 723 301 723 382 q 781 159 723 218 q 918 99 838 99 q 1058 159 1000 99 q 1116 301 1116 218 m 1241 301 q 1147 69 1241 165 q 921 -27 1054 -27 q 770 10 840 -27 q 659 113 701 47 q 545 10 613 47 q 399 -27 477 -27 q 169 68 263 -27 q 75 301 75 164 q 169 532 75 435 q 395 629 263 629 q 659 488 560 629 q 770 591 701 553 q 918 629 840 629 q 1147 532 1053 629 q 1241 301 1241 435 z "},"ꩨ":{"ha":1291,"x_min":75,"x_max":1214,"o":"m 487 300 q 460 236 487 262 q 396 210 434 210 q 334 237 361 210 q 308 300 308 263 q 334 366 308 339 q 396 392 359 392 q 460 366 434 392 q 487 300 487 339 m 593 301 q 535 442 593 382 q 399 502 477 502 q 259 442 317 502 q 201 301 201 382 q 258 159 201 218 q 395 99 316 99 q 534 159 476 99 q 593 301 593 218 m 1081 288 q 956 240 1008 282 q 871 100 898 197 l 882 100 q 1017 153 959 100 q 1081 288 1074 206 m 1214 301 q 1116 68 1214 163 q 882 -27 1019 -27 q 754 5 806 -27 q 878 301 765 203 q 1055 388 952 368 q 990 471 1036 439 q 884 502 944 502 q 694 422 788 502 q 719 301 719 362 q 625 68 719 164 q 399 -27 532 -27 q 169 68 263 -27 q 75 301 75 164 q 169 532 75 435 q 395 629 263 629 q 628 532 524 629 q 884 629 736 629 q 1118 533 1023 629 q 1214 301 1214 437 z "},"ꩩ":{"ha":1316,"x_min":75,"x_max":1241,"o":"m 487 300 q 460 236 487 262 q 396 210 434 210 q 334 237 361 210 q 308 300 308 263 q 334 366 308 339 q 396 392 359 392 q 460 366 434 392 q 487 300 487 339 m 593 301 q 535 442 593 382 q 399 502 477 502 q 259 442 317 502 q 201 301 201 382 q 258 159 201 218 q 395 99 315 99 q 534 159 476 99 q 593 301 593 218 m 966 104 q 867 214 925 180 q 727 250 806 250 q 796 140 742 182 q 920 99 850 99 q 966 104 947 99 m 1115 301 q 1057 443 1115 384 q 918 502 1000 502 q 796 461 848 502 q 730 359 745 420 q 930 300 840 357 q 1055 163 1009 251 q 1115 301 1115 214 m 1241 301 q 1147 68 1241 164 q 918 -27 1054 -27 q 769 10 841 -27 q 656 110 697 47 q 546 10 617 47 q 399 -27 475 -27 q 169 68 263 -27 q 75 301 75 164 q 169 532 75 435 q 395 629 263 629 q 656 490 563 629 q 917 629 751 629 q 1146 532 1051 629 q 1241 301 1241 435 z "},"ꩪ":{"ha":1316,"x_min":75,"x_max":1241,"o":"m 593 301 q 535 442 593 382 q 399 502 477 502 q 259 442 317 502 q 201 301 201 382 q 258 159 201 218 q 395 99 315 99 q 534 159 476 99 q 593 301 593 218 m 966 104 q 867 214 933 178 q 727 250 803 250 q 796 140 742 182 q 920 99 850 99 q 966 104 954 99 m 1115 301 q 1057 442 1115 382 q 918 502 998 502 q 796 461 848 502 q 730 359 745 420 q 930 300 841 359 q 1055 163 1008 250 q 1115 301 1115 218 m 1241 301 q 1147 68 1241 164 q 918 -27 1054 -27 q 768 10 840 -27 q 656 110 697 47 q 547 10 617 47 q 399 -27 477 -27 q 169 68 263 -27 q 75 301 75 164 q 169 532 75 435 q 395 629 263 629 q 656 490 563 629 q 770 592 701 555 q 917 629 838 629 q 1146 532 1051 629 q 1241 301 1241 435 z "},"ꩫ":{"ha":962,"x_min":77,"x_max":886,"o":"m 437 164 q 410 238 437 206 q 343 285 382 270 q 339 254 339 271 q 358 163 339 209 q 411 94 377 118 q 437 164 437 117 m 886 278 q 857 102 886 174 q 760 -27 827 30 l 686 76 q 742 165 726 123 q 758 278 758 206 q 702 436 758 370 q 556 502 646 502 q 450 469 502 502 q 376 384 399 435 q 494 295 449 357 q 540 164 540 233 q 509 45 540 96 q 423 -30 477 -7 q 274 90 321 5 q 227 275 227 175 q 232 330 227 307 q 77 545 77 399 q 84 602 77 555 l 191 602 q 186 548 186 572 q 199 493 186 518 q 226 457 213 468 q 262 431 239 446 q 386 579 304 530 q 556 628 468 628 q 790 526 694 628 q 886 278 886 425 z "},"ꩬ":{"ha":1367,"x_min":75,"x_max":1291,"o":"m 1291 300 q 1205 68 1291 164 q 990 -27 1119 -27 q 857 3 907 -27 q 788 77 806 34 q 760 163 770 121 q 734 237 750 206 q 684 267 718 267 q 633 237 650 267 q 607 163 617 206 q 578 77 597 119 q 509 3 560 34 q 376 -27 458 -27 q 160 68 245 -27 q 75 300 75 164 q 151 534 75 439 q 355 628 227 628 q 431 608 401 628 l 403 490 q 355 502 385 502 q 239 439 278 502 q 201 300 201 376 q 248 155 201 212 q 376 99 296 99 q 452 130 425 99 q 493 203 480 160 q 521 290 506 247 q 576 363 536 332 q 684 393 616 393 q 791 363 751 393 q 846 289 831 332 q 874 203 861 245 q 914 130 887 160 q 990 99 941 99 q 1118 155 1070 99 q 1165 300 1165 212 q 1126 439 1165 376 q 1012 502 1088 502 q 963 490 982 502 l 935 608 q 1012 628 966 628 q 1215 534 1139 628 q 1291 300 1291 439 z "},"ꩭ":{"ha":1112,"x_min":-15,"x_max":1038,"o":"m 370 444 q 348 498 370 475 q 293 521 326 521 q 238 498 260 521 q 216 444 216 476 q 238 388 216 410 q 293 366 260 366 q 348 389 326 366 q 370 444 370 411 m 1038 301 q 942 69 1038 165 q 712 -27 846 -27 q 616 -9 655 -27 l 666 106 q 712 99 689 99 q 853 159 795 99 q 911 301 911 218 q 853 442 911 382 q 712 502 795 502 q 576 443 640 502 q 486 311 513 384 l 486 -376 q 412 -557 486 -486 q 231 -629 339 -629 l 157 -629 q 26 -588 66 -629 q -15 -463 -15 -547 l -15 -382 l 111 -382 l 111 -437 q 172 -503 111 -503 l 228 -503 q 320 -469 281 -503 q 359 -366 359 -434 l 359 271 q 292 259 328 259 q 170 313 227 259 q 114 444 114 366 q 167 579 114 529 q 292 629 220 629 q 401 595 354 629 q 468 503 449 560 q 712 629 567 629 q 941 532 845 629 q 1038 301 1038 435 z "},"ꩮ":{"ha":1325,"x_min":75,"x_max":1251,"o":"m 414 100 q 328 240 385 198 q 203 288 267 288 q 266 155 208 209 q 404 100 324 100 l 414 100 m 1251 301 q 1161 68 1251 164 q 939 -27 1072 -27 q 796 0 857 -27 q 696 77 735 27 q 635 180 658 127 q 595 301 613 232 q 395 502 541 502 q 298 471 340 502 q 235 388 255 439 q 414 298 347 365 q 537 5 533 191 q 403 -27 488 -27 q 172 68 270 -27 q 75 301 75 164 q 167 533 75 437 q 396 629 259 629 q 611 538 529 629 q 728 301 693 448 q 939 99 779 99 q 1072 158 1019 99 q 1124 301 1124 217 q 1072 443 1124 384 q 939 502 1019 502 q 869 488 901 502 l 810 600 q 939 629 860 629 q 1158 536 1065 629 q 1251 301 1251 442 z "},"ꩯ":{"ha":1012,"x_min":75,"x_max":936,"o":"m 810 301 q 752 442 810 382 q 616 502 694 502 q 476 442 534 502 q 418 301 418 382 q 475 159 418 218 q 612 99 533 99 q 752 159 694 99 q 810 301 810 218 m 842 533 q 889 485 842 533 q 936 301 936 437 q 842 69 936 165 q 616 -27 747 -27 q 392 66 491 -27 q 293 294 293 160 l 293 315 q 195 439 256 365 l 195 0 l 75 0 l 75 610 l 187 610 q 330 450 289 499 q 449 583 373 536 q 612 629 525 629 q 842 533 747 629 z "},"ꩰ":{"ha":779,"x_min":81,"x_max":696,"o":"m 651 861 l 586 789 q 389 894 506 894 q 193 789 269 894 l 127 861 q 389 991 231 991 q 651 861 548 991 m 696 1100 l 632 1027 q 389 1137 526 1137 q 145 1027 259 1137 l 81 1099 q 389 1234 225 1234 q 696 1100 555 1234 z "},"ꩱ":{"ha":1336,"x_min":75,"x_max":1260,"o":"m 309 270 q 239 410 309 349 q 201 278 201 355 q 266 129 201 199 q 309 270 309 190 m 1260 301 q 1164 69 1260 165 q 935 -27 1069 -27 q 838 -9 879 -27 l 888 106 q 935 99 911 99 q 1076 159 1017 99 q 1134 301 1134 218 q 1076 443 1134 384 q 935 502 1017 502 q 803 439 863 502 q 730 302 743 376 q 730 288 730 297 q 731 274 731 278 q 701 100 730 172 q 606 -27 673 27 l 533 76 q 588 161 571 117 q 605 277 605 205 q 546 438 605 374 q 403 502 487 502 q 323 480 358 502 q 416 270 416 387 q 361 81 416 160 q 244 -27 305 1 q 75 278 75 113 q 171 527 75 426 q 403 628 267 628 q 556 588 486 628 q 670 477 627 548 q 935 629 787 629 q 1164 532 1067 629 q 1260 301 1260 435 z "},"ꩲ":{"ha":1644,"x_min":75,"x_max":1568,"o":"m 258 225 q 191 317 240 289 q 165 247 165 285 q 191 152 165 193 q 254 100 217 111 q 263 171 263 130 q 258 225 263 203 m 1384 159 q 1413 189 1384 159 q 1442 301 1442 218 q 1385 443 1442 384 q 1248 502 1328 502 q 1107 442 1162 502 q 1053 296 1053 382 q 1111 158 1053 217 q 1246 99 1169 99 q 1384 159 1326 99 m 1568 301 q 1475 69 1568 165 q 1248 -27 1382 -27 q 1010 80 1107 -27 q 925 -27 986 24 l 852 77 q 907 164 891 122 q 924 279 924 206 q 868 437 924 372 q 723 502 812 502 q 576 434 632 502 q 521 279 521 366 q 513 125 521 171 q 327 -27 480 -27 q 149 48 224 -27 q 75 244 75 123 q 112 363 75 311 q 182 437 149 415 q 283 366 228 422 q 346 235 338 309 q 353 172 353 198 q 342 96 353 133 q 381 134 370 106 q 393 279 393 182 q 486 524 393 418 q 723 629 578 629 q 871 592 803 629 q 983 488 939 555 q 1096 591 1027 553 q 1246 629 1165 629 q 1474 532 1381 629 q 1568 301 1568 435 z "},"ꩳ":{"ha":886,"x_min":75,"x_max":811,"o":"m 811 300 q 747 69 811 165 q 576 -27 684 -27 q 490 1 533 -27 q 406 83 446 30 q 332 186 365 136 q 259 304 300 236 q 195 406 218 372 l 195 0 l 75 0 l 75 610 l 187 610 q 324 416 236 552 q 479 190 412 281 q 576 99 545 99 q 654 159 624 99 q 685 300 685 220 q 636 453 685 404 q 525 502 587 502 q 479 487 495 502 l 429 600 q 525 628 467 628 q 734 534 656 628 q 811 300 811 439 z "},"ꩴ":{"ha":1100,"x_min":75,"x_max":1016,"o":"m 644 316 q 617 445 644 389 q 559 500 590 500 q 555 483 555 500 l 555 136 q 644 316 644 199 m 378 -532 q 426 -509 401 -532 q 452 -442 450 -486 l 452 -431 q 378 -393 422 -393 q 332 -415 351 -393 q 312 -461 312 -437 q 333 -512 312 -492 q 378 -532 354 -532 m 1016 1107 l 910 1042 q 802 1119 879 1119 q 707 1083 741 1119 q 673 991 673 1047 q 707 922 673 955 q 791 857 742 888 q 890 785 841 825 q 975 676 940 745 q 1009 519 1009 608 l 1009 -362 q 938 -562 1009 -494 q 754 -629 867 -629 q 634 -605 699 -629 q 528 -528 570 -581 q 378 -629 468 -629 q 267 -583 319 -629 q 214 -461 214 -537 q 267 -340 214 -385 q 378 -294 319 -294 q 444 -309 415 -294 l 444 -30 q 403 -34 423 -34 q 169 69 263 -34 q 75 316 75 172 q 104 498 75 425 q 201 628 134 571 l 274 525 q 218 439 235 483 q 201 316 201 396 q 258 159 201 225 q 403 92 315 92 q 444 98 427 92 l 444 458 q 560 631 444 631 q 688 547 620 631 q 757 316 757 464 q 703 119 757 202 q 556 -5 650 35 l 556 -369 q 639 -466 582 -427 q 754 -505 696 -505 q 861 -454 837 -505 q 884 -298 884 -403 l 884 519 q 859 623 884 576 q 797 698 834 669 q 715 760 760 727 q 634 821 671 792 q 572 893 597 849 q 547 991 547 937 q 620 1175 547 1104 q 802 1245 693 1245 q 937 1206 879 1245 q 1016 1107 994 1168 z "},"ꩵ":{"ha":1542,"x_min":75,"x_max":1476,"o":"m 807 -532 q 852 -509 830 -532 q 876 -442 875 -487 l 876 -431 q 807 -393 848 -393 q 760 -415 780 -393 q 741 -461 741 -437 q 762 -512 741 -492 q 807 -532 783 -532 m 1476 1107 l 1370 1042 q 1329 1098 1358 1077 q 1263 1119 1301 1119 q 1166 1083 1200 1119 q 1133 991 1133 1047 q 1167 921 1133 955 q 1251 855 1202 887 q 1350 784 1301 823 q 1433 679 1398 745 q 1468 529 1468 613 l 1468 -362 q 1394 -564 1468 -499 q 1210 -629 1320 -629 q 954 -530 1043 -629 q 807 -629 901 -629 q 695 -583 747 -629 q 643 -461 643 -537 q 695 -340 643 -385 q 807 -294 747 -294 q 871 -311 842 -294 l 871 102 q 926 99 891 99 q 1061 159 1008 99 q 1115 301 1115 220 q 1057 442 1115 382 q 920 502 1000 502 q 783 439 841 502 q 723 281 724 376 q 595 -27 722 90 l 522 76 q 597 282 597 156 q 534 441 597 380 q 393 502 471 502 q 254 458 308 502 q 201 376 201 414 q 219 326 201 347 q 262 288 237 304 q 313 256 288 273 q 357 210 339 239 q 376 140 376 180 q 328 17 376 60 q 208 -26 279 -26 q 131 -4 170 -26 q 75 52 92 18 l 171 110 q 208 87 180 87 q 260 140 260 87 q 241 174 260 160 q 195 199 222 187 q 140 229 168 212 q 94 283 113 245 q 75 376 75 320 q 165 547 75 467 q 393 628 255 628 q 545 589 475 628 q 658 481 614 551 q 770 589 703 549 q 917 629 838 629 q 1146 532 1051 629 q 1241 301 1241 435 q 1168 90 1241 179 q 985 -22 1095 0 l 985 -370 q 1074 -463 1006 -422 q 1210 -505 1141 -505 q 1320 -454 1295 -505 q 1344 -289 1344 -404 l 1344 526 q 1310 642 1344 591 q 1225 727 1275 693 q 1125 795 1175 761 q 1041 880 1076 830 q 1006 991 1006 929 q 1080 1175 1006 1104 q 1263 1245 1154 1245 q 1398 1206 1340 1245 q 1476 1107 1455 1168 z "},"ꩶ":{"ha":1652,"x_min":90,"x_max":1583,"o":"m 896 -512 q 906 -522 896 -512 q 940 -532 917 -532 q 987 -509 963 -532 q 1013 -445 1012 -487 l 1013 -431 q 940 -393 983 -393 q 894 -415 913 -393 q 875 -461 875 -437 q 896 -512 875 -492 m 1583 1107 l 1477 1042 q 1369 1119 1447 1119 q 1273 1083 1306 1119 q 1240 991 1240 1047 q 1274 920 1240 954 q 1358 856 1309 887 q 1457 785 1408 825 q 1540 677 1506 746 q 1575 519 1575 609 l 1575 -362 q 1500 -564 1575 -499 q 1316 -629 1426 -629 q 1088 -528 1176 -629 q 940 -629 1031 -629 q 828 -584 880 -629 q 776 -461 776 -538 q 828 -340 776 -385 q 940 -294 880 -294 q 1004 -311 975 -294 l 1004 102 q 1051 99 1028 99 q 1185 160 1133 99 q 1238 301 1238 221 q 1181 444 1238 385 q 1025 502 1123 502 q 831 411 926 502 q 736 209 736 320 l 736 -366 q 666 -549 736 -473 q 487 -629 590 -629 l 296 -629 q 168 -571 213 -629 q 122 -439 122 -513 q 176 -307 122 -361 q 311 -254 231 -254 q 437 -289 393 -254 l 376 -399 q 311 -380 340 -380 q 265 -397 282 -380 q 248 -439 248 -414 q 267 -486 248 -468 q 320 -503 285 -503 l 452 -503 q 526 -494 500 -503 q 574 -464 551 -486 q 610 -351 610 -427 l 610 279 q 549 438 610 374 q 406 502 487 502 q 288 464 346 502 q 201 355 229 426 l 90 412 q 170 537 115 487 q 284 608 225 587 q 406 628 343 628 q 585 578 505 628 q 700 446 665 529 q 846 582 755 534 q 1025 629 937 629 q 1265 537 1165 629 q 1366 301 1366 445 q 1296 92 1366 183 q 1118 -20 1226 1 l 1118 -370 q 1195 -465 1141 -425 q 1316 -505 1249 -505 q 1426 -454 1401 -505 q 1451 -289 1451 -404 l 1451 519 q 1416 640 1451 587 q 1331 726 1381 692 q 1232 793 1282 760 q 1147 877 1183 827 q 1112 991 1112 926 q 1186 1175 1112 1104 q 1369 1245 1260 1245 q 1505 1206 1447 1245 q 1583 1107 1563 1168 z "},"꩷":{"ha":1252,"x_min":75,"x_max":1184,"o":"m 1184 0 l 890 0 l 890 476 l 701 476 q 779 225 779 372 l 779 -502 l 876 -502 l 876 -629 l 651 -629 l 651 214 q 627 343 651 286 q 566 433 604 400 q 485 484 528 467 q 401 502 442 502 q 262 446 323 502 q 201 301 201 391 q 262 157 201 214 q 403 99 323 99 q 499 119 456 99 l 544 0 q 401 -27 486 -27 q 171 69 267 -27 q 75 301 75 165 q 146 502 75 410 q 331 620 217 594 q 201 713 252 644 q 149 869 149 781 q 226 1052 149 981 q 403 1123 302 1123 q 509 1096 457 1123 q 590 1019 560 1069 l 518 959 q 467 1008 499 989 q 403 1027 435 1027 q 293 983 342 1027 q 244 869 244 940 q 301 749 244 795 q 403 704 358 704 l 403 628 q 540 602 472 628 l 1008 602 l 1008 126 l 1184 126 l 1184 0 z "},"꩸":{"ha":945,"x_min":75,"x_max":1137,"o":"m 142 552 q 275 304 275 465 q 142 56 275 142 l 75 137 q 163 304 163 206 q 75 469 163 403 l 142 552 m 703 562 q 454 429 616 429 q 206 562 293 429 l 289 629 q 454 541 355 541 q 621 629 552 541 l 703 562 m 1137 854 l 1077 761 q 1029 795 1051 795 q 950 740 994 795 q 865 592 906 685 q 793 354 825 499 q 755 49 762 209 l 621 -27 q 454 61 563 61 q 289 -27 347 61 l 206 42 q 454 175 293 175 q 637 114 564 175 q 777 692 661 460 q 1029 924 894 924 q 1137 854 1093 924 z "},"꩹":{"ha":861,"x_min":75,"x_max":876,"o":"m 876 -629 l 651 -629 l 651 214 q 627 343 651 286 q 566 433 604 400 q 485 484 528 467 q 401 502 442 502 q 262 446 323 502 q 201 301 201 391 q 262 157 201 214 q 403 99 323 99 q 499 118 458 99 l 544 0 q 401 -27 480 -27 q 171 69 267 -27 q 75 301 75 165 q 169 528 75 427 q 401 628 263 628 q 583 585 499 628 q 722 447 666 541 q 779 225 779 353 l 779 -502 l 876 -502 l 876 -629 z "},"ꩺ":{"ha":1527,"x_min":81,"x_max":1446,"o":"m 1446 301 q 1357 68 1446 164 q 1135 -27 1268 -27 q 1080 -23 1107 -27 q 1089 -156 1089 -96 q 956 -493 1089 -357 q 593 -629 822 -629 q 229 -497 376 -629 q 81 -156 81 -365 l 81 430 q 195 777 81 647 q 476 906 308 906 q 850 1054 772 906 l 958 982 q 779 838 918 898 q 476 779 639 779 q 286 692 362 779 q 209 446 209 605 l 209 -132 q 321 -404 209 -305 q 593 -502 434 -502 q 866 -399 769 -502 q 963 -136 963 -296 q 943 30 963 -33 q 791 301 842 103 q 715 450 766 399 q 591 502 665 502 q 454 444 511 502 q 396 302 396 385 q 454 159 396 218 q 591 99 511 99 q 651 114 624 99 l 712 3 q 591 -27 659 -27 q 361 68 452 -27 q 270 301 270 163 q 361 534 270 438 q 591 629 452 629 q 808 538 724 629 q 924 301 891 446 q 1135 99 971 99 q 1267 159 1215 99 q 1320 301 1320 220 q 1267 443 1320 384 q 1135 502 1214 502 q 1065 488 1092 502 l 1005 600 q 1135 629 1059 629 q 1353 535 1260 629 q 1446 301 1446 441 z "},"ꩻ":{"ha":411,"x_min":71,"x_max":339,"o":"m 249 83 q 257 93 249 83 q 266 126 266 103 q 249 168 266 149 q 205 186 232 186 q 161 168 179 186 q 144 126 144 149 q 161 82 144 102 q 205 62 179 62 q 249 83 232 62 m 299 220 q 319 200 299 220 q 339 126 339 180 q 299 33 339 72 q 205 -7 259 -7 q 157 1 179 -7 q 193 -86 164 -39 q 252 -152 221 -133 l 233 -170 q 127 -64 183 -148 q 71 111 71 19 l 71 126 q 111 220 71 180 q 205 259 151 259 q 299 220 259 259 z "},"ꩼ":{"ha":75,"x_min":-644,"x_max":0,"o":"m 0 800 l -644 800 l -644 924 l 0 924 l 0 800 z "},"ꩽ":{"ha":682,"x_min":75,"x_max":606,"o":"m 606 362 l 606 236 l 75 236 l 75 362 l 606 362 z "},"ꩾ":{"ha":1054,"x_min":75,"x_max":979,"o":"m 979 -636 l 589 -498 l 589 -629 l 355 -629 l 355 -507 l 463 -507 l 463 -22 q 399 -27 435 -27 q 256 3 327 -27 q 132 96 184 34 q 75 237 79 159 q 319 324 199 324 q 456 292 385 324 q 572 208 526 260 q 601 301 601 250 q 582 383 601 339 q 514 465 563 427 q 399 502 465 502 q 208 391 278 502 l 98 449 q 223 582 141 534 q 399 629 305 629 q 635 528 543 629 q 727 301 727 426 q 690 149 727 220 q 589 31 654 77 l 589 -368 l 853 -461 l 853 602 l 979 602 l 979 -636 m 499 125 q 423 191 472 165 q 320 217 374 217 q 216 195 271 217 q 399 99 288 99 q 499 125 452 99 z "},"ꩿ":{"ha":1572,"x_min":75,"x_max":1497,"o":"m 1497 -633 l 1107 -495 l 1107 -629 l 872 -629 l 872 -507 l 979 -507 l 979 -20 q 914 -27 943 -27 q 662 110 757 -27 q 551 10 620 47 q 397 -27 481 -27 q 182 47 286 -27 q 75 243 79 122 q 319 324 205 324 q 452 294 382 324 q 570 208 522 263 q 600 301 600 250 q 581 383 600 339 q 513 465 562 427 q 397 502 464 502 q 206 391 282 502 l 98 449 q 219 581 136 533 q 397 629 302 629 q 662 490 568 629 q 774 592 705 555 q 924 629 842 629 q 1151 532 1057 629 q 1245 301 1245 435 q 1208 152 1245 221 q 1107 37 1171 83 l 1107 -365 l 1371 -458 l 1371 602 l 1497 602 l 1497 -633 m 499 125 q 321 217 429 217 q 214 195 274 217 q 397 99 286 99 q 499 125 450 99 m 1119 301 q 1061 442 1119 382 q 924 502 1004 502 q 783 443 841 502 q 726 301 726 384 q 785 159 726 218 q 924 99 844 99 q 1062 158 1005 99 q 1119 301 1119 217 z "},"ႁ":{"ha":780,"x_min":41,"x_max":705,"o":"m 705 449 l 593 391 q 403 502 525 502 q 262 442 320 502 q 203 301 203 382 q 259 161 203 220 q 395 99 315 102 l 444 232 l 562 189 l 266 -629 l 41 -547 l 84 -429 l 190 -468 l 350 -23 q 155 87 233 -5 q 76 301 76 180 q 172 532 76 435 q 403 629 269 629 q 576 584 491 629 q 705 449 661 538 z "},"︀":{"ha":0,"x_min":0,"x_max":0,"o":""}}}
